<svg width="92" height="36" viewBox="0 0 92 36" fill="none" xmlns="http://www.w3.org/2000/svg">
<rect x="1.17676" y="1.20752" width="90.2012" height="33.4632" rx="4.5" fill="white" stroke="#D8D8D8"/>
<path d="M22.1237 18.4314C22.1413 17.0599 22.875 15.7621 24.0389 15.0437C23.3047 13.9909 22.0747 13.3234 20.7951 13.2832C19.4303 13.1394 18.1072 14.1031 17.4117 14.1031C16.7028 14.1031 15.632 13.2975 14.4789 13.3213C12.976 13.37 11.5748 14.2279 10.8436 15.547C9.27173 18.2791 10.4442 22.2942 11.9499 24.5026C12.7032 25.584 13.5837 26.7919 14.7357 26.7491C15.863 26.7022 16.2841 26.0274 17.6449 26.0274C18.993 26.0274 19.388 26.7491 20.5634 26.7219C21.7731 26.7021 22.5353 25.6357 23.2622 24.5441C23.8034 23.7735 24.2199 22.9219 24.4963 22.0208C23.0747 21.4172 22.1253 19.981 22.1237 18.4314Z" fill="#090909"/>
<path d="M19.9035 11.8309C20.5631 11.036 20.888 10.0143 20.8093 8.98279C19.8017 9.08904 18.8708 9.57252 18.2024 10.3369C17.5487 11.0837 17.2085 12.0874 17.2728 13.0795C18.2809 13.0899 19.2718 12.6196 19.9035 11.8309Z" fill="#090909"/>
<path d="M62.331 17.0148V18.6768H61.2933V19.7668H62.331V23.4702C62.331 24.7348 62.9008 25.2406 64.3345 25.2406C64.5864 25.2406 64.8263 25.2105 65.0363 25.1744V24.0965C64.8563 24.1146 64.7424 24.1266 64.5444 24.1266C63.9026 24.1266 63.6207 23.8255 63.6207 23.139V19.7668H65.0363V18.6768H63.6207V17.0148H62.331Z" fill="#090909"/>
<path d="M68.6884 25.331C70.5959 25.331 71.7656 24.0483 71.7656 21.9226C71.7656 19.8089 70.5899 18.5203 68.6884 18.5203C66.7809 18.5203 65.6052 19.8089 65.6052 21.9226C65.6052 24.0483 66.7749 25.331 68.6884 25.331ZM68.6884 24.1808C67.5667 24.1808 66.9368 23.3558 66.9368 21.9226C66.9368 20.5014 67.5667 19.6704 68.6884 19.6704C69.8041 19.6704 70.4399 20.5014 70.4399 21.9226C70.4399 23.3498 69.8041 24.1808 68.6884 24.1808Z" fill="#090909"/>
<path d="M72.7664 25.2045H74.056V21.3325C74.056 20.4111 74.7458 19.7909 75.7236 19.7909C75.9515 19.7909 76.3354 19.833 76.4434 19.8692V18.5925C76.3054 18.5564 76.0595 18.5383 75.8676 18.5383C75.0158 18.5383 74.29 19.008 74.104 19.6524H74.008V18.6467H72.7664V25.2045Z" fill="#090909"/>
<path d="M79.6456 19.6223C80.5994 19.6223 81.2232 20.2907 81.2532 21.3204H77.9541C78.026 20.2967 78.6919 19.6223 79.6456 19.6223ZM81.2472 23.4341C81.0073 23.9459 80.4734 24.229 79.6936 24.229C78.6619 24.229 77.996 23.5003 77.9541 22.3502V22.2779H82.5669V21.8263C82.5669 19.7668 81.4691 18.5203 79.6516 18.5203C77.8101 18.5203 76.6404 19.8511 76.6404 21.9467C76.6404 24.0423 77.7861 25.331 79.6576 25.331C81.1512 25.331 82.195 24.6084 82.4889 23.4341H81.2472Z" fill="#090909"/>
<path d="M53.8736 22.7828C53.973 24.3931 55.3097 25.423 57.2992 25.423C59.4255 25.423 60.756 24.3432 60.756 22.6205C60.756 21.2661 59.9975 20.5172 58.1572 20.0865L57.1687 19.8431C55.9998 19.5685 55.5273 19.2002 55.5273 18.5573C55.5273 17.746 56.261 17.2154 57.3614 17.2154C58.4059 17.2154 59.1271 17.7335 59.2577 18.5636H60.613C60.5322 17.0469 59.2017 15.9796 57.3801 15.9796C55.4216 15.9796 54.116 17.0469 54.116 18.651C54.116 19.9742 54.8559 20.7606 56.4786 21.1413L57.635 21.4222C58.8225 21.703 59.3447 22.115 59.3447 22.8015C59.3447 23.6005 58.524 24.1809 57.4049 24.1809C56.205 24.1809 55.3719 23.6379 55.2538 22.7828H53.8736Z" fill="#090909"/>
<path d="M40.514 18.5383C39.6262 18.5383 38.8584 18.9839 38.4625 19.7306H38.3665V18.6467H37.1248V27.3844H38.4145V24.2109H38.5165C38.8584 24.9034 39.5962 25.3129 40.5259 25.3129C42.1755 25.3129 43.2252 24.0062 43.2252 21.9226C43.2252 19.839 42.1755 18.5383 40.514 18.5383ZM40.148 24.1507C39.0683 24.1507 38.3905 23.2956 38.3905 21.9286C38.3905 20.5556 39.0683 19.7005 40.154 19.7005C41.2458 19.7005 41.8996 20.5376 41.8996 21.9226C41.8996 23.3137 41.2458 24.1507 40.148 24.1507Z" fill="#090909"/>
<path d="M47.738 18.5383C46.8502 18.5383 46.0824 18.9839 45.6865 19.7306H45.5906V18.6467H44.3489V27.3844H45.6385V24.2109H45.7405C46.0824 24.9034 46.8202 25.3129 47.75 25.3129C49.3996 25.3129 50.4493 24.0062 50.4493 21.9226C50.4493 19.839 49.3996 18.5383 47.738 18.5383ZM47.3721 24.1507C46.2924 24.1507 45.6145 23.2956 45.6145 21.9286C45.6145 20.5556 46.2924 19.7005 47.3781 19.7005C48.4698 19.7005 49.1236 20.5376 49.1236 21.9226C49.1236 23.3137 48.4698 24.1507 47.3721 24.1507Z" fill="#090909"/>
<path d="M34.8109 25.2045H36.2906L33.0515 16.1981H31.5531L28.314 25.2045H29.7439L30.5708 22.814H33.9903L34.8109 25.2045ZM32.2308 17.8333H32.3365L33.6359 21.6406H30.9252L32.2308 17.8333Z" fill="#090909"/>
<path d="M28.2783 9.84545V13.4055H29.5587C30.6154 13.4055 31.2273 12.7517 31.2273 11.6144C31.2273 10.4943 30.6105 9.84545 29.5587 9.84545H28.2783ZM28.8288 10.3487H29.4972C30.232 10.3487 30.667 10.8175 30.667 11.6218C30.667 12.4384 30.2394 12.9022 29.4972 12.9022H28.8288V10.3487Z" fill="#090909"/>
<path d="M33.1014 13.4573C33.8829 13.4573 34.3621 12.9318 34.3621 12.0609C34.3621 11.195 33.8804 10.667 33.1014 10.667C32.3199 10.667 31.8383 11.195 31.8383 12.0609C31.8383 12.9318 32.3175 13.4573 33.1014 13.4573ZM33.1014 12.9861C32.6419 12.9861 32.3838 12.6481 32.3838 12.0609C32.3838 11.4787 32.6419 11.1382 33.1014 11.1382C33.5585 11.1382 33.819 11.4787 33.819 12.0609C33.819 12.6456 33.5585 12.9861 33.1014 12.9861Z" fill="#090909"/>
<path d="M38.443 10.7188H37.9147L37.4379 12.769H37.3961L36.8457 10.7188H36.3394L35.7889 12.769H35.7496L35.2704 10.7188H34.7347L35.4719 13.4055H36.015L36.5655 11.4269H36.6073L37.1602 13.4055H37.7083L38.443 10.7188Z" fill="#090909"/>
<path d="M39.0515 13.4055H39.5799V11.8339C39.5799 11.4145 39.8281 11.153 40.2188 11.153C40.6096 11.153 40.7963 11.3676 40.7963 11.7994V13.4055H41.3247V11.6662C41.3247 11.0272 40.9954 10.667 40.3982 10.667C39.9952 10.667 39.7298 10.8471 39.5995 11.1456H39.5602V10.7188H39.0515V13.4055Z" fill="#090909"/>
<path d="M42.1568 13.4055H42.6852V9.67029H42.1568V13.4055Z" fill="#090909"/>
<path d="M44.6723 13.4573C45.4538 13.4573 45.933 12.9318 45.933 12.0609C45.933 11.195 45.4513 10.667 44.6723 10.667C43.8908 10.667 43.4092 11.195 43.4092 12.0609C43.4092 12.9318 43.8884 13.4573 44.6723 13.4573ZM44.6723 12.9861C44.2128 12.9861 43.9547 12.6481 43.9547 12.0609C43.9547 11.4787 44.2128 11.1382 44.6723 11.1382C45.1294 11.1382 45.3899 11.4787 45.3899 12.0609C45.3899 12.6456 45.1294 12.9861 44.6723 12.9861Z" fill="#090909"/>
<path d="M47.5073 13.0033C47.2198 13.0033 47.0109 12.8627 47.0109 12.6209C47.0109 12.3841 47.178 12.2583 47.5466 12.2336L48.2003 12.1917V12.4162C48.2003 12.7492 47.9054 13.0033 47.5073 13.0033ZM47.3721 13.4499C47.7236 13.4499 48.016 13.2969 48.1757 13.028H48.2175V13.4055H48.7262V11.57C48.7262 11.0025 48.3478 10.667 47.6769 10.667C47.0699 10.667 46.6373 10.963 46.5833 11.4244H47.0944C47.1534 11.2344 47.3574 11.1259 47.6523 11.1259C48.0135 11.1259 48.2003 11.2862 48.2003 11.57V11.8019L47.4753 11.8438C46.8389 11.8833 46.4801 12.1621 46.4801 12.6456C46.4801 13.1366 46.8561 13.4499 47.3721 13.4499Z" fill="#090909"/>
<path d="M50.5192 13.4499C50.8878 13.4499 51.1999 13.2747 51.3597 12.9811H51.4015V13.4055H51.9077V9.67029H51.3793V11.1456H51.34C51.195 10.8496 50.8854 10.6744 50.5192 10.6744C49.8434 10.6744 49.4084 11.2122 49.4084 12.0609C49.4084 12.9121 49.8385 13.4499 50.5192 13.4499ZM50.6691 11.1505C51.1115 11.1505 51.3892 11.5033 51.3892 12.0634C51.3892 12.6259 51.1139 12.9737 50.6691 12.9737C50.2219 12.9737 49.954 12.6308 49.954 12.0609C49.954 11.4959 50.2243 11.1505 50.6691 11.1505Z" fill="#090909"/>
<path d="M55.334 13.4573C56.1154 13.4573 56.5947 12.9318 56.5947 12.0609C56.5947 11.195 56.113 10.667 55.334 10.667C54.5525 10.667 54.0708 11.195 54.0708 12.0609C54.0708 12.9318 54.55 13.4573 55.334 13.4573ZM55.334 12.9861C54.8744 12.9861 54.6164 12.6481 54.6164 12.0609C54.6164 11.4787 54.8744 11.1382 55.334 11.1382C55.791 11.1382 56.0515 11.4787 56.0515 12.0609C56.0515 12.6456 55.791 12.9861 55.334 12.9861Z" fill="#090909"/>
<path d="M57.2941 13.4055H57.8224V11.8339C57.8224 11.4145 58.0706 11.153 58.4614 11.153C58.8521 11.153 59.0389 11.3676 59.0389 11.7994V13.4055H59.5672V11.6662C59.5672 11.0272 59.2379 10.667 58.6408 10.667C58.2377 10.667 57.9723 10.8471 57.8421 11.1456H57.8028V10.7188H57.2941V13.4055Z" fill="#090909"/>
<path d="M62.0007 10.0502V10.7311H61.5755V11.1777H62.0007V12.6949C62.0007 13.213 62.2341 13.4203 62.8215 13.4203C62.9247 13.4203 63.023 13.4079 63.109 13.3931V12.9515C63.0353 12.9589 62.9886 12.9639 62.9075 12.9639C62.6445 12.9639 62.529 12.8405 62.529 12.5593V11.1777H63.109V10.7311H62.529V10.0502H62.0007Z" fill="#090909"/>
<path d="M63.8182 13.4055H64.3466V11.8364C64.3466 11.4293 64.5874 11.1555 65.02 11.1555C65.3935 11.1555 65.5926 11.3726 65.5926 11.8019V13.4055H66.1209V11.6711C66.1209 11.0321 65.7695 10.6695 65.1993 10.6695C64.7963 10.6695 64.5137 10.8496 64.3835 11.1505H64.3417V9.67029H63.8182V13.4055Z" fill="#090909"/>
<path d="M68.027 11.1185C68.4177 11.1185 68.6733 11.3923 68.6856 11.8142H67.3339C67.3634 11.3948 67.6362 11.1185 68.027 11.1185ZM68.6831 12.6801C68.5848 12.8898 68.3661 13.0058 68.0466 13.0058C67.6239 13.0058 67.3511 12.7073 67.3339 12.2361V12.2065H69.2238V12.0214C69.2238 11.1777 68.774 10.667 68.0294 10.667C67.275 10.667 66.7957 11.2122 66.7957 12.0708C66.7957 12.9293 67.2651 13.4573 68.0319 13.4573C68.6438 13.4573 69.0714 13.1612 69.1918 12.6801H68.6831Z" fill="#090909"/>
</svg>
