<svg width="89" height="35" viewBox="0 0 89 35" fill="none" xmlns="http://www.w3.org/2000/svg">
<rect x="0.5" y="0.578369" width="87.651" height="33.2961" rx="4.5" fill="white" stroke="#D8D8D8"/>
<g filter="url(#filter0_ii_949_11319)">
<path d="M9.64849 9.25662C9.46125 9.45557 9.35059 9.76432 9.35059 10.1641V24.4493C9.35059 24.8498 9.46125 25.1579 9.64849 25.3569L9.6961 25.4034L17.6673 17.401V17.3067V17.2124L9.6961 9.20947L9.64849 9.25662Z" fill="url(#paint0_linear_949_11319)"/>
<path d="M20.3241 20.0692L17.6675 17.4009V17.3066V17.2123L20.3248 14.5447L20.3846 14.5789L23.5328 16.3746C24.4316 16.8874 24.4316 17.7265 23.5328 18.24L20.3846 20.0357L20.3241 20.0692Z" fill="url(#paint1_linear_949_11319)"/>
<g filter="url(#filter1_i_949_11319)">
<path d="M20.3844 20.0349L17.6666 17.3065L9.64844 25.3566C9.94441 25.6718 10.434 25.7106 10.9854 25.3967L20.3844 20.0349Z" fill="url(#paint2_linear_949_11319)"/>
</g>
<path d="M20.3844 14.5783L10.9854 9.2172C10.434 8.90264 9.94441 8.94204 9.64844 9.25725L17.6673 17.3074L20.3844 14.5783Z" fill="url(#paint3_linear_949_11319)"/>
</g>
<path d="M44.4225 18.0882C42.9932 18.0882 41.8283 19.1747 41.8283 20.6713C41.8283 22.1588 42.9932 23.2545 44.4225 23.2545C45.8524 23.2545 47.0173 22.1588 47.0173 20.6713C47.0167 19.1747 45.8517 18.0882 44.4225 18.0882ZM44.4225 22.2377C43.6392 22.2377 42.964 21.5921 42.964 20.6719C42.964 19.742 43.6398 19.1061 44.4225 19.1061C45.2058 19.1061 45.8809 19.742 45.8809 20.6719C45.8809 21.5915 45.2058 22.2377 44.4225 22.2377ZM38.7626 18.0882C37.3333 18.0882 36.1684 19.1747 36.1684 20.6713C36.1684 22.1588 37.3333 23.2545 38.7626 23.2545C40.1924 23.2545 41.3573 22.1588 41.3573 20.6713C41.3573 19.1747 40.1924 18.0882 38.7626 18.0882ZM38.7626 22.2377C37.9793 22.2377 37.3041 21.5921 37.3041 20.6719C37.3041 19.742 37.9799 19.1061 38.7626 19.1061C39.5458 19.1061 40.221 19.742 40.221 20.6719C40.2216 21.5915 39.5458 22.2377 38.7626 22.2377ZM32.0307 18.8814V19.9771H34.6546C34.5762 20.5936 34.3709 21.0436 34.0573 21.3564C33.6757 21.7379 33.0783 22.1588 32.0307 22.1588C30.4155 22.1588 29.1527 20.8572 29.1527 19.2428C29.1527 17.6284 30.4155 16.3268 32.0307 16.3268C32.9021 16.3268 33.5383 16.6693 34.0081 17.1097L34.7816 16.3365C34.1253 15.7103 33.2545 15.2311 32.0307 15.2311C29.8181 15.2311 27.958 17.0313 27.958 19.2428C27.958 21.4542 29.8181 23.2545 32.0307 23.2545C33.2248 23.2545 34.126 22.8627 34.8303 22.129C35.5546 21.405 35.7801 20.3871 35.7801 19.5653C35.7801 19.3114 35.7606 19.0764 35.7211 18.8808L32.0307 18.8814ZM59.5634 19.7323C59.3483 19.1553 58.692 18.0882 57.3509 18.0882C56.0194 18.0882 54.9129 19.1353 54.9129 20.6713C54.9129 22.1193 56.0097 23.2545 57.4779 23.2545C58.6622 23.2545 59.3477 22.5305 59.6321 22.1096L58.751 21.5222C58.4574 21.9529 58.0558 22.2365 57.4779 22.2365C56.9006 22.2365 56.4892 21.9723 56.2248 21.4536L59.6807 20.0251L59.5634 19.7323ZM56.0389 20.5936C56.0097 19.595 56.8125 19.0867 57.3904 19.0867C57.8407 19.0867 58.2223 19.312 58.3499 19.6345L56.0389 20.5936ZM53.2296 23.0984H54.3647V15.5056H53.2296V23.0984ZM51.3689 18.6658H51.33C51.0754 18.3621 50.5856 18.0882 49.9694 18.0882C48.6768 18.0882 47.4925 19.2233 47.4925 20.6816C47.4925 22.1296 48.6768 23.2551 49.9694 23.2551C50.5862 23.2551 51.0754 22.9811 51.33 22.6683H51.3689V23.0401C51.3689 24.0283 50.8402 24.5567 49.9888 24.5567C49.2936 24.5567 48.8628 24.058 48.6866 23.6371L47.6979 24.0483C47.9817 24.7328 48.7352 25.5746 49.9888 25.5746C51.3202 25.5746 52.4463 24.7917 52.4463 22.8834V18.2455H51.3695L51.3689 18.6658ZM50.0672 22.2377C49.2839 22.2377 48.6282 21.5818 48.6282 20.6816C48.6282 19.7712 49.2839 19.1061 50.0672 19.1061C50.8402 19.1061 51.4473 19.7712 51.4473 20.6816C51.4473 21.5818 50.8402 22.2377 50.0672 22.2377ZM64.8831 15.5056H62.1661V23.0984H63.2994V20.2219H64.8824C66.1391 20.2219 67.3751 19.3126 67.3751 17.864C67.3751 16.4155 66.1397 15.5056 64.8831 15.5056ZM64.9122 19.165H63.2994V16.5624H64.9122C65.7599 16.5624 66.2412 17.264 66.2412 17.864C66.2412 18.452 65.7599 19.165 64.9122 19.165ZM71.92 18.0748C71.099 18.0748 70.2489 18.4362 69.897 19.2373L70.9033 19.657C71.1185 19.2373 71.5195 19.1 71.9394 19.1C72.5258 19.1 73.122 19.4517 73.1317 20.0767V20.155C72.9263 20.0378 72.4863 19.8623 71.9492 19.8623C70.8644 19.8623 69.7597 20.4581 69.7597 21.5714C69.7597 22.5876 70.6493 23.2417 71.6459 23.2417C72.4079 23.2417 72.8285 22.8998 73.0922 22.4989H73.1311V23.085H74.2261V20.1739C74.2267 18.8267 73.2192 18.0748 71.92 18.0748ZM71.7826 22.2359C71.412 22.2359 70.8936 22.05 70.8936 21.5909C70.8936 21.0048 71.539 20.78 72.0962 20.78C72.5939 20.78 72.8291 20.8875 73.1317 21.0339C73.0436 21.7379 72.4377 22.2359 71.7826 22.2359ZM78.2137 18.2406L76.9139 21.5326H76.875L75.526 18.2406H74.3045L76.3275 22.8415L75.1741 25.4009H76.3566L79.4747 18.2406H78.2137ZM68.0011 23.0984H69.1344V15.5056H68.0011V23.0984Z" fill="#090909"/>
<path d="M31.8894 11.0146C31.8894 11.5144 31.7389 11.9122 31.4371 12.2091C31.0947 12.5622 30.6478 12.7387 30.099 12.7387C29.5732 12.7387 29.1257 12.5598 28.7584 12.202C28.3905 11.8436 28.2065 11.3999 28.2065 10.8703C28.2065 10.3401 28.3905 9.89644 28.7584 9.53861C29.1257 9.1802 29.5732 9.00129 30.099 9.00129C30.3601 9.00129 30.6096 9.05138 30.8464 9.15098C31.0838 9.25117 31.2738 9.38416 31.4159 9.55054L31.0959 9.86542C30.8549 9.58215 30.5228 9.44081 30.0984 9.44081C29.7147 9.44081 29.3832 9.5732 29.1033 9.83799C28.8234 10.1028 28.6838 10.4469 28.6838 10.8697C28.6838 11.2925 28.8234 11.6366 29.1033 11.9014C29.3832 12.1662 29.7147 12.2986 30.0984 12.2986C30.5052 12.2986 30.8445 12.1656 31.1159 11.899C31.292 11.7255 31.394 11.484 31.4213 11.1745H30.0984V10.7445H31.8633C31.8815 10.8381 31.8894 10.9282 31.8894 11.0146Z" fill="#090909"/>
<path d="M34.6884 9.52016H33.0297V10.6545H34.5257V11.0844H33.0297V12.2187H34.6884V12.6588H32.5616V9.08064H34.6884V9.52016Z" fill="#090909"/>
<path d="M36.6621 12.6588H36.194V9.52016H35.1764V9.08064H37.6797V9.52016H36.6621V12.6588Z" fill="#090909"/>
<path d="M39.4907 12.6588V9.08064H39.9588V12.6588H39.4907Z" fill="#090909"/>
<path d="M42.0347 12.6588H41.5666V9.52016H40.5491V9.08064H43.0523V9.52016H42.0347V12.6588Z" fill="#090909"/>
<path d="M47.7908 12.1967C47.4326 12.5581 46.9876 12.7388 46.4551 12.7388C45.9227 12.7388 45.4776 12.5581 45.12 12.1967C44.7618 11.8353 44.5833 11.3928 44.5833 10.8697C44.5833 10.3467 44.7618 9.90422 45.12 9.54282C45.4776 9.18142 45.9227 9.00012 46.4551 9.00012C46.9846 9.00012 47.429 9.18201 47.7884 9.5452C48.1478 9.90839 48.3275 10.3497 48.3275 10.8697C48.3275 11.3928 48.1484 11.8353 47.7908 12.1967ZM45.4655 11.8967C45.7351 12.165 46.0647 12.2986 46.4551 12.2986C46.8455 12.2986 47.1758 12.1645 47.4448 11.8967C47.7143 11.6283 47.8497 11.286 47.8497 10.8697C47.8497 10.4535 47.7143 10.1112 47.4448 9.84279C47.1758 9.57442 46.8455 9.44084 46.4551 9.44084C46.0647 9.44084 45.7351 9.57502 45.4655 9.84279C45.1965 10.1112 45.0612 10.4535 45.0612 10.8697C45.0612 11.286 45.1965 11.6283 45.4655 11.8967Z" fill="#090909"/>
<path d="M48.9845 12.6588V9.08064H49.554L51.3244 11.8639H51.3444L51.3244 11.1745V9.08064H51.7925V12.6588H51.3037L49.4514 9.74022H49.4313L49.4514 10.4296V12.6588H48.9845Z" fill="#090909"/>
<path d="M31.8894 11.0146C31.8894 11.5144 31.7389 11.9122 31.4371 12.2091C31.0947 12.5622 30.6478 12.7387 30.099 12.7387C29.5732 12.7387 29.1257 12.5598 28.7584 12.202C28.3905 11.8436 28.2065 11.3999 28.2065 10.8703C28.2065 10.3401 28.3905 9.89644 28.7584 9.53861C29.1257 9.1802 29.5732 9.00129 30.099 9.00129C30.3601 9.00129 30.6096 9.05138 30.8464 9.15098C31.0838 9.25117 31.2738 9.38416 31.4159 9.55054L31.0959 9.86542C30.8549 9.58215 30.5228 9.44081 30.0984 9.44081C29.7147 9.44081 29.3832 9.5732 29.1033 9.83799C28.8234 10.1028 28.6838 10.4469 28.6838 10.8697C28.6838 11.2925 28.8234 11.6366 29.1033 11.9014C29.3832 12.1662 29.7147 12.2986 30.0984 12.2986C30.5052 12.2986 30.8445 12.1656 31.1159 11.899C31.292 11.7255 31.394 11.484 31.4213 11.1745H30.0984V10.7445H31.8633C31.8815 10.8381 31.8894 10.9282 31.8894 11.0146Z" stroke="white" stroke-width="0.204511" stroke-miterlimit="10"/>
<path d="M34.6884 9.52016H33.0297V10.6545H34.5257V11.0844H33.0297V12.2187H34.6884V12.6588H32.5616V9.08064H34.6884V9.52016Z" stroke="white" stroke-width="0.204511" stroke-miterlimit="10"/>
<path d="M36.6621 12.6588H36.194V9.52016H35.1764V9.08064H37.6797V9.52016H36.6621V12.6588Z" stroke="white" stroke-width="0.204511" stroke-miterlimit="10"/>
<path d="M39.4907 12.6588V9.08064H39.9588V12.6588H39.4907Z" stroke="white" stroke-width="0.204511" stroke-miterlimit="10"/>
<path d="M42.0347 12.6588H41.5666V9.52016H40.5491V9.08064H43.0523V9.52016H42.0347V12.6588Z" stroke="white" stroke-width="0.204511" stroke-miterlimit="10"/>
<path d="M47.7908 12.1967C47.4326 12.5581 46.9876 12.7388 46.4551 12.7388C45.9227 12.7388 45.4776 12.5581 45.12 12.1967C44.7618 11.8353 44.5833 11.3928 44.5833 10.8697C44.5833 10.3467 44.7618 9.90422 45.12 9.54282C45.4776 9.18142 45.9227 9.00012 46.4551 9.00012C46.9846 9.00012 47.429 9.18201 47.7884 9.5452C48.1478 9.90839 48.3275 10.3497 48.3275 10.8697C48.3275 11.3928 48.1484 11.8353 47.7908 12.1967ZM45.4655 11.8967C45.7351 12.165 46.0647 12.2986 46.4551 12.2986C46.8455 12.2986 47.1758 12.1645 47.4448 11.8967C47.7143 11.6283 47.8497 11.286 47.8497 10.8697C47.8497 10.4535 47.7143 10.1112 47.4448 9.84279C47.1758 9.57442 46.8455 9.44084 46.4551 9.44084C46.0647 9.44084 45.7351 9.57502 45.4655 9.84279C45.1965 10.1112 45.0612 10.4535 45.0612 10.8697C45.0612 11.286 45.1965 11.6283 45.4655 11.8967Z" stroke="white" stroke-width="0.204511" stroke-miterlimit="10"/>
<path d="M48.9845 12.6588V9.08064H49.554L51.3244 11.8639H51.3444L51.3244 11.1745V9.08064H51.7925V12.6588H51.3037L49.4514 9.74022H49.4313L49.4514 10.4296V12.6588H48.9845Z" stroke="white" stroke-width="0.204511" stroke-miterlimit="10"/>
<defs>
<filter id="filter0_ii_949_11319" x="9.35059" y="9.00012" width="14.8564" height="16.6134" filterUnits="userSpaceOnUse" color-interpolation-filters="sRGB">
<feFlood flood-opacity="0" result="BackgroundImageFix"/>
<feBlend mode="normal" in="SourceGraphic" in2="BackgroundImageFix" result="shape"/>
<feColorMatrix in="SourceAlpha" type="matrix" values="0 0 0 0 0 0 0 0 0 0 0 0 0 0 0 0 0 0 127 0" result="hardAlpha"/>
<feOffset dy="-0.795"/>
<feComposite in2="hardAlpha" operator="arithmetic" k2="-1" k3="1"/>
<feColorMatrix type="matrix" values="0 0 0 0 0 0 0 0 0 0 0 0 0 0 0 0 0 0 0.12 0"/>
<feBlend mode="normal" in2="shape" result="effect1_innerShadow_949_11319"/>
<feColorMatrix in="SourceAlpha" type="matrix" values="0 0 0 0 0 0 0 0 0 0 0 0 0 0 0 0 0 0 127 0" result="hardAlpha"/>
<feOffset dy="0.795"/>
<feComposite in2="hardAlpha" operator="arithmetic" k2="-1" k3="1"/>
<feColorMatrix type="matrix" values="0 0 0 0 1 0 0 0 0 1 0 0 0 0 1 0 0 0 0.25 0"/>
<feBlend mode="normal" in2="effect1_innerShadow_949_11319" result="effect2_innerShadow_949_11319"/>
</filter>
<filter id="filter1_i_949_11319" x="9.64844" y="17.3065" width="10.7358" height="8.30701" filterUnits="userSpaceOnUse" color-interpolation-filters="sRGB">
<feFlood flood-opacity="0" result="BackgroundImageFix"/>
<feBlend mode="normal" in="SourceGraphic" in2="BackgroundImageFix" result="shape"/>
<feColorMatrix in="SourceAlpha" type="matrix" values="0 0 0 0 0 0 0 0 0 0 0 0 0 0 0 0 0 0 127 0" result="hardAlpha"/>
<feOffset dy="-0.795"/>
<feComposite in2="hardAlpha" operator="arithmetic" k2="-1" k3="1"/>
<feColorMatrix type="matrix" values="0 0 0 0 0 0 0 0 0 0 0 0 0 0 0 0 0 0 0.08 0"/>
<feBlend mode="normal" in2="shape" result="effect1_innerShadow_949_11319"/>
</filter>
<linearGradient id="paint0_linear_949_11319" x1="16.9607" y1="10.013" x2="6.12094" y2="20.8106" gradientUnits="userSpaceOnUse">
<stop stop-color="#00A0FF"/>
<stop offset="0.0066" stop-color="#00A1FF"/>
<stop offset="0.2601" stop-color="#00BEFF"/>
<stop offset="0.5122" stop-color="#00D2FF"/>
<stop offset="0.7604" stop-color="#00DFFF"/>
<stop offset="1" stop-color="#00E3FF"/>
</linearGradient>
<linearGradient id="paint1_linear_949_11319" x1="24.7028" y1="17.3066" x2="9.13496" y2="17.3066" gradientUnits="userSpaceOnUse">
<stop stop-color="#FFE000"/>
<stop offset="0.4087" stop-color="#FFBD00"/>
<stop offset="0.7754" stop-color="#FFA500"/>
<stop offset="1" stop-color="#FF9C00"/>
</linearGradient>
<linearGradient id="paint2_linear_949_11319" x1="18.9085" y1="18.7882" x2="4.20837" y2="33.4311" gradientUnits="userSpaceOnUse">
<stop stop-color="#FF3A44"/>
<stop offset="1" stop-color="#C31162"/>
</linearGradient>
<linearGradient id="paint3_linear_949_11319" x1="7.62903" y1="4.50185" x2="14.193" y2="11.0403" gradientUnits="userSpaceOnUse">
<stop stop-color="#32A071"/>
<stop offset="0.0685" stop-color="#2DA771"/>
<stop offset="0.4762" stop-color="#15CF74"/>
<stop offset="0.8009" stop-color="#06E775"/>
<stop offset="1" stop-color="#00F076"/>
</linearGradient>
</defs>
</svg>
