<svg width="46" height="65" viewBox="0 0 46 65" fill="none" xmlns="http://www.w3.org/2000/svg">
<path d="M44.5 23.0407V57C44.5 60.5899 41.5899 63.5 38 63.5H8C4.41015 63.5 1.5 60.5899 1.5 57V8C1.5 4.41015 4.41015 1.5 8 1.5H25.2206V13.5407C25.2206 18.7874 29.4739 23.0407 34.7206 23.0407H44.5ZM42.6444 20.0407H34.7206C31.1307 20.0407 28.2206 17.1305 28.2206 13.5407V3.9251L42.6444 20.0407Z" fill="#EEF1F7" stroke="#CBD0DC" stroke-width="3"/>
<rect x="3" y="38.6163" width="40.45" height="23.5943" rx="5" fill="#018BD3"/>
<path d="M15.4933 48.1445C15.4502 47.7414 15.2686 47.4274 14.9485 47.2028C14.6315 46.9781 14.2191 46.8658 13.7113 46.8658C13.3543 46.8658 13.0481 46.9196 12.7926 47.0273C12.5372 47.1351 12.3418 47.2812 12.2063 47.4659C12.0709 47.6506 12.0017 47.8614 11.9986 48.0984C11.9986 48.2953 12.0432 48.4661 12.1325 48.6108C12.2248 48.7554 12.3495 48.8786 12.5064 48.9801C12.6634 49.0786 12.8373 49.1617 13.0281 49.2294C13.2189 49.2971 13.4112 49.354 13.6051 49.4002L14.4915 49.6218C14.8485 49.7049 15.1917 49.8172 15.521 49.9588C15.8534 50.1004 16.1504 50.2789 16.412 50.4943C16.6766 50.7098 16.8859 50.9698 17.0398 51.2745C17.1937 51.5792 17.2706 51.9362 17.2706 52.3455C17.2706 52.8995 17.129 53.3873 16.8459 53.8089C16.5628 54.2275 16.1534 54.5553 15.6179 54.7923C15.0855 55.0262 14.4407 55.1431 13.6836 55.1431C12.9481 55.1431 12.3094 55.0292 11.7678 54.8015C11.2292 54.5737 10.8076 54.2414 10.5029 53.8043C10.2013 53.3673 10.0381 52.8349 10.0135 52.207H11.6985C11.7232 52.5363 11.8247 52.8103 12.0032 53.0288C12.1817 53.2473 12.4141 53.4104 12.7003 53.5181C12.9896 53.6258 13.3128 53.6797 13.6698 53.6797C14.0422 53.6797 14.3684 53.6243 14.6485 53.5135C14.9316 53.3996 15.1532 53.2427 15.3132 53.0426C15.4733 52.8395 15.5548 52.6025 15.5579 52.3317C15.5548 52.0855 15.4825 51.8823 15.3409 51.7223C15.1994 51.5592 15.0009 51.4238 14.7454 51.3161C14.493 51.2053 14.1976 51.1068 13.859 51.0206L12.7834 50.7436C12.0048 50.5436 11.3892 50.2404 10.9368 49.8342C10.4875 49.4248 10.2628 48.8816 10.2628 48.2045C10.2628 47.6475 10.4136 47.1597 10.7152 46.7411C11.0199 46.3226 11.4339 45.9979 11.9571 45.767C12.4803 45.5331 13.0727 45.4162 13.7344 45.4162C14.4053 45.4162 14.9932 45.5331 15.4979 45.767C16.0057 45.9979 16.4043 46.3195 16.6936 46.7319C16.9829 47.1412 17.1321 47.6121 17.1414 48.1445H15.4933ZM20.0624 45.5455L22.523 52.9872H22.62L25.0759 45.5455H26.9595L23.6264 55H21.512L18.1835 45.5455H20.0624ZM34.0307 48.5646C33.9538 48.3153 33.8476 48.0922 33.7122 47.8952C33.5799 47.6952 33.4198 47.5244 33.2321 47.3828C33.0474 47.2412 32.8351 47.1351 32.595 47.0643C32.355 46.9904 32.0934 46.9535 31.8102 46.9535C31.3024 46.9535 30.85 47.0812 30.453 47.3366C30.056 47.5921 29.7436 47.9676 29.5158 48.4631C29.2912 48.9555 29.1788 49.5556 29.1788 50.2635C29.1788 50.9775 29.2912 51.5823 29.5158 52.0778C29.7405 52.5733 30.0529 52.9503 30.453 53.2088C30.8531 53.4643 31.3178 53.592 31.8471 53.592C32.3273 53.592 32.7427 53.4996 33.0936 53.315C33.4475 53.1303 33.7199 52.8687 33.9107 52.5302C34.1015 52.1886 34.1969 51.7885 34.1969 51.3299L34.5847 51.3899H32.018V50.0511H35.8542V51.1868C35.8542 51.9962 35.6819 52.6964 35.3372 53.2873C34.9925 53.8782 34.5185 54.3337 33.9153 54.6538C33.3121 54.9708 32.6196 55.1293 31.8379 55.1293C30.9669 55.1293 30.2021 54.9338 29.5435 54.543C28.888 54.149 28.3756 53.5904 28.0062 52.8672C27.64 52.1409 27.4569 51.2791 27.4569 50.282C27.4569 49.5187 27.5646 48.837 27.78 48.2369C27.9985 47.6367 28.3032 47.1274 28.6941 46.7088C29.085 46.2872 29.5435 45.9671 30.0698 45.7486C30.5961 45.527 31.1685 45.4162 31.7871 45.4162C32.3103 45.4162 32.7981 45.4931 33.2506 45.647C33.703 45.7978 34.1046 46.0133 34.4555 46.2933C34.8094 46.5734 35.1002 46.9058 35.328 47.2905C35.5557 47.6752 35.705 48.0999 35.7758 48.5646H34.0307Z" fill="white"/>
</svg>
