<svg width="59" height="63" viewBox="0 0 59 63" fill="none" xmlns="http://www.w3.org/2000/svg">
<path d="M57.5003 22.368V54.97C57.5003 58.5599 54.5901 61.47 51.0003 61.47H21.1599C17.5701 61.47 14.6599 58.5598 14.6599 54.97V8C14.6599 4.41015 17.5701 1.5 21.1599 1.5H38.2878V12.868C38.2878 18.1147 42.5411 22.368 47.7878 22.368H57.5003ZM55.5804 19.368H47.7878C44.1979 19.368 41.2878 16.4578 41.2878 12.868V3.84385L55.5804 19.368Z" fill="#EEF1F7" stroke="#CBD0DC" stroke-width="3"/>
<rect x="1" y="29.6163" width="34.6128" height="20.59" rx="4" fill="#CC0808"/>
<path d="M5.54838 36.1145H7.24725V42.7623C7.24417 43.3716 7.11491 43.8964 6.85946 44.3365C6.60402 44.7735 6.24701 45.1105 5.78844 45.3475C5.33295 45.5814 4.80205 45.6984 4.19576 45.6984C3.64178 45.6984 3.1432 45.5999 2.70002 45.4029C2.25991 45.2029 1.9106 44.9074 1.65208 44.5165C1.39355 44.1257 1.26429 43.6394 1.26429 43.0577H2.96777C2.97085 43.3132 3.02625 43.5332 3.13397 43.7179C3.24476 43.9025 3.39711 44.0441 3.591 44.1426C3.78489 44.2411 4.00802 44.2903 4.26039 44.2903C4.5343 44.2903 4.76666 44.2334 4.95748 44.1195C5.14829 44.0026 5.29294 43.8302 5.39142 43.6025C5.49299 43.3747 5.54531 43.0947 5.54838 42.7623V36.1145ZM9.10538 45.5691V36.1145H12.6508C13.3772 36.1145 13.9865 36.25 14.479 36.5208C14.9745 36.7916 15.3484 37.164 15.6008 37.638C15.8562 38.1089 15.9839 38.6444 15.9839 39.2445C15.9839 39.8508 15.8562 40.3894 15.6008 40.8603C15.3453 41.3312 14.9683 41.702 14.4697 41.9729C13.9711 42.2406 13.3572 42.3745 12.6278 42.3745H10.278V40.9665H12.3969C12.8216 40.9665 13.1694 40.8926 13.4403 40.7449C13.7111 40.5971 13.9111 40.394 14.0404 40.1355C14.1727 39.877 14.2389 39.58 14.2389 39.2445C14.2389 38.9091 14.1727 38.6136 14.0404 38.3582C13.9111 38.1027 13.7095 37.9042 13.4356 37.7626C13.1648 37.618 12.8155 37.5457 12.3877 37.5457H10.8181V45.5691H9.10538ZM17.4716 45.5691V36.1145H23.6207V37.5503H19.1843V40.117H23.3022V41.5528H19.1843V44.1334H23.6577V45.5691H17.4716ZM31.7019 39.1337C31.6249 38.8844 31.5188 38.6613 31.3833 38.4643C31.251 38.2643 31.091 38.0935 30.9032 37.9519C30.7186 37.8103 30.5062 37.7042 30.2662 37.6334C30.0261 37.5595 29.7645 37.5226 29.4814 37.5226C28.9735 37.5226 28.5211 37.6503 28.1241 37.9057C27.7271 38.1612 27.4147 38.5367 27.187 39.0322C26.9623 39.5246 26.85 40.1247 26.85 40.8326C26.85 41.5466 26.9623 42.1514 27.187 42.6469C27.4116 43.1424 27.724 43.5194 28.1241 43.7779C28.5242 44.0333 28.9889 44.1611 29.5183 44.1611C29.9984 44.1611 30.4139 44.0687 30.7647 43.8841C31.1187 43.6994 31.391 43.4378 31.5819 43.0993C31.7727 42.7577 31.8681 42.3576 31.8681 41.899L32.2559 41.959H29.6891V40.6202H33.5254V41.7559C33.5254 42.5653 33.353 43.2655 33.0083 43.8564C32.6636 44.4473 32.1897 44.9028 31.5865 45.2229C30.9833 45.5399 30.2908 45.6984 29.5091 45.6984C28.6381 45.6984 27.8733 45.5029 27.2147 45.1121C26.5591 44.7181 26.0467 44.1595 25.6774 43.4363C25.3111 42.71 25.128 41.8482 25.128 40.8511C25.128 40.0878 25.2357 39.4061 25.4512 38.806C25.6697 38.2058 25.9744 37.6965 26.3652 37.2779C26.7561 36.8563 27.2147 36.5362 27.7409 36.3177C28.2672 36.0961 28.8397 35.9853 29.4583 35.9853C29.9815 35.9853 30.4693 36.0622 30.9217 36.2161C31.3741 36.3669 31.7757 36.5823 32.1266 36.8624C32.4805 37.1425 32.7714 37.4749 32.9991 37.8596C33.2269 38.2443 33.3761 38.669 33.4469 39.1337H31.7019Z" fill="white"/>
</svg>
