<svg width="58" height="63" viewBox="0 0 58 63" fill="none" xmlns="http://www.w3.org/2000/svg">
<path d="M56.5003 22.368V54.97C56.5003 58.5599 53.5901 61.47 50.0003 61.47H20.1599C16.5701 61.47 13.6599 58.5598 13.6599 54.97V8C13.6599 4.41015 16.5701 1.5 20.1599 1.5H37.2878V12.868C37.2878 18.1147 41.5411 22.368 46.7878 22.368H56.5003ZM54.5804 19.368H46.7878C43.1979 19.368 40.2878 16.4578 40.2878 12.868V3.84385L54.5804 19.368Z" fill="#EEF1F7" stroke="#CBD0DC" stroke-width="3"/>
<rect y="29.6163" width="34.6128" height="20.59" rx="4" fill="#CC0808"/>
<path d="M4.13992 45.5691V36.1145H7.68537C8.4117 36.1145 9.02107 36.25 9.5135 36.5208C10.009 36.7916 10.3829 37.164 10.6353 37.638C10.8907 38.1089 11.0185 38.6444 11.0185 39.2445C11.0185 39.8508 10.8907 40.3894 10.6353 40.8603C10.3799 41.3312 10.0028 41.702 9.50426 41.9729C9.00569 42.2406 8.39169 42.3745 7.66229 42.3745H5.3125V40.9665H7.43147C7.85618 40.9665 8.20396 40.8926 8.47479 40.7449C8.74562 40.5971 8.94567 40.394 9.07493 40.1355C9.20727 39.877 9.27344 39.58 9.27344 39.2445C9.27344 38.9091 9.20727 38.6136 9.07493 38.3582C8.94567 38.1027 8.74409 37.9042 8.47017 37.7626C8.19934 37.618 7.85003 37.5457 7.42223 37.5457H5.85263V45.5691H4.13992ZM20.2757 36.1145V45.5691H18.7522L14.2973 39.1291H14.2188V45.5691H12.5061V36.1145H14.0388L18.4891 42.5591H18.5722V36.1145H20.2757ZM28.4757 39.1337C28.3987 38.8844 28.2926 38.6613 28.1571 38.4643C28.0248 38.2643 27.8648 38.0935 27.677 37.9519C27.4924 37.8103 27.28 37.7042 27.04 37.6334C26.7999 37.5595 26.5383 37.5226 26.2552 37.5226C25.7473 37.5226 25.2949 37.6503 24.8979 37.9057C24.5009 38.1612 24.1885 38.5367 23.9608 39.0322C23.7361 39.5246 23.6238 40.1247 23.6238 40.8326C23.6238 41.5466 23.7361 42.1514 23.9608 42.6469C24.1854 43.1424 24.4978 43.5194 24.8979 43.7779C25.298 44.0333 25.7627 44.1611 26.2921 44.1611C26.7722 44.1611 27.1877 44.0687 27.5385 43.8841C27.8925 43.6994 28.1648 43.4378 28.3557 43.0993C28.5465 42.7577 28.6419 42.3576 28.6419 41.899L29.0297 41.959H26.4629V40.6202H30.2992V41.7559C30.2992 42.5653 30.1268 43.2655 29.7821 43.8564C29.4374 44.4473 28.9635 44.9028 28.3603 45.2229C27.757 45.5399 27.0646 45.6984 26.2829 45.6984C25.4119 45.6984 24.6471 45.5029 23.9885 45.1121C23.3329 44.7181 22.8205 44.1595 22.4512 43.4363C22.0849 42.71 21.9018 41.8482 21.9018 40.8511C21.9018 40.0878 22.0095 39.4061 22.225 38.806C22.4435 38.2058 22.7482 37.6965 23.139 37.2779C23.5299 36.8563 23.9885 36.5362 24.5147 36.3177C25.041 36.0961 25.6135 35.9853 26.2321 35.9853C26.7553 35.9853 27.2431 36.0622 27.6955 36.2161C28.1479 36.3669 28.5495 36.5823 28.9004 36.8624C29.2543 37.1425 29.5452 37.4749 29.7729 37.8596C30.0007 38.2443 30.1499 38.669 30.2207 39.1337H28.4757Z" fill="white"/>
</svg>
