<svg width="58" height="63" viewBox="0 0 58 63" fill="none" xmlns="http://www.w3.org/2000/svg">
<path d="M56.5003 22.368V54.97C56.5003 58.5599 53.5901 61.47 50.0003 61.47H20.1599C16.5701 61.47 13.6599 58.5598 13.6599 54.97V8C13.6599 4.41015 16.5701 1.5 20.1599 1.5H37.2878V12.868C37.2878 18.1147 41.5411 22.368 46.7878 22.368H56.5003ZM54.5804 19.368H46.7878C43.1979 19.368 40.2878 16.4578 40.2878 12.868V3.84385L54.5804 19.368Z" fill="#EEF1F7" stroke="#CBD0DC" stroke-width="3"/>
<rect y="29.6163" width="34.6128" height="20.59" rx="4" fill="#CC0808"/>
<path d="M9.04435 36.1145H10.7432V42.7623C10.7401 43.3716 10.6109 43.8964 10.3554 44.3365C10.1 44.7735 9.74298 45.1105 9.28441 45.3475C8.82891 45.5814 8.29802 45.6984 7.69172 45.6984C7.13774 45.6984 6.63916 45.5999 6.19598 45.4029C5.75588 45.2029 5.40656 44.9074 5.14804 44.5165C4.88952 44.1257 4.76026 43.6394 4.76026 43.0577H6.46374C6.46682 43.3132 6.52221 43.5332 6.62993 43.7179C6.74073 43.9025 6.89307 44.0441 7.08696 44.1426C7.28085 44.2411 7.50398 44.2903 7.75635 44.2903C8.03026 44.2903 8.26262 44.2334 8.45344 44.1195C8.64425 44.0026 8.7889 43.8302 8.88739 43.6025C8.98895 43.3747 9.04127 43.0947 9.04435 42.7623V36.1145ZM12.6013 45.5691V36.1145H16.1468C16.8731 36.1145 17.4825 36.25 17.9749 36.5208C18.4704 36.7916 18.8444 37.164 19.0967 37.638C19.3522 38.1089 19.4799 38.6444 19.4799 39.2445C19.4799 39.8508 19.3522 40.3894 19.0967 40.8603C18.8413 41.3312 18.4643 41.702 17.9657 41.9729C17.4671 42.2406 16.8531 42.3745 16.1237 42.3745H13.7739V40.9665H15.8929C16.3176 40.9665 16.6654 40.8926 16.9362 40.7449C17.207 40.5971 17.4071 40.394 17.5364 40.1355C17.6687 39.877 17.7349 39.58 17.7349 39.2445C17.7349 38.9091 17.6687 38.6136 17.5364 38.3582C17.4071 38.1027 17.2055 37.9042 16.9316 37.7626C16.6608 37.618 16.3115 37.5457 15.8837 37.5457H14.3141V45.5691H12.6013ZM27.3014 39.1337C27.2244 38.8844 27.1182 38.6613 26.9828 38.4643C26.8505 38.2643 26.6904 38.0935 26.5027 37.9519C26.3181 37.8103 26.1057 37.7042 25.8656 37.6334C25.6256 37.5595 25.364 37.5226 25.0808 37.5226C24.573 37.5226 24.1206 37.6503 23.7236 37.9057C23.3266 38.1612 23.0142 38.5367 22.7864 39.0322C22.5618 39.5246 22.4494 40.1247 22.4494 40.8326C22.4494 41.5466 22.5618 42.1514 22.7864 42.6469C23.0111 43.1424 23.3235 43.5194 23.7236 43.7779C24.1237 44.0333 24.5884 44.1611 25.1178 44.1611C25.5979 44.1611 26.0134 44.0687 26.3642 43.8841C26.7181 43.6994 26.9905 43.4378 27.1813 43.0993C27.3721 42.7577 27.4676 42.3576 27.4676 41.899L27.8553 41.959H25.2886V40.6202H29.1249V41.7559C29.1249 42.5653 28.9525 43.2655 28.6078 43.8564C28.2631 44.4473 27.7892 44.9028 27.186 45.2229C26.5827 45.5399 25.8903 45.6984 25.1085 45.6984C24.2376 45.6984 23.4728 45.5029 22.8141 45.1121C22.1586 44.7181 21.6462 44.1595 21.2769 43.4363C20.9106 42.71 20.7275 41.8482 20.7275 40.8511C20.7275 40.0878 20.8352 39.4061 21.0507 38.806C21.2692 38.2058 21.5739 37.6965 21.9647 37.2779C22.3556 36.8563 22.8141 36.5362 23.3404 36.3177C23.8667 36.0961 24.4391 35.9853 25.0578 35.9853C25.581 35.9853 26.0688 36.0622 26.5212 36.2161C26.9736 36.3669 27.3752 36.5823 27.7261 36.8624C28.08 37.1425 28.3708 37.4749 28.5986 37.8596C28.8263 38.2443 28.9756 38.669 29.0464 39.1337H27.3014Z" fill="white"/>
</svg>
