<svg xmlns="http://www.w3.org/2000/svg" enable-background="new 0 0 3000 3000" viewBox="0 0 3000 3000"><path fill="#fbe9ff" d="M2822.786,1678.526c-71.549-127.757-187.161-227.413-124.164-380.617    c72.871-191.724,153.493-542.461-110.333-765.281c-276.006-220.65-615.776-150.411-928.387,91.156    c-90.155,74.638-229.651,74.635-319.805,0c-312.408-241.447-652.353-311.878-928.387-91.156    c-263.827,222.82-183.205,573.557-110.334,765.281c60.97,168.907-49.807,242.368-124.163,380.617    c-302.518,560.991,338.881,1160.139,884.833,825.112c250.48-159.601,625.504-159.889,875.906,0    C2483.905,2838.665,3125.304,2239.517,2822.786,1678.526z" style="&#10;    fill: #ffae3000;&#10;"/><path fill="#c3f4e1" d="M1561.236,1498.202c-60.627-217.729-251.586-391.451-328.521-454.385     c-19.411-15.879-39.855-30.474-61.29-43.493c-339.687-206.314-394.863,26.362-304.442,166.245     c92.91,143.732,118.535,630.361,118.535,630.361c34.309,424.485,423.495,306.632,423.495,306.632l370.643-305.222     L1561.236,1498.202z"/><path fill="#fff" d="M1395.746,2083.698c-25.555-115.621-53.774-226.075-84.272-329.96    c28.528-21.498,51.312-54.431,66.199-95.881c12.104-33.699,14.805-60.991,14.914-62.137c0.523-5.495-3.505-10.371-9-10.898    c-5.494-0.527-10.377,3.5-10.91,8.994c-0.093,0.96-9.436,90.42-67.338,139.235c-12.097-40.452-24.538-79.886-37.306-118.197    c-25.487-76.469-52.303-148.642-80.1-215.657c24.437-27.12,40.506-64.833,46.6-109.571c4.833-35.48,1.8-62.737,1.669-63.88    c-0.63-5.483-5.589-9.415-11.068-8.789c-5.484,0.626-9.423,5.582-8.802,11.066c0.109,0.96,9.618,90.671-37.092,150.458    c-10.827-25.496-21.794-50.214-32.884-74.088c-73.031-157.213-125.404-222.879-127.598-225.598    c-3.467-4.296-9.758-4.967-14.056-1.503c-4.298,3.464-4.974,9.759-1.512,14.059c0.526,0.654,53.463,67.179,125.568,222.633    c29.179,62.908,64.2,146.433,101.404,252.396c-11.034-0.074-28.264-1.288-48.028-6.636    c-45.174-12.226-81.589-39.181-108.233-80.118c-3.014-4.629-9.208-5.938-13.836-2.926c-4.628,3.013-5.939,9.208-2.926,13.836    c36.857,56.627,85.95,79.517,120.643,88.748c25.861,6.575,42.347,7.35,59.308,7.022    c45.678,132.601,94.264,298.723,139.128,501.709c1.031,4.666,5.166,7.844,9.754,7.844c0.715,0,1.441-0.077,2.168-0.237    C1393.533,2094.429,1396.938,2089.091,1395.746,2083.698z"/><path fill="#ffdc72" d="M812.755,1779.344H232.814c-33.137,0-60,26.863-60,60v129.979c0,33.137,26.863,60,60,60h579.941      c33.137,0,60-26.863,60-60v-129.979C872.755,1806.207,845.892,1779.344,812.755,1779.344z"/><path fill="#ffeaaa" d="M777.763,1979.998c-5.523,0-10-4.478-10-10v-131.329c0-5.522,4.477-10,10-10s10,4.478,10,10        v131.329C787.763,1975.521,783.286,1979.998,777.763,1979.998z"/><path fill="#ffeaaa" d="M677.771,1979.998c-5.523,0-10-4.478-10-10v-131.329c0-5.522,4.477-10,10-10s10,4.478,10,10        v131.329C687.771,1975.521,683.294,1979.998,677.771,1979.998z"/><path fill="#ffeaaa" d="M577.78,1979.998c-5.523,0-10-4.478-10-10v-131.329c0-5.522,4.477-10,10-10s10,4.478,10,10        v131.329C587.78,1975.521,583.303,1979.998,577.78,1979.998z"/><path fill="#ffeaaa" d="M477.788,1979.998c-5.523,0-10-4.478-10-10v-131.329c0-5.522,4.477-10,10-10s10,4.478,10,10        v131.329C487.788,1975.521,483.311,1979.998,477.788,1979.998z"/><path fill="#ffeaaa" d="M367.797,1979.998c-5.523,0-10-4.478-10-10v-131.329c0-5.522,4.477-10,10-10s10,4.478,10,10        v131.329C377.797,1975.521,373.32,1979.998,367.797,1979.998z"/><path fill="#ffeaaa" d="M267.806,1979.998c-5.523,0-10-4.478-10-10v-131.329c0-5.522,4.477-10,10-10s10,4.478,10,10        v131.329C277.806,1975.521,273.329,1979.998,267.806,1979.998z"/><path fill="#ffc872" d="M812.755,1528.708H232.814c-33.137,0-60,26.863-60,60v129.979c0,33.137,26.863,60,60,60h579.941      c33.137,0,60-26.863,60-60v-129.979C872.755,1555.571,845.892,1528.708,812.755,1528.708z"/><path fill="#ffeaaa" d="M777.763,1729.362c-5.523,0-10-4.478-10-10v-131.329c0-5.522,4.477-10,10-10s10,4.478,10,10        v131.329C787.763,1724.885,783.286,1729.362,777.763,1729.362z"/><path fill="#ffeaaa" d="M677.771,1729.362c-5.523,0-10-4.478-10-10v-131.329c0-5.522,4.477-10,10-10s10,4.478,10,10        v131.329C687.771,1724.885,683.294,1729.362,677.771,1729.362z"/><path fill="#ffeaaa" d="M577.78,1729.362c-5.523,0-10-4.478-10-10v-131.329c0-5.522,4.477-10,10-10s10,4.478,10,10        v131.329C587.78,1724.885,583.303,1729.362,577.78,1729.362z"/><path fill="#ffeaaa" d="M477.788,1729.362c-5.523,0-10-4.478-10-10v-131.329c0-5.522,4.477-10,10-10s10,4.478,10,10        v131.329C487.788,1724.885,483.311,1729.362,477.788,1729.362z"/><path fill="#ffeaaa" d="M367.797,1729.362c-5.523,0-10-4.478-10-10v-131.329c0-5.522,4.477-10,10-10s10,4.478,10,10        v131.329C377.797,1724.885,373.32,1729.362,367.797,1729.362z"/><path fill="#ffeaaa" d="M267.806,1729.362c-5.523,0-10-4.478-10-10v-131.329c0-5.522,4.477-10,10-10s10,4.478,10,10        v131.329C277.806,1724.885,273.329,1729.362,267.806,1729.362z"/><g><path fill="#ffdc72" d="M812.755,1279.26H232.814c-33.137,0-60,26.863-60,60v129.979c0,33.137,26.863,60,60,60h579.941      c33.137,0,60-26.863,60-60V1339.26C872.755,1306.123,845.892,1279.26,812.755,1279.26z"/><path fill="#ffeaaa" d="M777.763,1479.914c-5.523,0-10-4.477-10-10v-131.33c0-5.523,4.477-10,10-10s10,4.477,10,10        v131.33C787.763,1475.437,783.286,1479.914,777.763,1479.914z"/><path fill="#ffeaaa" d="M677.771,1479.914c-5.523,0-10-4.477-10-10v-131.33c0-5.523,4.477-10,10-10s10,4.477,10,10        v131.33C687.771,1475.437,683.294,1479.914,677.771,1479.914z"/><path fill="#ffeaaa" d="M577.78,1479.914c-5.523,0-10-4.477-10-10v-131.33c0-5.523,4.477-10,10-10s10,4.477,10,10        v131.33C587.78,1475.437,583.303,1479.914,577.78,1479.914z"/><path fill="#ffeaaa" d="M477.788,1479.914c-5.523,0-10-4.477-10-10v-131.33c0-5.523,4.477-10,10-10s10,4.477,10,10        v131.33C487.788,1475.437,483.311,1479.914,477.788,1479.914z"/><path fill="#ffeaaa" d="M367.797,1479.914c-5.523,0-10-4.477-10-10v-131.33c0-5.523,4.477-10,10-10s10,4.477,10,10        v131.33C377.797,1475.437,373.32,1479.914,367.797,1479.914z"/><path fill="#ffeaaa" d="M267.806,1479.914c-5.523,0-10-4.477-10-10v-131.33c0-5.523,4.477-10,10-10s10,4.477,10,10        v131.33C277.806,1475.437,273.329,1479.914,267.806,1479.914z"/></g><g><path fill="#ffc872" d="M812.755,1029.281H232.814c-33.137,0-60,26.863-60,60v129.979c0,33.137,26.863,60,60,60h579.941      c33.137,0,60-26.863,60-60v-129.979C872.755,1056.144,845.892,1029.281,812.755,1029.281z"/><path fill="#ffeaaa" d="M777.763,1229.935c-5.523,0-10-4.477-10-10v-131.329c0-5.523,4.477-10,10-10s10,4.477,10,10        v131.329C787.763,1225.458,783.286,1229.935,777.763,1229.935z"/><path fill="#ffeaaa" d="M677.771,1229.935c-5.523,0-10-4.477-10-10v-131.329c0-5.523,4.477-10,10-10s10,4.477,10,10        v131.329C687.771,1225.458,683.294,1229.935,677.771,1229.935z"/><path fill="#ffeaaa" d="M577.78,1229.935c-5.523,0-10-4.477-10-10v-131.329c0-5.523,4.477-10,10-10s10,4.477,10,10        v131.329C587.78,1225.458,583.303,1229.935,577.78,1229.935z"/><path fill="#ffeaaa" d="M477.788,1229.935c-5.523,0-10-4.477-10-10v-131.329c0-5.523,4.477-10,10-10s10,4.477,10,10        v131.329C487.788,1225.458,483.311,1229.935,477.788,1229.935z"/><path fill="#ffeaaa" d="M367.797,1229.935c-5.523,0-10-4.477-10-10v-131.329c0-5.523,4.477-10,10-10s10,4.477,10,10        v131.329C377.797,1225.458,373.32,1229.935,367.797,1229.935z"/><path fill="#ffeaaa" d="M267.806,1229.935c-5.523,0-10-4.477-10-10v-131.329c0-5.523,4.477-10,10-10s10,4.477,10,10        v131.329C277.806,1225.458,273.329,1229.935,267.806,1229.935z"/></g><g><path fill="#ffdc72" d="M812.755,2279.302H232.814c-33.137,0-60,26.863-60,60v129.979c0,33.137,26.863,60,60,60h579.941      c33.137,0,60-26.863,60-60v-129.979C872.755,2306.165,845.892,2279.302,812.755,2279.302z"/><path fill="#ffeaaa" d="M777.763,2479.956c-5.523,0-10-4.478-10-10v-131.329c0-5.522,4.477-10,10-10s10,4.478,10,10        v131.329C787.763,2475.479,783.286,2479.956,777.763,2479.956z"/><path fill="#ffeaaa" d="M677.771,2479.956c-5.523,0-10-4.478-10-10v-131.329c0-5.522,4.477-10,10-10s10,4.478,10,10        v131.329C687.771,2475.479,683.294,2479.956,677.771,2479.956z"/><path fill="#ffeaaa" d="M577.78,2479.956c-5.523,0-10-4.478-10-10v-131.329c0-5.522,4.477-10,10-10s10,4.478,10,10        v131.329C587.78,2475.479,583.303,2479.956,577.78,2479.956z"/><path fill="#ffeaaa" d="M477.788,2479.956c-5.523,0-10-4.478-10-10v-131.329c0-5.522,4.477-10,10-10s10,4.478,10,10        v131.329C487.788,2475.479,483.311,2479.956,477.788,2479.956z"/><path fill="#ffeaaa" d="M367.797,2479.956c-5.523,0-10-4.478-10-10v-131.329c0-5.522,4.477-10,10-10s10,4.478,10,10        v131.329C377.797,2475.479,373.32,2479.956,367.797,2479.956z"/><path fill="#ffeaaa" d="M267.806,2479.956c-5.523,0-10-4.478-10-10v-131.329c0-5.522,4.477-10,10-10s10,4.478,10,10        v131.329C277.806,2475.479,273.329,2479.956,267.806,2479.956z"/></g><g><path fill="#ffc872" d="M812.755,2029.323H232.814c-33.137,0-60,26.863-60,60v129.979c0,33.137,26.863,60,60,60h579.941      c33.137,0,60-26.863,60-60v-129.979C872.755,2056.186,845.892,2029.323,812.755,2029.323z"/><path fill="#ffeaaa" d="M777.763,2229.978c-5.523,0-10-4.478-10-10v-131.33c0-5.522,4.477-10,10-10s10,4.478,10,10        v131.33C787.763,2225.5,783.286,2229.978,777.763,2229.978z"/><path fill="#ffeaaa" d="M677.771,2229.978c-5.523,0-10-4.478-10-10v-131.33c0-5.522,4.477-10,10-10s10,4.478,10,10        v131.33C687.771,2225.5,683.294,2229.978,677.771,2229.978z"/><path fill="#ffeaaa" d="M577.78,2229.978c-5.523,0-10-4.478-10-10v-131.33c0-5.522,4.477-10,10-10s10,4.478,10,10        v131.33C587.78,2225.5,583.303,2229.978,577.78,2229.978z"/><path fill="#ffeaaa" d="M477.788,2229.978c-5.523,0-10-4.478-10-10v-131.33c0-5.522,4.477-10,10-10s10,4.478,10,10        v131.33C487.788,2225.5,483.311,2229.978,477.788,2229.978z"/><path fill="#ffeaaa" d="M367.797,2229.978c-5.523,0-10-4.478-10-10v-131.33c0-5.522,4.477-10,10-10s10,4.478,10,10        v131.33C377.797,2225.5,373.32,2229.978,367.797,2229.978z"/><path fill="#ffeaaa" d="M267.806,2229.978c-5.523,0-10-4.478-10-10v-131.33c0-5.522,4.477-10,10-10s10,4.478,10,10        v131.33C277.806,2225.5,273.329,2229.978,267.806,2229.978z"/></g><g><path fill="#ffdc72" d="M523.905,1029.281c-165.152,0-299.509-134.578-299.509-300s134.357-300,299.509-300     s299.509,134.578,299.509,300S689.057,1029.281,523.905,1029.281z"/><path fill="#ffb472" d="M523.905,967.829c-131.536,0-238.548-107.012-238.548-238.548s107.012-238.548,238.548-238.548      s238.548,107.012,238.548,238.548S655.441,967.829,523.905,967.829z"/><path fill="#ffc872" d="M523.905,939.765c-116.061,0-210.484-94.423-210.484-210.484s94.423-210.484,210.484-210.484      s210.484,94.423,210.484,210.484S639.966,939.765,523.905,939.765z"/><circle cx="664.273" cy="729.504" r="25.594" fill="#fff"/><circle cx="383.538" cy="729.281" r="25.594" fill="#fff"/><path fill="#fff" d="M614.522,769.686c-4.647-16.758-13.833-30.654-25.909-40.335     c18.096-14.479,28.464-37.16,28.493-61.006c0.378-34.147-22.776-67.049-55.974-74.429v-17.621c0-8.284-6.716-15-15-15     s-15,6.716-15,15v15.891h-41.318v-15.891c0-8.284-6.716-15-15-15s-15,6.716-15,15v15.891H445.72c-8.284,0-15,6.716-15,15     s6.716,15,15,15h8.695l0.003,214.422h-8.969c-8.284,0-15,6.716-15,15s6.716,15,15,15h14.365v15.662c0,8.284,6.716,15,15,15     s15-6.716,15-15v-15.662h41.315v15.583c0,8.284,6.716,15,15,15s15-6.716,15-15v-17.312     C600.127,857.01,626.756,809.023,614.522,769.686z M587.106,668.344c0.334,22.575-15.963,44.733-38.736,46.028     c-0.503-0.033-63.956-0.092-63.956-0.092v-92.096h61.717C569.755,622.031,587.549,645.027,587.106,668.344z M585.387,804.205     c-5.896,19.683-21.304,32.401-39.254,32.401h-61.714l0.016-92.32c0,0,63.028,0.163,63.857,0.127     c17.372,1.029,31.98,14.029,37.322,33.289C588.004,786.324,587.924,795.736,585.387,804.205z"/></g><g><path fill="#f7d4ff" d="M2740.129,349.688H1277.026l160,263.955v1649.182h1463.104V509.688     C2900.129,421.323,2828.495,349.688,2740.129,349.688z" style="&#10;    filter: #ff8700;&#10;    fill: #e5553c1e;&#10;"/><path fill="#f7c8ff" d="M1277.617,349.688L1277.617,349.688c-88.315,0-159.909,71.594-159.909,159.909v255.917h319.818     V509.597C1437.526,421.282,1365.932,349.688,1277.617,349.688z" style="&#10;    fill: #fff;&#10;"/><path fill="#fff" d="M2708.077,1095.796h-263.939c-7.18,0-13-5.82-13-13s5.82-13,13-13h263.939c7.18,0,13,5.82,13,13     S2715.257,1095.796,2708.077,1095.796z" style="&#10;    fill: #fff;&#10;"/><path fill="#fff" d="M2257.931,1095.796h-667.854c-7.18,0-13-5.82-13-13s5.82-13,13-13h667.854c7.18,0,13,5.82,13,13     S2265.11,1095.796,2257.931,1095.796z" style="&#10;    fill: #fff;&#10;"/><path fill="#fff" d="M2708.077,1395.796h-639c-7.18,0-13-5.82-13-13s5.82-13,13-13h639c7.18,0,13,5.82,13,13     S2715.257,1395.796,2708.077,1395.796z" style="&#10;    fill: #fff;&#10;"/><path fill="#fff" d="M1910.621,1395.796h-320.544c-7.18,0-13-5.82-13-13s5.82-13,13-13h320.544c7.18,0,13,5.82,13,13     S1917.801,1395.796,1910.621,1395.796z" style="&#10;    fill: #fff;&#10;"/><path fill="#fff" d="M2708.077,1715.797H2531.28c-7.18,0-13-5.82-13-13s5.82-13,13-13h176.797c7.18,0,13,5.82,13,13     S2715.257,1715.797,2708.077,1715.797z" style="&#10;    fill: #fff;&#10;"/><path fill="#fff" d="M2354.482,1715.797h-764.405c-7.18,0-13-5.82-13-13s5.82-13,13-13h764.405c7.18,0,13,5.82,13,13     S2361.662,1715.797,2354.482,1715.797z" style="&#10;    fill: #fff;&#10;"/><path fill="#fff" d="M2708.077,2015.797h-474.284c-7.18,0-13-5.82-13-13s5.82-13,13-13h474.284c7.18,0,13,5.82,13,13     S2715.257,2015.797,2708.077,2015.797z" style="&#10;    fill: #fff;&#10;"/><rect width="1143.104" height="273.262" x="1597.025" y="509.688" fill="#f7c8ff" style="&#10;    fill: #fff;&#10;"/></g><g><path fill="#d5d2f5" d="M99.871,2650.312h2075.154v-50.488c0-39.238-31.808-71.046-71.046-71.046H170.917     c-39.238,0-71.046,31.808-71.046,71.046V2650.312z"/><polygon fill="#bf7afc" points="558.232 1876.021 558.232 2528.778 1173.16 2528.778 1173.16 2143.51 1173.16 1876.021" style="&#10;    fill: #ff8700;&#10;"/><polyline fill="#ffccc0" points="750.17 1374.107 750.17 1798.362 975.931 1798.362 975.931 1443.43"/><path fill="#ffccc0" d="M2039.534,1907.579l49.401-31.777c14.467-9.306,19.035-28.521,10.342-43.498     c-9.511-16.384-30.5-21.534-46.021-11.393c-21.715,14.19-51.973,33.959-76.756,50.151l1.893-24.224     c1.508-19.301-13.578-35.846-32.743-35.91c-16.826-0.056-30.949,12.73-32.733,29.63l-5.581,52.898     c-7.025,6.391-13.176,13.973-18.002,22.784c-6.344,11.58-9.839,23.988-10.724,36.417l-511.443,255.856l94.488,177.889     l481.265-340.198c36.25,11.115,76.696-2.134,98.601-33.903C2064.274,1979.3,2061.512,1937.459,2039.534,1907.579z"/><path fill="#ffd7cc" d="M863.652,2532.98l102.382-0.972c9.085-0.086,18.14,1.106,26.921,3.544l105.809,29.383     c7.73,2.147,15.916,2.015,23.574-0.379v0c30.12-9.418,39.183-47.638,16.498-69.577l-58.306-56.388     c-8.225-7.954-19.363-12.168-30.793-11.649l-119.398,5.421"/><path fill="#bf7afc" d="M648.023,2055.489l-28.569,302.022l336.033,47.616v151.011l-364.604-27.209     c-194.544,9.523-182.3-138.767-182.3-138.767c-15.973-211.633,33.817-412.95,61.46-505.142     c14.792-49.333,46.766-91.926,90.535-119.07c80.894-50.169,190.614-81.866,190.614-81.866l0,0     c18.93,113.599,175.783,129.381,216.964,21.83l8.359-21.83c0,0,219.775,12.244,346.298,233.999l127.883,228.557l372.765-161.895     l66.661,103.395l-433.033,263.691c-40.483,24.652-92.479,19.72-127.353-12.38c-42.439-39.064-98.311-111.338-153.854-244.508" style="&#10;    fill: #ff8700;&#10;"/><path fill="#e1e1f4" d="M1475.635,2092.41l-136.006,437.161h-254.447c-19.619,0-35.523,15.904-35.523,35.523v17.081    h892.368c15.957,0,29.956-10.64,34.227-26.016l128.819-463.75H1475.635z"/><path fill="#9d54fc" d="M955.493,2410.128c-0.234,0-0.47-0.017-0.708-0.051l-336.033-47.616     c-2.645-0.374-4.528-2.762-4.276-5.421l28.569-302.021c0.26-2.749,2.707-4.772,5.449-4.507c2.75,0.26,4.767,2.699,4.507,5.448     l-28.12,297.27l331.308,46.947c2.734,0.387,4.636,2.918,4.249,5.651C960.083,2408.324,957.943,2410.128,955.493,2410.128z" style="&#10;    fill: white;&#10;"/><path fill="#ffd7cc" d="M1031.672,1329.004c0,0,66.662,302.022-76.186,314.266s-206.79-112.918-206.79-112.918     l-66.662-186.383l344.196-44.895L1031.672,1329.004z"/><path fill="#333" d="M797.673,1384.012l0,38.864c-49.34,0-72.619,60.968-35.801,93.814     c12.359,11.024,23.557,17.743,23.557,17.743l-35.372,57.139c-72.104-46.256-100.674-161.895-100.674-161.895     c-57.139-246.13,146.009-283.537,196.192-275.269c102.349,16.863,173.199,5.948,208.593-2.995     c17.271-4.364,35.239,4.558,41.775,21.13c9.533,24.171,17.309,61.664,2.743,106.391c-12.25,37.615-36.039,59.664-79.465,64.737     c-12.137,1.418-24.412,1.148-36.541-0.343l-19.746-2.428c-46.285-5.69-93.224-2.751-138.438,8.67h0     C808.724,1353.555,797.673,1367.744,797.673,1384.012z"/></g></svg>