<svg xmlns="http://www.w3.org/2000/svg" viewBox="0 0 500 500"><g id="freepik--background-simple--inject-64"><path d="M37.05,239.07c5,42.21,24.26,91.29,62.75,113.83C158,387,153.09,439.38,266.6,462.16a233.31,233.31,0,0,0,50.33,4.75,194.43,194.43,0,0,0,24.7-2c72.15-10.54,120.7-60.69,138.51-121.23,23.44-79.61-23.36-131.73-54.38-163.13S372,51.29,260.59,28a226.34,226.34,0,0,0-51.72-4.91c-39.65,1-82.88,14-112.8,41.16q-3.37,3.06-6.56,6.34C47.92,113.28,30.25,181.53,37.05,239.07Z" style="fill:#FC6423"></path><path d="M37.05,239.07c5,42.21,24.26,91.29,62.75,113.83C158,387,153.09,439.38,266.6,462.16a233.31,233.31,0,0,0,50.33,4.75,194.43,194.43,0,0,0,24.7-2c72.15-10.54,120.7-60.69,138.51-121.23,23.44-79.61-23.36-131.73-54.38-163.13S372,51.29,260.59,28a226.34,226.34,0,0,0-51.72-4.91c-39.65,1-82.88,14-112.8,41.16q-3.37,3.06-6.56,6.34C47.92,113.28,30.25,181.53,37.05,239.07Z" style="fill:#fff;opacity:0.7000000000000001"></path></g><g id="freepik--Graphics--inject-64"><line x1="52.62" y1="242.94" x2="52.62" y2="257.45" style="fill:none;stroke:#263238;stroke-miterlimit:10"></line><line x1="59.87" y1="250.19" x2="45.36" y2="250.19" style="fill:none;stroke:#263238;stroke-miterlimit:10"></line><line x1="382.65" y1="372.48" x2="382.65" y2="381.43" style="fill:none;stroke:#263238;stroke-miterlimit:10"></line><line x1="387.12" y1="376.95" x2="378.18" y2="376.95" style="fill:none;stroke:#263238;stroke-miterlimit:10"></line><line x1="429.92" y1="69.65" x2="429.92" y2="78.6" style="fill:none;stroke:#263238;stroke-miterlimit:10"></line><line x1="434.4" y1="74.13" x2="425.45" y2="74.13" style="fill:none;stroke:#263238;stroke-miterlimit:10"></line><line x1="309.64" y1="434.92" x2="309.64" y2="443.87" style="fill:none;stroke:#263238;stroke-miterlimit:10"></line><line x1="314.12" y1="439.4" x2="305.17" y2="439.4" style="fill:none;stroke:#263238;stroke-miterlimit:10"></line><line x1="424.24" y1="414.98" x2="424.24" y2="436.69" style="fill:none;stroke:#263238;stroke-miterlimit:10"></line><line x1="435.1" y1="425.83" x2="413.39" y2="425.83" style="fill:none;stroke:#263238;stroke-miterlimit:10"></line><line x1="92.36" y1="102.55" x2="92.36" y2="124.27" style="fill:none;stroke:#263238;stroke-miterlimit:10"></line><line x1="103.22" y1="113.41" x2="81.5" y2="113.41" style="fill:none;stroke:#263238;stroke-miterlimit:10"></line><path d="M57.5,174.35a3.92,3.92,0,1,1-3.92-3.92A3.92,3.92,0,0,1,57.5,174.35Z" style="fill:none;stroke:#263238;stroke-miterlimit:10"></path><path d="M444.39,402a2.71,2.71,0,1,1-2.71-2.71A2.71,2.71,0,0,1,444.39,402Z" style="fill:none;stroke:#263238;stroke-miterlimit:10"></path><path d="M345.64,420.66a2.72,2.72,0,1,1-2.72-2.71A2.71,2.71,0,0,1,345.64,420.66Z" style="fill:none;stroke:#263238;stroke-miterlimit:10"></path><circle cx="60.07" cy="190.28" r="8.68" transform="translate(-138.19 167.74) rotate(-65.99)" style="fill:none;stroke:#263238;stroke-miterlimit:10"></circle><circle cx="456.95" cy="258.17" r="8.68" style="fill:none;stroke:#263238;stroke-miterlimit:10"></circle><circle cx="179.56" cy="80.86" r="8.68" transform="translate(59.75 237.15) rotate(-76.77)" style="fill:none;stroke:#263238;stroke-miterlimit:10"></circle></g><g id="freepik--Padlock--inject-64"><path d="M170.66,128.49c-53.69,0-97.37,42.77-97.37,95.33v53.47H101V223.82c0-37.58,31.23-68.16,69.62-68.16s69.61,30.58,69.61,68.16v53.47H268V223.82C268,171.26,224.34,128.49,170.66,128.49Z" style="fill:none;stroke:#263238;stroke-miterlimit:10"></path><path d="M275.58,422.81V277.29h-136m-9.22,0H63V453.15h212.6V433.34m-96.35-63.08,3.89,39.95H153.36l3.89-39.95a22.57,22.57,0,0,1-12.16-19.94,23.15,23.15,0,0,1,46.29,0A22.58,22.58,0,0,1,179.23,370.26Z" style="fill:none;stroke:#263238;stroke-miterlimit:10"></path><path d="M179.23,370.26l3.89,39.95H153.36l3.89-39.95a22.57,22.57,0,0,1-12.16-19.94,23.15,23.15,0,0,1,46.29,0A22.58,22.58,0,0,1,179.23,370.26Z" style="fill:none;stroke:#263238;stroke-miterlimit:10"></path><path d="M179.23,370.26l3.89,39.95H153.36l3.89-39.95a22.57,22.57,0,0,1-12.16-19.94,23.15,23.15,0,0,1,46.29,0A22.58,22.58,0,0,1,179.23,370.26Z" style="fill:none;stroke:#263238;stroke-miterlimit:10"></path></g><g id="freepik--plant-2--inject-64"><path d="M403.19,34.84c-4.25-.8-9.8,4.66-11.65,8.06-.16.29-2.13,5.16-2.05,5.17s7.58.56,10.75-.63c2.7-1,5.85-3.06,6.72-6A5.12,5.12,0,0,0,403.19,34.84Z" style="fill:#263238"></path><path d="M334.13,106.28c.28,2.44.6,4.86,1,7.23.21,1,.35,2.06.61,3s.47,1.94.71,2.9c.55,2,1.05,3.79,1.61,5.61.28.91.56,1.78.84,2.67-.69-1.41-1.82-3.63-1.95-3.82-2.12-3.22-8.13-8.2-12.29-7a5.11,5.11,0,0,0-3.19,6.91c1.11,2.84,4.43,4.61,7.2,5.39,3.07.86,9.78-.14,10.6-.27.48,1.48.95,2.93,1.43,4.33h2.68c-.54-1.46-1.08-3-1.62-4.52.75-.32,6.56-2.83,8.9-5.1a53.07,53.07,0,0,0,5.76,3.08c-.62,2.2-1.2,4.35-1.71,6.36a1.16,1.16,0,0,0,0,.18h2.63c.39-1.71.83-3.49,1.3-5.33.83.16,7.5,1.35,10.58.59,2.8-.7,6.17-2.37,7.37-5.18a5.11,5.11,0,0,0-3-7c-4.13-1.29-10.28,3.5-12.51,6.66-.14.2-1.55,2.78-2.24,4.11.31-1.2.61-2.39,1-3.63.48-1.79,1-3.67,1.58-5.49.32-.93.63-1.87,1-2.83s.71-1.85,1.06-2.8c.55-1.37,1.19-2.76,1.82-4.14,1.79.6,7.09,2.27,9.87,2s6.45-1.4,8.06-4a5.12,5.12,0,0,0-1.88-7.38c-3.89-1.89-10.7,1.92-13.37,4.7-.09.09-.59.74-1.18,1.51.65-1.33,1.31-2.67,2-4,2-3.77,4.19-7.55,6.36-11.35.45-.79.88-1.59,1.33-2.38,1.51.51,7.23,2.37,10.14,2.1s6.46-1.4,8.07-4A5.11,5.11,0,0,0,392.77,78c-3.88-1.9-10.69,1.91-13.37,4.69-.09.1-.69.87-1.36,1.75,1.15-2.08,2.27-4.17,3.31-6.28A89.36,89.36,0,0,0,386,67.06c.53.18,7.19,2.5,10.43,2.2,2.87-.27,6.46-1.41,8.07-4a5.12,5.12,0,0,0-1.89-7.38c-3.88-1.89-10.69,1.91-13.36,4.7-.19.19-2.35,3-3.08,4a.69.69,0,0,1,.05-.13,67,67,0,0,0,2.57-11.58,90.72,90.72,0,0,0,.81-10.58c.09-3.28,0-6.29-.15-8.95-.08-1.44-.17-2.75-.28-4l.07.06c.07,0,1.78-4.92,1.85-5.25.83-3.77.23-11.54-3.5-13.73A5.13,5.13,0,0,0,380.44,15c-1.26,2.77-.22,6.39,1.15,8.92s6.21,6.39,7.41,7.31c.09,1.28.16,2.64.21,4.16.07,2.65.12,5.65,0,8.92,0,.87-.12,1.8-.18,2.71-.21-1.55-.54-3.67-.59-3.88-1-3.73-5.12-10.35-9.44-10.56a5.11,5.11,0,0,0-5.21,5.54c.15,3,2.74,5.78,5.13,7.4s8.65,2.84,10,3.08c-.16,2-.38,4.06-.74,6.19a66.34,66.34,0,0,1-2.78,11.38c-.08.22-.18.43-.26.64,0-.78-.13-5.1-.18-5.4-.58-3.81-4-10.85-8.21-11.54a5.12,5.12,0,0,0-5.8,4.94c-.18,3,2.09,6,4.29,7.92,2.53,2.16,9.58,4.15,9.84,4.23a89.45,89.45,0,0,1-4.78,10.66c-1.34,2.56-2.8,5.1-4.29,7.63,0-1-.14-5-.18-5.32-.58-3.82-3.95-10.85-8.22-11.54a5.12,5.12,0,0,0-5.79,4.94c-.18,3,2.09,6,4.28,7.92,2.47,2.1,9.22,4,9.79,4.21-.68,1.15-1.35,2.3-2,3.44-2.25,3.75-4.51,7.49-6.63,11.26-.74,1.3-1.41,2.61-2.1,3.92,0-1.53-.14-4.31-.17-4.55-.58-3.82-4-10.85-8.22-11.54a5.12,5.12,0,0,0-5.79,4.94c-.18,3,2.09,6,4.28,7.91s7.84,3.64,9.44,4.11c-1.12,2.19-2.18,4.39-3.13,6.6-.38,1-.84,1.92-1.16,2.87s-.68,1.88-1,2.81c-.62,1.94-1.21,3.74-1.75,5.57-.27.92-.51,1.79-.77,2.69.2-1.56.48-4,.48-4.26,0-3.86-2.26-11.32-6.37-12.65a5.12,5.12,0,0,0-6.48,4,6,6,0,0,0-.13,1.12,19.87,19.87,0,0,0-3.16,9.52c0,.24.23,3.17.39,4.67-.4-1.18-.81-2.34-1.2-3.56-.59-1.76-1.15-3.64-1.71-5.46-.25-1-.51-1.91-.76-2.88s-.43-1.94-.66-2.93c-.3-1.44-.53-3-.77-4.46,1.83-.48,7.16-2,9.34-3.76s4.61-4.73,4.52-7.78A5.12,5.12,0,0,0,344.65,92c-4.29.56-7.86,7.49-8.56,11.29,0,.13-.09.94-.15,1.91-.19-1.47-.38-2.94-.52-4.45-.4-4.26-.67-8.61-1-13-.06-.91-.14-1.82-.2-2.72,1.54-.41,7.33-2,9.62-3.84s4.61-4.74,4.52-7.79a5.12,5.12,0,0,0-5.65-5.11c-4.28.56-7.86,7.49-8.56,11.29,0,.13-.09,1.11-.17,2.2-.19-2.36-.41-4.72-.7-7a91.74,91.74,0,0,0-2.23-11.88c.55-.14,7.38-1.88,9.91-3.92,2.25-1.8,4.61-4.73,4.53-7.78A5.12,5.12,0,0,0,339.88,46c-4.28.56-7.86,7.49-8.56,11.29-.05.27-.29,3.8-.33,5.07l0-.14a66,66,0,0,0-4.25-11.08,89.11,89.11,0,0,0-5.16-9.26c-1.73-2.79-3.48-5.24-5.06-7.39-.86-1.16-1.66-2.2-2.43-3.17h.09c.08,0-1.23-5.08-1.35-5.39-1.38-3.61-6.18-9.76-10.49-9.52a5.11,5.11,0,0,0-4.6,6.07c.47,3,3.33,5.45,5.87,6.81s8.71,1.9,10.22,2c.78,1,1.59,2.11,2.47,3.35,1.52,2.18,3.22,4.65,4.88,7.46.45.75.89,1.58,1.34,2.37-1-1.18-2.47-2.77-2.63-2.91-2.89-2.56-10-5.81-13.7-3.61a5.13,5.13,0,0,0-1.29,7.51c1.81,2.45,5.48,3.3,8.36,3.34s8.79-2.41,10-3c1,1.77,1.92,3.61,2.8,5.58a65.73,65.73,0,0,1,3.95,11c.05.21.08.45.14.67-.41-.67-2.93-4.18-3.13-4.4-2.59-2.87-9.28-6.88-13.22-5.1a5.12,5.12,0,0,0-2.1,7.32c1.52,2.64,5.07,3.89,7.94,4.24,3.29.4,10.28-1.82,10.54-1.91a90.19,90.19,0,0,1,1.89,11.54c.3,2.87.48,5.79.64,8.72-.56-.85-2.9-4.11-3.09-4.33-2.59-2.86-9.28-6.87-13.22-5.09a5.12,5.12,0,0,0-2.11,7.32c1.53,2.64,5.08,3.88,7.94,4.23,3.22.4,9.92-1.7,10.49-1.88.07,1.33.14,2.66.2,4,.2,4.36.38,8.74.68,13,.11,1.5.27,3,.42,4.43-.87-1.26-2.5-3.52-2.66-3.7-2.59-2.86-9.28-6.87-13.22-5.09a5.11,5.11,0,0,0-2.1,7.32c1.53,2.64,5.07,3.88,7.94,4.23S332.54,106.76,334.13,106.28Z" style="fill:#263238"></path><path d="M323.49,45.1s6.63-3.71,8.62-6.45c1.69-2.34,3.2-5.78,2.3-8.7a5.11,5.11,0,0,0-6.79-3.44c-4,1.67-5.6,9.3-5.27,13.15C322.38,40,323.42,45.14,323.49,45.1Z" style="fill:#263238"></path></g><g id="freepik--plant-1--inject-64"><path d="M139.8,350.62c-4.43-.83-10.22,4.86-12.14,8.4-.17.3-2.22,5.38-2.14,5.39s7.9.59,11.2-.65c2.81-1.06,6.1-3.19,7-6.24A5.34,5.34,0,0,0,139.8,350.62Z" style="fill:#263238"></path><path d="M67.83,425.07c.29,2.54.63,5.06,1.08,7.53.22,1.06.37,2.15.64,3.16s.49,2,.73,3c.58,2.05,1.1,4,1.69,5.85.29.95.58,1.85.87,2.78-.72-1.47-1.9-3.78-2-4-2.21-3.35-8.47-8.54-12.81-7.33a5.33,5.33,0,0,0-3.32,7.21c1.16,3,4.61,4.8,7.51,5.62,3.19.89,10.18-.15,11-.28.5,1.54,1,3.05,1.48,4.5h2.8q-.84-2.26-1.69-4.71c.79-.33,6.84-2.94,9.27-5.31a57.09,57.09,0,0,0,6,3.21c-.65,2.29-1.25,4.53-1.78,6.63,0,.06,0,.12,0,.18H92c.41-1.78.86-3.64,1.35-5.55.87.16,7.82,1.41,11,.61,2.91-.73,6.43-2.46,7.67-5.39a5.33,5.33,0,0,0-3.1-7.3c-4.3-1.34-10.71,3.65-13,6.94-.15.22-1.62,2.9-2.34,4.29.32-1.25.64-2.49,1-3.78.5-1.87,1.09-3.83,1.65-5.72l1-2.95c.32-1,.74-1.94,1.11-2.92.58-1.43,1.24-2.88,1.9-4.32,1.87.62,7.38,2.36,10.28,2.1s6.73-1.47,8.4-4.17a5.32,5.32,0,0,0-2-7.69c-4-2-11.14,2-13.93,4.89-.09.1-.62.77-1.23,1.58.69-1.39,1.36-2.78,2.11-4.17,2.1-3.93,4.37-7.87,6.62-11.83.47-.82.93-1.65,1.39-2.48,1.58.54,7.53,2.47,10.57,2.19s6.73-1.46,8.4-4.16a5.33,5.33,0,0,0-2-7.69c-4-2-11.14,2-13.93,4.89-.1.1-.73.91-1.42,1.82,1.2-2.17,2.36-4.34,3.45-6.54a95.46,95.46,0,0,0,4.89-11.6c.55.19,7.49,2.6,10.87,2.29,3-.28,6.72-1.46,8.4-4.17a5.33,5.33,0,0,0-2-7.68c-4.05-2-11.15,2-13.93,4.89-.2.2-2.44,3.14-3.21,4.21a.58.58,0,0,0,.05-.14,68.88,68.88,0,0,0,2.68-12.06,94.18,94.18,0,0,0,.84-11c.1-3.42,0-6.56-.15-9.33-.08-1.5-.18-2.87-.29-4.15l.07.06c.07,0,1.86-5.13,1.93-5.47.87-3.93.24-12-3.65-14.3a5.33,5.33,0,0,0-7.49,2.63c-1.32,2.89-.23,6.65,1.19,9.3s6.48,6.65,7.73,7.62c.09,1.33.17,2.75.22,4.32.07,2.77.12,5.9,0,9.3,0,.91-.13,1.88-.19,2.83-.22-1.62-.56-3.83-.62-4-1-3.89-5.33-10.79-9.83-11a5.34,5.34,0,0,0-5.43,5.79c.16,3.17,2.85,6,5.34,7.7s9,3,10.43,3.21c-.18,2.09-.4,4.24-.77,6.46a69.6,69.6,0,0,1-2.9,11.86c-.08.22-.19.44-.27.66,0-.82-.14-5.31-.19-5.62-.61-4-4.11-11.31-8.56-12a5.33,5.33,0,0,0-6,5.15c-.19,3.17,2.18,6.3,4.47,8.25,2.63,2.25,10,4.32,10.26,4.4a93.15,93.15,0,0,1-5,11.11c-1.39,2.67-2.92,5.32-4.47,8,0-1.06-.14-5.24-.19-5.54-.6-4-4.11-11.3-8.56-12a5.33,5.33,0,0,0-6,5.15c-.19,3.17,2.18,6.29,4.47,8.24,2.57,2.2,9.6,4.22,10.2,4.39-.71,1.2-1.41,2.4-2.12,3.59-2.34,3.91-4.7,7.81-6.91,11.73-.77,1.36-1.47,2.73-2.18,4.09,0-1.59-.15-4.5-.19-4.75-.6-4-4.11-11.3-8.56-12a5.34,5.34,0,0,0-6,5.15c-.18,3.17,2.18,6.3,4.47,8.25s8.17,3.79,9.83,4.28c-1.16,2.28-2.27,4.57-3.26,6.88-.4,1-.87,2-1.2,3l-1.06,2.93c-.65,2-1.26,3.9-1.82,5.8-.29,1-.54,1.87-.81,2.81.21-1.63.5-4.2.5-4.44,0-4-2.35-11.8-6.64-13.18a5.32,5.32,0,0,0-6.74,4.17,5.85,5.85,0,0,0-.14,1.18,20.68,20.68,0,0,0-3.3,9.91c0,.26.25,3.31.41,4.87-.42-1.22-.84-2.43-1.25-3.71-.61-1.83-1.2-3.79-1.78-5.68-.26-1-.53-2-.8-3s-.45-2-.68-3c-.31-1.51-.56-3.08-.8-4.65,1.9-.5,7.46-2.1,9.73-3.92s4.8-4.93,4.71-8.11a5.33,5.33,0,0,0-5.88-5.33c-4.47.59-8.19,7.81-8.92,11.77,0,.12-.09,1-.16,2-.19-1.54-.39-3.08-.54-4.64-.41-4.44-.69-9-1-13.52-.06-.95-.14-1.89-.2-2.84,1.6-.42,7.64-2.09,10-4s4.8-4.93,4.71-8.11a5.34,5.34,0,0,0-5.88-5.33c-4.47.59-8.2,7.81-8.92,11.77,0,.14-.11,1.15-.18,2.29-.2-2.46-.43-4.92-.74-7.35a92.47,92.47,0,0,0-2.32-12.38c.57-.14,7.69-2,10.33-4.08,2.35-1.88,4.81-4.93,4.71-8.11a5.33,5.33,0,0,0-5.87-5.33c-4.47.59-8.2,7.81-8.92,11.77-.06.28-.31,4-.35,5.28,0-.05,0-.1,0-.14a69.23,69.23,0,0,0-4.42-11.55A94.58,94.58,0,0,0,54.72,358c-1.8-2.91-3.63-5.46-5.27-7.7-.89-1.21-1.74-2.29-2.53-3.3H47c.09,0-1.28-5.3-1.41-5.62-1.44-3.76-6.43-10.17-10.93-9.92a5.34,5.34,0,0,0-4.8,6.32c.5,3.14,3.48,5.69,6.13,7.1s9.07,2,10.65,2.09c.81,1.06,1.65,2.21,2.57,3.49,1.58,2.27,3.35,4.85,5.08,7.79.47.78.93,1.63,1.4,2.46-1.07-1.23-2.58-2.89-2.74-3-3-2.67-10.4-6.06-14.28-3.76a5.33,5.33,0,0,0-1.34,7.82c1.89,2.56,5.71,3.44,8.71,3.48s9.16-2.51,10.47-3.08c1,1.84,2,3.76,2.92,5.81a69.45,69.45,0,0,1,4.12,11.49c0,.23.09.47.14.7-.43-.69-3.05-4.35-3.26-4.58-2.7-3-9.67-7.16-13.78-5.31a5.34,5.34,0,0,0-2.19,7.63c1.6,2.75,5.29,4,8.28,4.41,3.43.42,10.71-1.9,11-2a93.31,93.31,0,0,1,2,12c.31,3,.5,6,.67,9.09-.58-.9-3-4.29-3.22-4.52-2.7-3-9.67-7.16-13.78-5.3a5.32,5.32,0,0,0-2.19,7.62c1.59,2.75,5.29,4,8.27,4.42,3.36.41,10.34-1.78,10.93-2,.07,1.39.15,2.78.21,4.17.21,4.54.39,9.1.71,13.59.11,1.55.28,3.08.44,4.61-.91-1.31-2.6-3.67-2.77-3.85-2.7-3-9.67-7.16-13.78-5.31A5.32,5.32,0,0,0,49,422.5c1.59,2.76,5.29,4.05,8.27,4.42S66.18,425.57,67.83,425.07Z" style="fill:#263238"></path><path d="M56.74,361.31s6.91-3.86,9-6.72c1.77-2.43,3.34-6,2.41-9.06a5.33,5.33,0,0,0-7.08-3.59c-4.16,1.75-5.84,9.69-5.5,13.7C55.58,356,56.67,361.35,56.74,361.31Z" style="fill:#263238"></path></g><g id="freepik--Icon--inject-64"><path d="M219.87,95.06H456.5a0,0,0,0,1,0,0V375.28a9.38,9.38,0,0,1-9.38,9.38H229.26a9.38,9.38,0,0,1-9.38-9.38V95.06A0,0,0,0,1,219.87,95.06Z" style="fill:#263238;stroke:#263238;stroke-linecap:round;stroke-linejoin:round"></path><path d="M214.92,90.73H451.55a0,0,0,0,1,0,0V370.95a9.38,9.38,0,0,1-9.38,9.38H224.31a9.38,9.38,0,0,1-9.38-9.38V90.73A0,0,0,0,1,214.92,90.73Z" style="fill:#fff;stroke:#263238;stroke-miterlimit:10"></path><path d="M442.34,90.73v289.6h.5a8.71,8.71,0,0,0,8.71-8.71V90.73Z" style="fill:#fff;stroke:#263238;stroke-miterlimit:10"></path><rect x="442.34" y="167.83" width="9.21" height="59.81" style="fill:#fff;stroke:#263238;stroke-miterlimit:10"></rect><rect x="214.92" y="90.73" width="236.63" height="20.48" style="fill:#263238;stroke:#263238;stroke-miterlimit:10"></rect><path d="M425.63,101.18a2.94,2.94,0,1,0-2.94,2.93A2.94,2.94,0,0,0,425.63,101.18Z" style="fill:#fff;stroke:#263238;stroke-miterlimit:10"></path><circle cx="431.91" cy="101.18" r="2.93" style="fill:#fff;stroke:#263238;stroke-miterlimit:10"></circle><circle cx="441.13" cy="101.18" r="2.93" style="fill:#fff;stroke:#263238;stroke-miterlimit:10"></circle><path d="M321.81,319.61c-21.65-13-38.71-28.74-50.69-46.76-9.18-13.81-12-24.06-12.49-26l-.6-2.42V152.38l74.28-31.77,74.28,31.77v92.08l-.61,2.42c-.47,1.91-3.3,12.16-12.49,26-12,18-29,33.75-50.68,46.76l-10.5,6.3Z" style="fill:#cfcfcf;stroke:#fff;stroke-linecap:round;stroke-linejoin:round"></path><path d="M327.06,310.86c-48.85-29.33-58.16-64.94-58.53-66.44l-.3-1.21v-84.1l64.08-27.4,64.08,27.4v84.1l-.3,1.21c-.37,1.5-9.69,37.11-58.53,66.44L332.31,314Z" style="fill:#fff"></path><path d="M332.31,143.14l-53.89,22.24V242s8.11,32.66,53.89,60.15C378.09,274.63,386.19,242,386.19,242V165.38Z" style="fill:#FC6423"></path><circle cx="331.76" cy="208.44" r="38.15" transform="translate(-50.22 295.64) rotate(-45)" style="fill:#fff"></circle><circle cx="331.76" cy="194.89" r="14.67" transform="translate(62.27 469.52) rotate(-75.97)" style="fill:#263238"></circle><path d="M331.76,246.59a38,38,0,0,0,26.29-10.51,26.47,26.47,0,0,0-52.57,0A38,38,0,0,0,331.76,246.59Z" style="fill:#263238"></path><path d="M342.81,319.61c21.65-13,38.7-28.74,50.68-46.76,9.19-13.81,12-24.06,12.49-26l.61-2.42V152.38l-74.28-31.77v205.3Z" style="opacity:0.19"></path></g><g id="freepik--Text--inject-64"><path d="M242.12,362.89V338.07h6.16a6.84,6.84,0,0,1,3.57.81,4.8,4.8,0,0,1,1.94,2.35,10,10,0,0,1,.61,3.71,7.82,7.82,0,0,1-.69,3.4,4.91,4.91,0,0,1-2,2.22,6.64,6.64,0,0,1-3.37.78h-2.73v11.55Zm3.46-14h1.59a6.74,6.74,0,0,0,2.36-.34,2.16,2.16,0,0,0,1.23-1.18,6.18,6.18,0,0,0,.37-2.37,11.07,11.07,0,0,0-.26-2.73,2,2,0,0,0-1.09-1.32,6.83,6.83,0,0,0-2.58-.37h-1.62Z" style="fill:#263238"></path><path d="M256.82,362.89V338.07h5a11,11,0,0,1,4.1.66,4.58,4.58,0,0,1,2.41,2.12,8.06,8.06,0,0,1,.78,3.81,10.18,10.18,0,0,1-.31,2.62,5,5,0,0,1-1,2,3.88,3.88,0,0,1-1.77,1.18l3.52,12.44h-3.34L263,351.25h-2.69v11.64Zm3.47-14.12h1.31a6.62,6.62,0,0,0,2.39-.37,2.46,2.46,0,0,0,1.35-1.26,5.75,5.75,0,0,0,.43-2.48,4.93,4.93,0,0,0-.8-3.14c-.53-.64-1.58-1-3.15-1h-1.53Z" style="fill:#263238"></path><path d="M272.91,362.89V338.07h3.4v24.82Z" style="fill:#263238"></path><path d="M284.64,362.89l-5.54-24.82h3.24l3.93,18.29L290,338.07h3.16l-5.48,24.82Z" style="fill:#263238"></path><path d="M293.59,362.89l5.27-24.82h3.34l5.3,24.82h-3.28l-1.13-6.25H298l-1.19,6.25Zm4.9-8.73h4.14L300.54,343Z" style="fill:#263238"></path><path d="M316.11,363.16a6.61,6.61,0,0,1-4.09-1.1,5.67,5.67,0,0,1-2-3,14.61,14.61,0,0,1-.56-4.17v-8.76a15.48,15.48,0,0,1,.56-4.38,5.34,5.34,0,0,1,2-2.9,7,7,0,0,1,4.09-1,6.81,6.81,0,0,1,3.69.86,4.79,4.79,0,0,1,2,2.45,10.88,10.88,0,0,1,.6,3.83v2h-3.28v-1.75a19.2,19.2,0,0,0-.14-2.43,2.6,2.6,0,0,0-.75-1.64,2.92,2.92,0,0,0-2.05-.59,3.09,3.09,0,0,0-2.15.63,3,3,0,0,0-.87,1.78,16.2,16.2,0,0,0-.2,2.68v9.83a11.05,11.05,0,0,0,.31,3,2.57,2.57,0,0,0,1,1.55,3.49,3.49,0,0,0,1.9.46,2.73,2.73,0,0,0,2-.63,3,3,0,0,0,.76-1.73,17.67,17.67,0,0,0,.16-2.57v-1.84h3.28v1.84a13,13,0,0,1-.56,4,5.08,5.08,0,0,1-1.89,2.7A6.49,6.49,0,0,1,316.11,363.16Z" style="fill:#263238"></path><path d="M329.46,362.89v-8.76l-5.36-16.06h3.22l3.8,12,3.74-12h3.24l-5.33,16.06v8.76Z" style="fill:#263238"></path><path d="M347.42,362.89V338.07h6.15a6.79,6.79,0,0,1,3.57.81,4.77,4.77,0,0,1,1.95,2.35,10,10,0,0,1,.61,3.71,7.82,7.82,0,0,1-.69,3.4,5,5,0,0,1-2,2.22,6.67,6.67,0,0,1-3.37.78h-2.73v11.55Zm3.46-14h1.59a6.74,6.74,0,0,0,2.36-.34,2.16,2.16,0,0,0,1.23-1.18,6.2,6.2,0,0,0,.36-2.37,10.6,10.6,0,0,0-.26-2.73,1.91,1.91,0,0,0-1.08-1.32,6.86,6.86,0,0,0-2.58-.37h-1.62Z" style="fill:#263238"></path><path d="M368.46,363.16a7.19,7.19,0,0,1-4-1,5.28,5.28,0,0,1-2.14-2.8,12.78,12.78,0,0,1-.65-4.27V345.7a12,12,0,0,1,.66-4.21,5.28,5.28,0,0,1,2.15-2.7,7.46,7.46,0,0,1,4-.93,7.23,7.23,0,0,1,4,.95,5.36,5.36,0,0,1,2.13,2.69,12,12,0,0,1,.65,4.2v9.44a12.37,12.37,0,0,1-.65,4.23,5.59,5.59,0,0,1-2.13,2.8A7.05,7.05,0,0,1,368.46,363.16Zm0-2.72a3.28,3.28,0,0,0,2.09-.57,2.85,2.85,0,0,0,.95-1.59,10.73,10.73,0,0,0,.24-2.41V345a10.33,10.33,0,0,0-.24-2.38,2.69,2.69,0,0,0-.95-1.53,4.31,4.31,0,0,0-4.18,0,2.57,2.57,0,0,0-1,1.53,10.33,10.33,0,0,0-.24,2.38v10.87a10.73,10.73,0,0,0,.24,2.41,2.72,2.72,0,0,0,1,1.59A3.28,3.28,0,0,0,368.46,360.44Z" style="fill:#263238"></path><path d="M378.63,362.89V338.07h3.47v22.34h6.34v2.48Z" style="fill:#263238"></path><path d="M391,362.89V338.07h3.4v24.82Z" style="fill:#263238"></path><path d="M404.62,363.16a6.61,6.61,0,0,1-4.09-1.1,5.67,5.67,0,0,1-2-3,14.26,14.26,0,0,1-.56-4.17v-8.76a15.13,15.13,0,0,1,.56-4.38,5.34,5.34,0,0,1,2-2.9,7,7,0,0,1,4.09-1,6.81,6.81,0,0,1,3.69.86,4.79,4.79,0,0,1,2,2.45,10.88,10.88,0,0,1,.6,3.83v2h-3.28v-1.75a19.2,19.2,0,0,0-.14-2.43,2.6,2.6,0,0,0-.75-1.64,2.92,2.92,0,0,0-2.05-.59,3.09,3.09,0,0,0-2.15.63,3,3,0,0,0-.87,1.78,16.2,16.2,0,0,0-.2,2.68v9.83a11.05,11.05,0,0,0,.31,3,2.57,2.57,0,0,0,1,1.55,3.49,3.49,0,0,0,1.9.46,2.73,2.73,0,0,0,2-.63,3,3,0,0,0,.76-1.73,17.67,17.67,0,0,0,.16-2.57v-1.84h3.28v1.84a13,13,0,0,1-.56,4,5,5,0,0,1-1.9,2.7A6.43,6.43,0,0,1,404.62,363.16Z" style="fill:#263238"></path><path d="M418,362.89v-8.76l-5.36-16.06h3.22l3.8,12,3.73-12h3.25l-5.33,16.06v8.76Z" style="fill:#263238"></path></g><g id="freepik--Character--inject-64"><path d="M190.36,348.1s-1.24,18.61,1.44,27.91,19.65,53.56,19.65,53.56.41,7.85-.21,8.68-3.52,5.38-7.44,7.24-12.2,6.61-10.34,7.23,18.4-1.24,20.26-.41,10.13-2.48,12.2-3.31,0-6,0-6a260.23,260.23,0,0,1-6.2-26.06c-1.86-11.37-4.76-27.08-6.41-34.94A65.13,65.13,0,0,0,208.55,368l2.07-19.43Z" style="fill:#fff;stroke:#263238;stroke-miterlimit:10"></path><path d="M206.48,448.17l-2.12-3c-.19.11-.37.21-.56.3-3.93,1.86-12.2,6.61-10.34,7.23s18.4-1.24,20.26-.41,10.13-2.48,12.2-3.31,0-6,0-6-.21-.7-.55-1.91a37.44,37.44,0,0,0-7.93,4.8C213.1,449.62,206.48,448.17,206.48,448.17Z" style="fill:#263238;stroke:#263238;stroke-miterlimit:10"></path><path d="M203.49,349.55s1.65,19,4.13,25.64,2.48,51.69,2.48,55.41-6,9.72-6,9.72-10.34,7.65-13.23,8.48-5.17,1.86-3.73,3.1,15.72,1.24,20.68,1.24,11.37.2,12-.83a16.7,16.7,0,0,0,1-4.14s-1.24-11.57-.83-16.74,7.86-36.6,7.24-47.14a99.22,99.22,0,0,0-3.73-20.68c-.2-.83,1.45-15.09,1.45-15.09Z" style="fill:#fff;stroke:#263238;stroke-miterlimit:10"></path><path d="M220.86,448.17s-.06-.49-.14-1.32c-9.29.72-21.37,1.32-21.37,1.32l-1.4-3.5c-2.78,1.88-5.73,3.74-7.07,4.13-2.9.82-5.17,1.86-3.73,3.1s15.72,1.24,20.68,1.24,11.37.2,12-.83A16.7,16.7,0,0,0,220.86,448.17Z" style="fill:#263238;stroke:#263238;stroke-miterlimit:10"></path><path d="M183.05,298.55s-1.45,14.91-.83,21.53,2.35,39.48,2.35,39.48,11.73,7.22,22.29,7.84,26.51-5,26.51-5,3.52-39,1.45-49.39-3.11-15.32-3.11-15.32-28-1.45-35.2-3.31-9-2.92-9-2.92l-2.38-.28Z" style="fill:#263238;stroke:#263238;stroke-linecap:round;stroke-linejoin:round"></path><path d="M187.4,294.69s10.77,5.17,26.71,3.1l-1-30.23,7.05-45.77-11.39-.41-12.84,4.56-7.66,58Z" style="fill:#fff;stroke:#263238;stroke-linecap:round;stroke-linejoin:round"></path><path d="M197.65,216.89s-2.77,12.53-2.28,14.15,5.53,10.25,8.95,9.6,10.74-12.53,11.72-14.8-1-6.19-1.14-7-2.12-9.28-2.12-9.28S205,216.24,197.65,216.89Z" style="fill:#fff;stroke:#263238;stroke-linecap:round;stroke-linejoin:round"></path><path d="M198.61,224.47s-3,24.45-3.17,34-5.6,53.19-5.6,53.19-.74,1.3-5.6-.19a14.87,14.87,0,0,1-7.27-4.85s8.39-31.35,8.58-32.84-1.49-16.05-1.49-16.05l-16.8,14.55s.38-7.84,1.87-9.52,12.69-22.58,13.62-24.63-.19-8.21,3.17-10.08S198.61,224.47,198.61,224.47Z" style="fill:#FC6423;stroke:#263238;stroke-linecap:round;stroke-linejoin:round"></path><polyline points="182.32 292.06 189.42 294.42 189.16 296.26 182.84 294.69" style="fill:none;stroke:#263238;stroke-linecap:round;stroke-linejoin:round"></polyline><path d="M194.51,269.07s-3-28.93-2.61-35.46" style="fill:#fff;stroke:#263238;stroke-linecap:round;stroke-linejoin:round"></path><path d="M215.78,223s-10.26,35.08-10.26,43.1,2,47.28,2,47.28,9.29,2.78,16.57,1.84,17-5.07,17-5.07l-9.89-29.49S247,242.94,247,240.33s2.05-7.46,0-8.77-19.78-7.28-22.21-8.4S218.77,220.36,215.78,223Z" style="fill:#FC6423;stroke:#263238;stroke-linecap:round;stroke-linejoin:round"></path><polyline points="231.24 295.47 214.11 297.79 215.2 300.21 224.93 299.16" style="fill:none;stroke:#263238;stroke-linecap:round;stroke-linejoin:round"></polyline><path d="M225.55,223.5c-.34-.14-.63-.25-.81-.34-2.43-1.12-6-2.8-9-.18,0,0-10.26,35.08-10.26,43.1,0,1.34.11,3.54.3,6.27.84-2.81,2.74-7.2,6.23-16.16C216.59,244.55,223.21,229,225.55,223.5Z" style="fill:#FC6423;stroke:#263238;stroke-linecap:round;stroke-linejoin:round"></path><path d="M189.48,175.64s-10.21,6.8-10.83,11.75-.16,7.89-.16,12.69-2.63,19.8-.15,25.37,6,10.52,11,11.91,8.05.16,9.28-1.08a12.79,12.79,0,0,0,2.17-3.56s-2.63.31-2.63-2.78,2.94-12.53,2.94-12.53-6.65-3.41-7.89-6.66-4.95-20.42-4.64-21.81,5.88-4.49,6-8.35S192.26,174.4,189.48,175.64Z" style="fill:#263238;stroke:#263238;stroke-linecap:round;stroke-linejoin:round"></path><path d="M188.55,182.44s-2.63,5.73-1.86,10.37,2.32,12.68,3.1,15.93,4.79,6.81,6.8,8.67,5.57,4.48,8.2,3.86,6.5-7,6.5-7,3.09-3.56,3.87-6.65-1.86-8.51-3.56-14.23a17.57,17.57,0,0,0-12.84-12.53C191.8,179.19,189.63,181.36,188.55,182.44Z" style="fill:#fff;stroke:#263238;stroke-linecap:round;stroke-linejoin:round"></path><path d="M194.43,198.84s2.16,3.56,2,4.64-1.24,5.73-.62,6,2.78-.16,2.78-.16" style="fill:none;stroke:#263238;stroke-linecap:round;stroke-linejoin:round"></path><path d="M198.6,212.61s3.25.31,6-3.25" style="fill:none;stroke:#263238;stroke-linecap:round;stroke-linejoin:round"></path><path d="M193.34,198.69s-2.63-1.09-3.86,1.08" style="fill:none;stroke:#263238;stroke-linecap:round;stroke-linejoin:round"></path><path d="M197.68,198.07s.46-2.17,4.33-1.09" style="fill:none;stroke:#263238;stroke-linecap:round;stroke-linejoin:round"></path><path d="M202,201c.28.81.11,1.6-.38,1.77s-1.1-.35-1.38-1.16-.11-1.6.38-1.77S201.68,200.21,202,201Z" style="fill:#263238"></path><path d="M193.65,202.55c.28.81.11,1.6-.37,1.77s-1.1-.35-1.38-1.16-.11-1.6.37-1.77S193.38,201.75,193.65,202.55Z" style="fill:#263238"></path><path d="M186.85,181.51s6.18,9,12.37,13,12.22,5,12.38,8.66-2.79,12.07-.46,18.1,6.65,8.2,12.68,7,8.82-6.81,8.82-6.81-3.4,2.32-4.49-.31-3.56-6.5-.46-12.84,4.95-9.28-.77-19.8S214.38,171.92,209,169.6,186.69,171,186.85,181.51Z" style="fill:#263238;stroke:#263238;stroke-linecap:round;stroke-linejoin:round"></path><polygon points="184.58 267.94 183.86 260.71 181.11 263.46 184.58 267.94" style="fill:#fff;stroke:#263238;stroke-linecap:round;stroke-linejoin:round"></polygon><path d="M176.73,250.08l3,4-2.33,3.59s-.32.43,1.27,3a31.1,31.1,0,0,0,3.81,4.76s5.06-10.65,5.44-12.57-8.46-13.18-8.46-13.18S176.42,245.53,176.73,250.08Z" style="fill:#fff;stroke:#263238;stroke-linecap:round;stroke-linejoin:round"></path><polygon points="168.25 229.73 183.21 247.5 193.13 248.14 178.94 229.34 168.25 229.73" style="fill:#fff;stroke:#263238;stroke-linecap:round;stroke-linejoin:round"></polygon><path d="M175.92,239.83s-1.87,1.15-1.43,2.16,3.59,3.3,5.89,3.59,1.17-1.11,1.16-1.85S175.92,239.83,175.92,239.83Z" style="fill:#fff;stroke:#263238;stroke-linecap:round;stroke-linejoin:round"></path><path d="M175.21,243.14s-1.44,1.58-1,2.73,5.9,2.73,6.9,2.88a1.15,1.15,0,0,0,.72-2.16C180.38,245.58,175.21,243.14,175.21,243.14Z" style="fill:#fff;stroke:#263238;stroke-linecap:round;stroke-linejoin:round"></path><path d="M175.35,247.31s-.43,2,.57,2.73,5.67.18,6.44-.12-1.26-1.17-1.26-1.17Z" style="fill:#fff;stroke:#263238;stroke-linecap:round;stroke-linejoin:round"></path><path d="M205.79,256.59l-5.54-5.21s-1.79-6-2.6-7.81-1.46-2.28-3.42-4.07-3.25-1-3.58.17l-.32,1.14s-9.44-.49-10.9-1.14-3.09-2.12-3.91-1.14.33,2.28,1.63,3.09a18,18,0,0,0,4.39,2.11c1.3.33,2.93.65,2.93.65l-6.83-1a1.55,1.55,0,0,0,.49,1.63l2.11,2.11a12,12,0,0,0,2.12,2.77,11.3,11.3,0,0,0,2.9,1.82c1.37.65,2.63,1.11,2.63,1.11a22.55,22.55,0,0,1-3.74-.33c-1.63-.33-3.1-1.14-2.93,0s1.3,1.63,3.09,1.95,9.44,1.3,10.09,1.47,9.11,8,9.11,8Z" style="fill:#fff;stroke:#263238;stroke-linecap:round;stroke-linejoin:round"></path><path d="M190.33,240.81a17,17,0,0,1,4.39,1.95" style="fill:#fff;stroke:#263238;stroke-linecap:round;stroke-linejoin:round"></path><line x1="184.47" y1="244.38" x2="188.7" y2="245.36" style="fill:none;stroke:#263238;stroke-linecap:round;stroke-linejoin:round"></line><path d="M180.24,247.15s5.37,1.79,8.14,2.44" style="fill:none;stroke:#263238;stroke-linecap:round;stroke-linejoin:round"></path><path d="M247.84,233.76a178.9,178.9,0,0,1-5.27,26.46c-3.72,12.84-5.65,24.4-6.42,25.3s-9.12-2.32-15.92-6.43-20.55-14-20.55-14l5.78-11.05,20.42,12.2s.64-1.41,1.54-1.67a6.72,6.72,0,0,0,1.54-.64l1.93-24.66" style="fill:#FC6423;stroke:#263238;stroke-linecap:round;stroke-linejoin:round"></path><path d="M177.37,257.69l7.21,10.25s-2.17,6.65-4.34,9.25-9.25,3.76-11.56,1-1.74-6.94-.43-9.25S177.37,257.69,177.37,257.69Z" style="fill:#FC6423;stroke:#263238;stroke-linecap:round;stroke-linejoin:round"></path></g><g id="freepik--Floor--inject-64"><line x1="20.54" y1="453.15" x2="467.48" y2="453.15" style="fill:none;stroke:#263238;stroke-miterlimit:10"></line></g></svg>
