<svg width="58" height="63" viewBox="0 0 58 63" fill="none" xmlns="http://www.w3.org/2000/svg">
<path d="M56.5003 22.368V54.97C56.5003 58.5599 53.5901 61.47 50.0003 61.47H20.1599C16.5701 61.47 13.6599 58.5598 13.6599 54.97V8C13.6599 4.41015 16.5701 1.5 20.1599 1.5H37.2878V12.868C37.2878 18.1147 41.5411 22.368 46.7878 22.368H56.5003ZM54.5804 19.368H46.7878C43.1979 19.368 40.2878 16.4578 40.2878 12.868V3.84385L54.5804 19.368Z" fill="#EEF1F7" stroke="#CBD0DC" stroke-width="3"/>
<rect y="29.6163" width="34.6128" height="20.59" rx="4" fill="#018BD3"/>
<path d="M10.0604 38.7136C10.0173 38.3105 9.83575 37.9965 9.51567 37.7719C9.19867 37.5472 8.78627 37.4349 8.27845 37.4349C7.92145 37.4349 7.61522 37.4887 7.35977 37.5964C7.10433 37.7042 6.9089 37.8503 6.77348 38.035C6.63807 38.2197 6.56882 38.4305 6.56574 38.6675C6.56574 38.8644 6.61037 39.0352 6.69962 39.1799C6.79195 39.3245 6.91659 39.4476 7.07355 39.5492C7.23051 39.6477 7.4044 39.7308 7.59521 39.7985C7.78603 39.8662 7.97838 39.9231 8.17227 39.9693L9.05864 40.1909C9.41565 40.274 9.7588 40.3863 10.0881 40.5279C10.4205 40.6695 10.7175 40.848 10.9791 41.0634C11.2438 41.2788 11.4531 41.5389 11.6069 41.8436C11.7608 42.1483 11.8378 42.5053 11.8378 42.9146C11.8378 43.4686 11.6962 43.9564 11.413 44.378C11.1299 44.7966 10.7206 45.1244 10.1851 45.3614C9.65262 45.5953 9.00786 45.7122 8.25075 45.7122C7.5152 45.7122 6.87658 45.5983 6.33492 45.3706C5.79633 45.1428 5.37469 44.8105 5.07 44.3734C4.76839 43.9364 4.60528 43.404 4.58066 42.7761H6.26567C6.29029 43.1054 6.39185 43.3793 6.57036 43.5979C6.74886 43.8164 6.98122 43.9795 7.26745 44.0872C7.55674 44.1949 7.8799 44.2488 8.23691 44.2488C8.6093 44.2488 8.93553 44.1934 9.2156 44.0826C9.49874 43.9687 9.72033 43.8118 9.88037 43.6117C10.0404 43.4086 10.122 43.1716 10.125 42.9008C10.122 42.6546 10.0496 42.4514 9.90807 42.2914C9.7665 42.1283 9.56799 41.9929 9.31254 41.8851C9.06018 41.7743 8.76472 41.6759 8.42618 41.5897L7.35054 41.3127C6.5719 41.1127 5.95637 40.8095 5.50395 40.4033C5.05461 39.9939 4.82995 39.4507 4.82995 38.7736C4.82995 38.2166 4.98075 37.7288 5.28236 37.3102C5.58705 36.8917 6.00099 36.567 6.52419 36.3361C7.04739 36.1022 7.63984 35.9853 8.30154 35.9853C8.97246 35.9853 9.5603 36.1022 10.065 36.3361C10.5728 36.567 10.9714 36.8886 11.2607 37.301C11.55 37.7103 11.6993 38.1812 11.7085 38.7136H10.0604ZM14.6296 36.1145L17.0902 43.5563H17.1871L19.6431 36.1145H21.5266L18.1935 45.5691H16.0791L12.7507 36.1145H14.6296ZM28.5979 39.1337C28.5209 38.8844 28.4148 38.6613 28.2793 38.4643C28.147 38.2643 27.987 38.0935 27.7992 37.9519C27.6146 37.8103 27.4022 37.7042 27.1622 37.6334C26.9221 37.5595 26.6605 37.5226 26.3774 37.5226C25.8695 37.5226 25.4171 37.6503 25.0201 37.9057C24.6231 38.1612 24.3107 38.5367 24.083 39.0322C23.8583 39.5246 23.746 40.1247 23.746 40.8326C23.746 41.5466 23.8583 42.1514 24.083 42.6469C24.3076 43.1424 24.62 43.5194 25.0201 43.7779C25.4202 44.0333 25.8849 44.1611 26.4143 44.1611C26.8944 44.1611 27.3099 44.0687 27.6607 43.8841C28.0147 43.6994 28.287 43.4378 28.4779 43.0993C28.6687 42.7577 28.7641 42.3576 28.7641 41.899L29.1519 41.959H26.5851V40.6202H30.4214V41.7559C30.4214 42.5653 30.249 43.2655 29.9043 43.8564C29.5596 44.4473 29.0857 44.9028 28.4825 45.2229C27.8792 45.5399 27.1868 45.6984 26.4051 45.6984C25.5341 45.6984 24.7693 45.5029 24.1107 45.1121C23.4551 44.7181 22.9427 44.1595 22.5734 43.4363C22.2071 42.71 22.024 41.8482 22.024 40.8511C22.024 40.0878 22.1317 39.4061 22.3472 38.806C22.5657 38.2058 22.8704 37.6965 23.2612 37.2779C23.6521 36.8563 24.1107 36.5362 24.6369 36.3177C25.1632 36.0961 25.7357 35.9853 26.3543 35.9853C26.8775 35.9853 27.3653 36.0622 27.8177 36.2161C28.2701 36.3669 28.6717 36.5823 29.0226 36.8624C29.3765 37.1425 29.6674 37.4749 29.8951 37.8596C30.1229 38.2443 30.2721 38.669 30.3429 39.1337H28.5979Z" fill="white"/>
</svg>
