<svg xmlns="http://www.w3.org/2000/svg" viewBox="0 0 500 500"><g id="freepik--background-complete--inject-105"><path d="M122.17,441.41c15.55-10.86,19.08-31,18.46-49.16-.1-3,.23-6.22-1.21-8.87s-4.79-4.47-7.5-3.2c-2.25,1.06-3.23,3.68-4.49,5.84a17.79,17.79,0,0,1-7.09,6.78c-1.93,1-4.32,1.61-6.22.56-2.61-1.44-2.92-5.05-2.9-8.06q.06-8.42.11-16.83a27.92,27.92,0,0,0-.91-8.94c-.94-2.85-3-5.51-5.87-6.31s-6.4.85-7,3.8a27.41,27.41,0,0,0-.08,3.74c-.09,1.25-.67,2.64-1.85,3s-2.41-.5-3.31-1.38c-3.11-3-5.21-6.95-7.18-10.84s-3.89-7.88-6.71-11.2-6.71-5.94-11-6.18-8.91,2.41-10,6.65,1.39,8.54,4.08,12a67.49,67.49,0,0,0,14,13.33,5.52,5.52,0,0,1,2.34,2.52c.65,2-1.25,4-3.23,4.66-2.24.74-4.68.51-7,.79s-4.89,1.31-5.78,3.53c-1.23,3.07,1.34,6.3,3.87,8.41a57.55,57.55,0,0,0,17,9.83c2.22.81,4.55,1.52,6.33,3.08s2.87,4.26,1.79,6.38-3.85,2.8-6.17,2.37S80.23,406,78,405.15c-4.14-1.57-9.48-1.28-12.13,2.29a9.52,9.52,0,0,0-1,8.43,22,22,0,0,0,4.56,7.44,57.92,57.92,0,0,0,24.71,17.36c9.59,3.33,18.48,4.23,28,.74" style="fill:#f5f5f5"></path><path d="M122.41,454.85a132,132,0,0,0-4.92-24.8,270.1,270.1,0,0,0-10.71-29l-3.19-7.47c-1.06-2.44-2.1-4.87-3.27-7.18a133.38,133.38,0,0,0-7.49-12.9c-2.58-4-5.17-7.68-7.62-11.11s-4.81-6.58-7.07-9.36a106,106,0,0,0-11.66-12.32c-1.48-1.34-2.67-2.35-3.48-3l-.93-.75a1.51,1.51,0,0,0-.33-.24l.3.28c.22.2.51.47.89.8.79.7,1.95,1.73,3.41,3.09a114.14,114.14,0,0,1,11.5,12.41c2.24,2.79,4.56,5.95,7,9.38s5,7.14,7.57,11.12a136.1,136.1,0,0,1,7.42,12.86c1.16,2.3,2.2,4.71,3.25,7.17l3.2,7.46a278.32,278.32,0,0,1,10.72,29,134.57,134.57,0,0,1,5,24.7" style="fill:#e0e0e0"></path><path d="M100.16,386.34a7,7,0,0,0,.29-1.29c.16-.83.35-2,.56-3.54.43-3,.87-7.16,1.35-11.74s1-8.73,1.45-11.71c.23-1.49.43-2.7.57-3.53a5.45,5.45,0,0,0,.17-1.31,5.8,5.8,0,0,0-.38,1.26c-.21.82-.47,2-.75,3.51-.57,3-1.14,7.13-1.61,11.72s-.87,8.62-1.19,11.75c-.15,1.41-.28,2.6-.38,3.56A5.7,5.7,0,0,0,100.16,386.34Z" style="fill:#e0e0e0"></path><path d="M61.46,379.1a7.67,7.67,0,0,0,1.55.19c1,.09,2.43.21,4.2.41,3.54.38,8.42,1.08,13.76,2.09s10.15,2.15,13.6,3.06c1.73.45,3.12.84,4.08,1.11a8.8,8.8,0,0,0,1.51.38,7.56,7.56,0,0,0-1.45-.58c-.94-.34-2.32-.79-4-1.29-3.43-1-8.23-2.21-13.59-3.23a135.89,135.89,0,0,0-13.84-1.93c-1.78-.16-3.22-.22-4.22-.24A9,9,0,0,0,61.46,379.1Z" style="fill:#e0e0e0"></path><path d="M117,429.33s.11-.15.27-.47l.66-1.4c.57-1.22,1.35-3,2.28-5.22,1.87-4.43,4.25-10.63,6.79-17.52s4.87-13.1,6.64-17.56c.87-2.17,1.58-4,2.12-5.29l.56-1.44a2.3,2.3,0,0,0,.17-.52,2.26,2.26,0,0,0-.27.48c-.18.37-.4.84-.66,1.4-.57,1.21-1.35,3-2.28,5.21-1.87,4.44-4.25,10.64-6.79,17.53s-4.87,13.1-6.64,17.56l-2.12,5.29-.56,1.44A2.55,2.55,0,0,0,117,429.33Z" style="fill:#e0e0e0"></path><path d="M65.59,412.76a2.12,2.12,0,0,0,.51.21l1.5.5,5.5,1.79c4.65,1.51,11.05,3.66,18.12,6.05s13.49,4.5,18.17,5.91c2.34.71,4.24,1.26,5.56,1.61l1.52.4a1.72,1.72,0,0,0,.54.1,2.43,2.43,0,0,0-.51-.21l-1.49-.5-5.51-1.78c-4.65-1.51-11-3.66-18.11-6.06s-13.49-4.49-18.17-5.9c-2.34-.71-4.24-1.26-5.56-1.62l-1.53-.4A2.13,2.13,0,0,0,65.59,412.76Z" style="fill:#e0e0e0"></path><polygon points="387.63 334.03 387.63 296.69 397.6 296.69 397.6 334.28 387.63 334.03" style="fill:#ebebeb"></polygon><polygon points="397.78 334.03 397.78 296.69 407.74 296.69 407.74 334.28 397.78 334.03" style="fill:#e0e0e0"></polygon><polygon points="414.63 334.29 414.63 307.52 421.77 307.52 421.77 334.47 414.63 334.29" style="fill:#ebebeb"></polygon><polygon points="421.91 334.29 421.91 307.52 429.05 307.52 429.05 334.47 421.91 334.29" style="fill:#e0e0e0"></polygon><rect x="271.5" y="334.18" width="160.75" height="74.14" style="fill:#f5f5f5"></rect><path d="M428.43,404.82H275.18V338.08H428.43Zm-152.25-1H427.43V339.08H276.18Z" style="fill:#e0e0e0"></path><rect x="432.26" y="334.18" width="39.27" height="74.14" style="fill:#e0e0e0"></rect><path d="M275.68,358.73H427.93a.2.2,0,0,0,0-.4H275.68a.2.2,0,0,0,0,.4Z" style="fill:#e0e0e0"></path><path d="M352.3,358.53a167.07,167.07,0,0,0,.06-20.14.21.21,0,0,0-.41,0,165,165,0,0,0,.05,20.14.15.15,0,1,0,.3,0Z" style="fill:#e0e0e0"></path><path d="M393.28,348.46a2.07,2.07,0,1,1-2.07-2.07A2.07,2.07,0,0,1,393.28,348.46Z" style="fill:#e0e0e0"></path><path d="M313.38,348.46a2.07,2.07,0,1,1-2.07-2.07A2.07,2.07,0,0,1,313.38,348.46Z" style="fill:#e0e0e0"></path><path d="M353.88,371.45a2.08,2.08,0,1,1-2.07-2.07A2.07,2.07,0,0,1,353.88,371.45Z" style="fill:#e0e0e0"></path><polygon points="290.72 408.32 282.45 454.86 287.1 454.86 302.36 408.32 290.72 408.32" style="fill:#e0e0e0"></polygon><polygon points="420.88 408.32 427.81 454.94 423.15 454.94 409.25 408.32 420.88 408.32" style="fill:#e0e0e0"></polygon><polygon points="451.96 408.32 459.8 454.94 455.15 454.94 440.32 408.32 451.96 408.32" style="fill:#e0e0e0"></polygon><path d="M353.74,392.43a2.08,2.08,0,1,1-2.07-2.07A2.08,2.08,0,0,1,353.74,392.43Z" style="fill:#e0e0e0"></path><path d="M275.68,381.69H427.93a.2.2,0,0,0,0-.4H275.68a.2.2,0,0,0,0,.4Z" style="fill:#e0e0e0"></path><rect x="331.81" y="60.28" width="108.38" height="194.7" style="fill:#ebebeb"></rect><rect x="336.14" y="65.93" width="98.6" height="183.25" style="fill:#fafafa"></rect><polygon points="434.75 68.09 336.14 193.51 336.14 65.93 434.75 65.93 434.75 68.09" style="fill:#f5f5f5"></polygon><rect x="336.14" y="118.65" width="100.74" height="1.95" style="fill:#ebebeb"></rect><rect x="336.14" y="162.29" width="100.74" height="1.95" style="fill:#ebebeb"></rect><rect x="336.14" y="205.92" width="100.74" height="1.95" style="fill:#ebebeb"></rect><rect x="318.07" y="184.51" width="134.76" height="4.98" transform="translate(198.45 572.44) rotate(-90)" style="fill:#ebebeb"></rect><rect x="355.13" y="65.93" width="2.26" height="53.69" style="fill:#ebebeb"></rect><rect x="374.6" y="65.93" width="2.26" height="53.69" style="fill:#ebebeb"></rect><rect x="394.06" y="65.93" width="2.26" height="53.69" style="fill:#ebebeb"></rect><rect x="413.52" y="65.93" width="2.26" height="53.69" style="fill:#ebebeb"></rect><rect x="327.23" y="56.98" width="4.58" height="199.2" style="fill:#f5f5f5"></rect><polygon points="444.78 256.74 440.19 254.98 440.19 56.98 444.78 56.98 444.78 256.74" style="fill:#e0e0e0"></polygon><rect x="327.23" y="54.97" width="117.55" height="5.31" style="fill:#e0e0e0"></rect><rect x="323.98" y="257.39" width="123.9" height="4.95" style="fill:#e0e0e0"></rect><polygon points="440.19 254.98 447.88 257.39 323.98 257.39 331.81 254.98 440.19 254.98" style="fill:#ebebeb"></polygon><rect x="53.08" y="63.58" width="108.38" height="194.7" style="fill:#ebebeb"></rect><rect x="57.41" y="69.22" width="98.6" height="183.25" style="fill:#fafafa"></rect><polygon points="156.01 71.38 57.41 196.81 57.41 69.22 156.01 69.22 156.01 71.38" style="fill:#f5f5f5"></polygon><rect x="57.41" y="121.94" width="100.74" height="1.95" style="fill:#ebebeb"></rect><rect x="57.41" y="165.58" width="100.74" height="1.95" style="fill:#ebebeb"></rect><rect x="57.41" y="209.22" width="100.74" height="1.95" style="fill:#ebebeb"></rect><rect x="39.33" y="187.8" width="134.76" height="4.98" transform="translate(-83.58 297) rotate(-90)" style="fill:#ebebeb"></rect><rect x="76.4" y="69.22" width="2.26" height="53.69" style="fill:#ebebeb"></rect><rect x="95.86" y="69.22" width="2.26" height="53.69" style="fill:#ebebeb"></rect><rect x="115.33" y="69.22" width="2.26" height="53.69" style="fill:#ebebeb"></rect><rect x="134.79" y="69.22" width="2.26" height="53.69" style="fill:#ebebeb"></rect><rect x="48.49" y="60.28" width="4.58" height="199.2" style="fill:#f5f5f5"></rect><polygon points="166.04 260.03 161.46 258.28 161.46 60.28 166.04 60.28 166.04 260.03" style="fill:#e0e0e0"></polygon><rect x="48.49" y="58.27" width="117.55" height="5.31" style="fill:#e0e0e0"></rect><rect x="45.24" y="260.69" width="123.9" height="4.95" style="fill:#e0e0e0"></rect><polygon points="161.46 258.28 169.15 260.69 45.24 260.69 53.08 258.28 161.46 258.28" style="fill:#ebebeb"></polygon></g><g id="freepik--Floor--inject-105"><path d="M461.27,454.94c0,.15-91.9.26-205.23.26s-205.25-.11-205.25-.26,91.87-.26,205.25-.26S461.27,454.8,461.27,454.94Z" style="fill:#263238"></path></g><g id="freepik--Character--inject-105"><path d="M308.82,197.34c-.62.75-.65,7-.65,7s-14.65,25-16.69,25.34-10.92-17.34-10.92-17.34l-9.13,8.4s4.76,22.34,19.64,26.17c7,1.81,19.28-20.46,27.46-39,.13-.29,4.37-10.37,4.37-10.37Z" style="fill:#a56959"></path><rect x="309.39" y="133.95" width="4.55" height="97.8" transform="translate(-41.31 105.53) rotate(-18.04)" style="fill:#263238"></rect><rect x="307.33" y="134.62" width="4.55" height="97.8" transform="matrix(0.95, -0.31, 0.31, 0.95, -41.62, 104.93)" style="fill:#455a64"></rect><rect x="259.58" y="88.92" width="65.66" height="53.01" transform="translate(-21.37 96.25) rotate(-18.04)" style="fill:#FC6423"></rect><g style="opacity:0.30000000000000004"><rect x="259.58" y="88.92" width="65.66" height="53.01" transform="translate(-21.37 96.25) rotate(-18.04)"></rect></g><rect x="257.34" y="89.65" width="65.66" height="53.01" transform="translate(-21.71 95.59) rotate(-18.04)" style="fill:#FC6423"></rect><path d="M282.83,114.8l2.11-.73,2.38-8-1.47-4.23s3.2-1.34,4.74,4.33,1.47,4.11,1.47,4.11,6.95-2.39,7.74-2c.57.29,3.16,7.12,4.54,10.84a4.29,4.29,0,0,1-1.45,5.08,3.65,3.65,0,0,1-.71.36c-1.74.6-11.08,2.28-11.08,2.28l-3.65,1.27Z" style="fill:#fff"></path><polygon points="276.37 115.75 282.71 129.77 286.33 128.51 281.39 114.33 276.37 115.75" style="fill:#fff"></polygon><path d="M324.06,196.18a.48.48,0,0,1-.06.22c-.43,1-2.45,3.83-3.14,3.69s-1.83,0-1.51-1.82a29.6,29.6,0,0,1,2.33-3.91s.54-.66,2.07-.07C324.69,194.66,324.06,196.18,324.06,196.18Z" style="fill:#a56959"></path><path d="M322.07,193.12a.53.53,0,0,1-.07.24c-.5,1.16-3.23,5.86-3.92,5.74s-2.19-1.42-1.95-2.11,3.61-5.81,3.61-5.81.59-.78,2.12-.19C322.8,191.35,322.07,193.12,322.07,193.12Z" style="fill:#a56959"></path><path d="M319.76,190.7s0,.11-.07.25c-.49,1.15-3.23,5.86-3.92,5.73s-2.19-1.41-1.95-2.1,3.62-5.82,3.62-5.82.58-.77,2.11-.19C320.5,188.94,319.76,190.7,319.76,190.7Z" style="fill:#a56959"></path><path d="M317.44,188.35s0,.1-.07.24c-.5,1.15-3.23,5.86-3.92,5.74s-2.19-1.42-1.95-2.11,3.61-5.81,3.61-5.81.59-.78,2.12-.19C318.18,186.58,317.44,188.35,317.44,188.35Z" style="fill:#a56959"></path><path d="M318.77,198.9a10.3,10.3,0,0,0,1.52-2.19,10.73,10.73,0,0,0,1.21-2.32,10.07,10.07,0,0,0-1.52,2.18A10.67,10.67,0,0,0,318.77,198.9Z" style="fill:#7c4435"></path><path d="M316,197.34a19.58,19.58,0,0,0,2.11-3.13,20.47,20.47,0,0,0,1.82-3.32,22.47,22.47,0,0,0-2.11,3.14A21.64,21.64,0,0,0,316,197.34Z" style="fill:#7c4435"></path><g style="opacity:0.78"><path d="M313.69,194.46a15.16,15.16,0,0,0,1.89-2.61,14.76,14.76,0,0,0,1.6-2.79,16,16,0,0,0-1.89,2.62A14.87,14.87,0,0,0,313.69,194.46Z" style="fill:#7c4435"></path></g><path d="M309.7,205.55l-1-4.39a7.64,7.64,0,0,1,.9-5.61l.77-1.29,10,5.05s-2.79,2.9-5.2,1.06c1.63,2,1.65,5.7.61,8.59Z" style="fill:#a56959"></path><path d="M316.05,204.49c-.06,0,0-.5-.09-1.36a5,5,0,0,0-1.72-3l-.92-.73,1.12.36,2.48.8h-.05a2.91,2.91,0,0,0,2.87-1.19c.05-.08.09-.17.12-.22l.13.32c-2.76-1.25-5.24-2.42-7-3.37a14.64,14.64,0,0,1-2.73-1.67,25.12,25.12,0,0,1,2.89,1.35c1.78.86,4.27,2,7,3.22l.22.1-.08.22a3.18,3.18,0,0,1-.16.32,3,3,0,0,1-1.55,1.23,4,4,0,0,1-1.82.18h-.05l-2.47-.86.21-.37a4.93,4.93,0,0,1,1.7,3.3A2.62,2.62,0,0,1,316.05,204.49Z" style="fill:#7c4435"></path><path d="M319.64,197.8c.1,0-.14.52-.08,1.24a.91.91,0,0,0,.64.83,1.39,1.39,0,0,0,1.24-.62c.73-.95,1.46-1.8,1.91-2.43s.7-1.07.78-1-.08.51-.47,1.23a24.06,24.06,0,0,1-1.83,2.57,1.79,1.79,0,0,1-1.73.74,1.27,1.27,0,0,1-.91-1.27,2.13,2.13,0,0,1,.24-1C319.53,197.88,319.61,197.78,319.64,197.8Z" style="fill:#7c4435"></path><path d="M191,199.84s13.83,27.18,15.87,27.57S217.41,211,217.41,211l12.89,10.23s-8.41,19.9-21.48,25.87c-6.6,3-19.27-20.47-27.46-39L177,197.79" style="fill:#a56959"></path><path d="M192.71,205.06s-.35-1.38-1.7-5.22l.14-9.77s-1.69-1.2-2,3.27a2.19,2.19,0,0,1-4.31.19,3.52,3.52,0,0,1,5.13-4s1.34-.5,1-1.57-4.43-2.12-6.53-.19a8.28,8.28,0,0,0-2,2.87s-3.51-8.47-4.21-8.22-1.38,1.21,2.54,10.46c0,0-3.77-7-4.36-7.8s-2.11-.85-1.14,1.5l3.1,7.47s-3.07-4.23-3.34-4.56c-.71-.86-1.62-.28-1.07,1.05l2.15,5.34,5.74,13.17-.09,0" style="fill:#a56959"></path><path d="M180.53,198.52s.33.08.83.27a4,4,0,0,1,1.7,1.22l.15.17.06-.22a6.27,6.27,0,0,1,.29-.74,5.21,5.21,0,0,1,1.75-2c.57-.38,1-.51,1-.55a2.44,2.44,0,0,0-1.07.4,4.8,4.8,0,0,0-1.88,2,5.1,5.1,0,0,0-.3.79l.21-.05a3.85,3.85,0,0,0-1.84-1.21A2,2,0,0,0,180.53,198.52Z" style="fill:#7c4435"></path><path d="M241,148.22a8.44,8.44,0,0,0-8.82-4.09,11.09,11.09,0,0,0-7.81,6.26,16.44,16.44,0,0,0-1,10.18c.65,3.42,2.12,7,.95,10.26a11.16,11.16,0,0,1-4,4.83,42.66,42.66,0,0,0-5,3.91,7.38,7.38,0,0,0-2.41,5.69c.21,2.12,2.14,4.11,4.25,3.83-3,2.3-3.66,6.76-2.25,10.23s4.56,6,8,7.52c2.82,1.24,6.07,1.88,9,.88a11.13,11.13,0,0,0,6.35-6.49,24.88,24.88,0,0,0,1.5-9.19c.07-5.07-.48-10.34-3.09-14.68.29,1.72,2.53,2.63,4.11,1.89a4.38,4.38,0,0,0,2.22-4.38,8.51,8.51,0,0,0-2.26-4.62c-1.14-1.33-2.48-2.46-3.63-3.77-2.29-2.61-3.8-6.12-3.25-9.54s3.62-6.52,7.08-6.35" style="fill:#263238"></path><path d="M215.79,175.8s.1-.18.19-.56a2.37,2.37,0,0,0-.25-1.6,2.16,2.16,0,0,0-2.11-1.18,2.75,2.75,0,0,0-2.42,2,3.39,3.39,0,0,0,1.5,3.55,4.76,4.76,0,0,0,4.57.2,8.25,8.25,0,0,0,3.76-3.68,11.59,11.59,0,0,0,1.32-5.59,21.14,21.14,0,0,0-1.09-5.74,17.18,17.18,0,0,1-.87-5.51,13,13,0,0,1,3.94-8.43,18.26,18.26,0,0,1,5.22-3.57c.68-.31,1.23-.51,1.6-.65a2.38,2.38,0,0,1,.58-.16,4.35,4.35,0,0,1-.54.26c-.36.16-.89.39-1.55.73a19.24,19.24,0,0,0-5,3.65,12.77,12.77,0,0,0-3.72,8.19,16.92,16.92,0,0,0,.88,5.35,21.37,21.37,0,0,1,1.12,5.87,12.05,12.05,0,0,1-1.39,5.84,8.74,8.74,0,0,1-4,3.88,5.22,5.22,0,0,1-5-.28,3.78,3.78,0,0,1-1.62-4,3.05,3.05,0,0,1,2.76-2.25,2.36,2.36,0,0,1,1.48.4,2.61,2.61,0,0,1,.83,1,2.36,2.36,0,0,1,.17,1.72A1.27,1.27,0,0,1,215.79,175.8Z" style="fill:#263238"></path><path d="M176.83,443.88l-.7,2.66s-9.63,15.67-8.49,17.13a6.16,6.16,0,0,0,6.68,2.09c3.35-.84,17.49-14.28,17.49-14.28l.81-2.14Z" style="fill:#FC6423"></path><g style="opacity:0.30000000000000004"><path d="M168.6,460.12s4.17-1.84,6.57,3.54c0,0,1.81-.67,6.81-4.86s9.83-8.28,9.83-8.28.52-.41.36,0-.36,1.14-.36,1.14l-9.65,8.51s-5.79,5-7.24,5.35-2.91.89-4.75.06a5.09,5.09,0,0,1-2.75-2.38C167.42,463,168.6,460.12,168.6,460.12Z"></path></g><path d="M175.73,465.43s-.15-.54-.51-1.34a7.68,7.68,0,0,0-2-2.7,7.51,7.51,0,0,0-3-1.51c-.85-.21-1.41-.21-1.4-.27a3.62,3.62,0,0,1,1.45.06,6.88,6.88,0,0,1,3.16,1.48,7,7,0,0,1,2,2.86A3.32,3.32,0,0,1,175.73,465.43Z" style="fill:#263238"></path><path d="M192.62,449.84a1.3,1.3,0,0,1-.23.23l-.67.6-2.51,2.17-8.37,7.09a35.68,35.68,0,0,1-4.82,3.66,7.77,7.77,0,0,1-4.79,1.14,5,5,0,0,1-3-1.5,2.8,2.8,0,0,1-.64-1.05,5.66,5.66,0,0,0,.73,1,4.84,4.84,0,0,0,2.9,1.37,7.68,7.68,0,0,0,4.62-1.17,36.84,36.84,0,0,0,4.76-3.66l8.43-7,2.57-2.09.71-.56Q192.61,449.83,192.62,449.84Z" style="fill:#263238"></path><path d="M177.36,456.43a10.44,10.44,0,0,1-1.78-1.11,10.63,10.63,0,0,1-1.73-1.18,5.32,5.32,0,0,1,1.9.92A5.54,5.54,0,0,1,177.36,456.43Z" style="fill:#263238"></path><path d="M179.43,454.18a14.63,14.63,0,0,1-2.19-.91,15.32,15.32,0,0,1-2.15-1,10.76,10.76,0,0,1,4.34,1.91Z" style="fill:#263238"></path><path d="M181.34,452.24c-.06.07-.93-.69-2.2-1.31s-2.39-.85-2.38-.94a5.07,5.07,0,0,1,2.52.66A5.14,5.14,0,0,1,181.34,452.24Z" style="fill:#263238"></path><path d="M182.46,449.94c-.06.08-.87-.51-2-1s-2.1-.71-2.08-.8a6.08,6.08,0,0,1,4.06,1.81Z" style="fill:#263238"></path><path d="M182,447.77a3.93,3.93,0,0,1-1.19-.8,9,9,0,0,1-1.09-1.12,7.45,7.45,0,0,1-.54-.74,1.67,1.67,0,0,1-.25-.46.62.62,0,0,1,.1-.62,1,1,0,0,1,1.09-.12,2.08,2.08,0,0,1,.8.55,3,3,0,0,1,.73,1.41,4.47,4.47,0,0,1,.1,1.05c0,.25,0,.38-.06.38s0-.55-.26-1.38a2.86,2.86,0,0,0-.72-1.26,2.15,2.15,0,0,0-.7-.47.73.73,0,0,0-.75.05c-.15.16,0,.45.17.7a8.54,8.54,0,0,0,.52.73,10.11,10.11,0,0,0,1,1.14C181.56,447.41,182,447.73,182,447.77Z" style="fill:#263238"></path><path d="M181.76,447.49a1,1,0,0,1,.11-.38,4.13,4.13,0,0,1,.57-.92,4.17,4.17,0,0,1,1.27-1,4,4,0,0,1,.9-.34,1.32,1.32,0,0,1,.56,0,.62.62,0,0,1,.46.45,1.29,1.29,0,0,1-.42,1,4,4,0,0,1-.73.64,3.74,3.74,0,0,1-1.5.59,3.25,3.25,0,0,1-1.08,0c-.25,0-.38-.1-.38-.12a7.3,7.3,0,0,0,1.42-.11,3.75,3.75,0,0,0,1.38-.61,3.7,3.7,0,0,0,.66-.6,1,1,0,0,0,.34-.75c0-.23-.36-.28-.65-.22a4,4,0,0,0-.84.3,4.23,4.23,0,0,0-1.22.89A12.3,12.3,0,0,0,181.76,447.49Z" style="fill:#263238"></path><path d="M189.88,448.58a2.5,2.5,0,0,0-1.36.08,5,5,0,0,0-2.43,2.21,5.4,5.4,0,0,0-.64,3.23c.1.87.33,1.37.28,1.39a2.84,2.84,0,0,1-.5-1.35,5.21,5.21,0,0,1,.59-3.43,4.82,4.82,0,0,1,2.63-2.26A1.52,1.52,0,0,1,189.88,448.58Z" style="fill:#263238"></path><path d="M184.17,454.9a16.58,16.58,0,0,1-3.46,2.94,8.55,8.55,0,0,1,1.63-1.59A8,8,0,0,1,184.17,454.9Z" style="fill:#263238"></path><path d="M186.08,453.88c.09,0,.2.2.26.46s0,.49-.05.52-.2-.18-.26-.46S186,453.89,186.08,453.88Z" style="fill:#263238"></path><path d="M186.32,451.91c.09,0,.1.26,0,.52s-.18.46-.26.45-.11-.24,0-.52S186.24,451.88,186.32,451.91Z" style="fill:#263238"></path><path d="M187.38,450.23c.07.07,0,.25-.2.47s-.35.35-.42.31,0-.27.17-.5S187.33,450.17,187.38,450.23Z" style="fill:#263238"></path><path d="M189.07,449.19c0,.08-.14.24-.38.35s-.47.15-.52.08.13-.24.39-.36S189.05,449.11,189.07,449.19Z" style="fill:#263238"></path><path d="M191.05,449c0,.08-.24.16-.5.16s-.49-.07-.5-.16.21-.15.5-.16S191.06,448.87,191.05,449Z" style="fill:#263238"></path><path d="M302.69,449.32l-.07-1.89-19.17.55.16,6.24,1.19,0c5.28.13,26.83.32,30.32-.77C319,452.28,302.69,449.32,302.69,449.32Z" style="fill:#FC6423"></path><g style="opacity:0.30000000000000004"><path d="M290.53,453.9a6.15,6.15,0,0,0-2.55-3.72,6.75,6.75,0,0,0-4.5-1.17l.15,5Z"></path></g><g style="opacity:0.30000000000000004"><path d="M310.68,451s5.73,1.37,5.05,2.26-22.48,1.46-32.12.93l0-.4,25.43-.46S309.57,451.1,310.68,451Z"></path></g><path d="M283.33,453.82l.33,0,.95,0,3.47.05c2.93,0,7,0,11.46-.11s8.52-.3,11.45-.47l3.47-.23.94-.08.32,0h-.33l-.94,0-3.47.15c-2.93.14-7,.3-11.45.41s-8.52.16-11.45.18l-3.47,0h-.95Z" style="fill:#263238"></path><path d="M309.06,453.63a4.63,4.63,0,0,1,1.75-2.82,2.54,2.54,0,0,0-1.35,1.16A2.29,2.29,0,0,0,309.06,453.63Z" style="fill:#263238"></path><path d="M303.35,451.12c.06,0,.32-.28.58-.69s.44-.78.38-.81-.31.28-.58.7S303.3,451.09,303.35,451.12Z" style="fill:#263238"></path><path d="M301.78,450.41c.05,0,.34-.16.66-.44s.55-.55.5-.59-.34.15-.66.43S301.74,450.36,301.78,450.41Z" style="fill:#263238"></path><path d="M300.75,448.76a4.6,4.6,0,0,0,2,0,2.6,2.6,0,0,0-1-.09A2.39,2.39,0,0,0,300.75,448.76Z" style="fill:#263238"></path><path d="M300.38,447.58a2,2,0,0,0,1.12.28,2,2,0,0,0,1.15-.18,7.2,7.2,0,0,0-1.14,0A7.44,7.44,0,0,0,300.38,447.58Z" style="fill:#263238"></path><path d="M304,449.56a3.79,3.79,0,0,0,1.23,0,7.8,7.8,0,0,0,1.29-.3,3.54,3.54,0,0,0,.74-.31.68.68,0,0,0,.3-.36.45.45,0,0,0-.2-.45,2.37,2.37,0,0,0-2.77.68,1.91,1.91,0,0,0-.37.78.58.58,0,0,0,0,.3,3.34,3.34,0,0,1,.53-1,2.14,2.14,0,0,1,1-.66,2.07,2.07,0,0,1,1.47,0c.2.13.13.34-.09.47a3,3,0,0,1-.68.29,9.2,9.2,0,0,1-1.25.34C304.42,449.51,304,449.52,304,449.56Z" style="fill:#263238"></path><path d="M304.27,449.61a1.08,1.08,0,0,0,.12-.8A1.88,1.88,0,0,0,304,448a1.28,1.28,0,0,0-1-.56.46.46,0,0,0-.36.54,1.09,1.09,0,0,0,.22.5,3.42,3.42,0,0,0,.6.68,1.76,1.76,0,0,0,.72.44s-.25-.2-.6-.55a3.5,3.5,0,0,1-.54-.67c-.17-.24-.3-.67,0-.73a1.13,1.13,0,0,1,.83.47,1.87,1.87,0,0,1,.37.73A4.38,4.38,0,0,1,304.27,449.61Z" style="fill:#263238"></path><path d="M283.58,449s.54-.07,1.41,0a6.61,6.61,0,0,1,3.11,1.1,5.86,5.86,0,0,1,2,2.48c.31.75.36,1.26.4,1.26a1,1,0,0,0,0-.36,4.67,4.67,0,0,0-.24-.95,5.49,5.49,0,0,0-2-2.6,6.21,6.21,0,0,0-3.24-1.08,5.84,5.84,0,0,0-1.05.06C283.7,448.9,283.57,448.94,283.58,449Z" style="fill:#263238"></path><path d="M292.88,452.1a11.06,11.06,0,0,0,2.79.19,12.3,12.3,0,0,0,2.79-.28c0-.07-1.25,0-2.79.06S292.89,452,292.88,452.1Z" style="fill:#263238"></path><path d="M289.14,452.2c-.05,0,.11.24.24.5s.22.5.28.49.09-.28-.07-.58S289.18,452.15,289.14,452.2Z" style="fill:#263238"></path><path d="M287.68,450.6s.08.23.29.41.4.29.45.25-.09-.23-.29-.41S287.72,450.56,287.68,450.6Z" style="fill:#263238"></path><path d="M285.64,449.91c0,.06.27,0,.55.14s.49.21.54.17-.12-.28-.47-.38S285.62,449.86,285.64,449.91Z" style="fill:#263238"></path><path d="M284.19,449.6s.09.14.25.19.31,0,.33,0-.09-.15-.25-.2S284.21,449.54,284.19,449.6Z" style="fill:#263238"></path><path d="M304,448,281.47,284.53h0L280.83,274l-56.44-2.68L222,280.19c-7.92,27.92-47.94,162.93-47.94,162.93l19.55,6.17,58.2-154.7,27.09,153.12Z" style="fill:#263238"></path><path d="M278,272.4c-.15,0-.3-.31-.34-.72s.05-.76.19-.77.29.31.33.72S278.1,272.39,278,272.4Z" style="fill:#455a64"></path><path d="M278.55,278.35c-.15,0-.33-.64-.41-1.46s0-1.5.11-1.52.32.64.41,1.47S278.69,278.33,278.55,278.35Z" style="fill:#455a64"></path><path d="M279.16,284.29c-.14,0-.32-.63-.41-1.45s0-1.5.1-1.52.33.64.42,1.46S279.31,284.28,279.16,284.29Z" style="fill:#455a64"></path><path d="M279.81,290.24c-.15,0-.34-.64-.43-1.46s0-1.5.1-1.51.33.63.42,1.45S280,290.22,279.81,290.24Z" style="fill:#455a64"></path><path d="M280.47,296.18c-.14,0-.33-.64-.43-1.46s-.05-1.5.09-1.51.34.63.43,1.45S280.61,296.16,280.47,296.18Z" style="fill:#455a64"></path><path d="M281.15,302.12c-.14,0-.33-.64-.43-1.46s-.05-1.5.09-1.51.33.63.43,1.45S281.3,302.1,281.15,302.12Z" style="fill:#455a64"></path><path d="M281.86,308.05c-.15,0-.34-.63-.44-1.45s-.06-1.5.08-1.52.34.64.44,1.46S282,308,281.86,308.05Z" style="fill:#455a64"></path><path d="M282.58,314c-.15,0-.34-.64-.44-1.46s-.07-1.49.07-1.51.34.63.44,1.45S282.72,314,282.58,314Z" style="fill:#455a64"></path><path d="M283.31,319.92c-.14,0-.34-.63-.44-1.45s-.07-1.5.07-1.52.34.63.45,1.45S283.46,319.9,283.31,319.92Z" style="fill:#455a64"></path><path d="M284.06,325.85c-.14,0-.34-.63-.44-1.45s-.08-1.5.07-1.52.34.64.44,1.45S284.21,325.83,284.06,325.85Z" style="fill:#455a64"></path><path d="M284.83,331.78c-.15,0-.35-.63-.45-1.45s-.08-1.5.06-1.52.35.63.45,1.45S285,331.76,284.83,331.78Z" style="fill:#455a64"></path><path d="M285.6,337.71c-.14,0-.34-.63-.45-1.45s-.08-1.5.06-1.52.35.63.46,1.45S285.74,337.69,285.6,337.71Z" style="fill:#455a64"></path><path d="M286.38,343.63c-.14,0-.34-.63-.45-1.44s-.08-1.5.06-1.52.35.63.46,1.45S286.53,343.61,286.38,343.63Z" style="fill:#455a64"></path><path d="M287.17,349.56c-.14,0-.34-.63-.45-1.45s-.08-1.5.06-1.51.34.62.45,1.44S287.32,349.54,287.17,349.56Z" style="fill:#455a64"></path><path d="M288,355.48c-.14,0-.35-.62-.46-1.44s-.08-1.5.06-1.52.35.63.46,1.45S288.11,355.46,288,355.48Z" style="fill:#455a64"></path><path d="M288.77,361.41c-.14,0-.35-.63-.46-1.45s-.08-1.49.06-1.51.35.62.46,1.44S288.91,361.39,288.77,361.41Z" style="fill:#455a64"></path><path d="M289.57,367.33c-.14,0-.34-.63-.46-1.44s-.08-1.5.06-1.52.35.63.46,1.45S289.72,367.31,289.57,367.33Z" style="fill:#455a64"></path><path d="M290.4,373.25c-.15,0-.36-.63-.47-1.45s-.1-1.49,0-1.51.36.63.47,1.44S290.54,373.23,290.4,373.25Z" style="fill:#455a64"></path><path d="M291.27,379.15c-.14,0-.36-.62-.48-1.43s-.1-1.5,0-1.52.36.62.48,1.44S291.41,379.13,291.27,379.15Z" style="fill:#455a64"></path><path d="M292.16,385.06c-.14,0-.36-.62-.48-1.44s-.11-1.49,0-1.51.36.62.48,1.43S292.3,385,292.16,385.06Z" style="fill:#455a64"></path><path d="M293.05,391c-.14,0-.36-.62-.48-1.44s-.11-1.49,0-1.51.36.62.49,1.43S293.19,391,293.05,391Z" style="fill:#455a64"></path><path d="M294,396.87c-.15,0-.36-.62-.48-1.44s-.11-1.49,0-1.51.36.62.48,1.44S294.09,396.85,294,396.87Z" style="fill:#455a64"></path><path d="M294.84,402.77c-.14,0-.35-.62-.48-1.43s-.11-1.5,0-1.52.35.62.48,1.44S295,402.75,294.84,402.77Z" style="fill:#455a64"></path><path d="M295.74,408.68c-.14,0-.36-.62-.48-1.44s-.11-1.49,0-1.51.36.62.49,1.43S295.88,408.66,295.74,408.68Z" style="fill:#455a64"></path><path d="M296.64,414.59c-.14,0-.36-.62-.48-1.44s-.11-1.49,0-1.51.36.62.49,1.44S296.78,414.57,296.64,414.59Z" style="fill:#455a64"></path><path d="M297.54,420.5c-.14,0-.36-.62-.48-1.43s-.11-1.5,0-1.52.36.62.48,1.44S297.68,420.48,297.54,420.5Z" style="fill:#455a64"></path><path d="M298.44,426.41c-.14,0-.36-.62-.48-1.43s-.11-1.5,0-1.52.36.62.48,1.44S298.58,426.39,298.44,426.41Z" style="fill:#455a64"></path><path d="M299.33,432.33c-.14,0-.35-.63-.48-1.44s-.11-1.5,0-1.52.35.62.48,1.44S299.48,432.3,299.33,432.33Z" style="fill:#455a64"></path><path d="M300.22,438.24c-.14,0-.35-.62-.48-1.44s-.1-1.5,0-1.52.36.63.48,1.44S300.37,438.22,300.22,438.24Z" style="fill:#455a64"></path><path d="M301.11,444.16c-.15,0-.36-.63-.48-1.44s-.11-1.5,0-1.52.35.62.47,1.44S301.25,444.14,301.11,444.16Z" style="fill:#455a64"></path><path d="M301.75,448.63c-.14,0-.31-.29-.36-.7s0-.76.15-.78.31.3.36.71S301.89,448.61,301.75,448.63Z" style="fill:#455a64"></path><path d="M192.26,445c.13,0,.15.4,0,.79s-.34.68-.47.64-.15-.4,0-.8S192.12,445,192.26,445Z" style="fill:#455a64"></path><path d="M194.1,439.23c.14,0,0,.73-.21,1.53s-.58,1.41-.71,1.36,0-.72.21-1.52S194,439.19,194.1,439.23Z" style="fill:#455a64"></path><path d="M196,433.45c.14.05,0,.73-.22,1.53s-.58,1.4-.72,1.36,0-.73.22-1.52S195.85,433.41,196,433.45Z" style="fill:#455a64"></path><path d="M197.89,427.68c.14.05,0,.73-.23,1.53s-.59,1.4-.73,1.36,0-.73.23-1.53S197.75,427.64,197.89,427.68Z" style="fill:#455a64"></path><path d="M199.83,421.92c.13.05,0,.73-.24,1.53s-.6,1.4-.73,1.35,0-.73.23-1.52S199.69,421.88,199.83,421.92Z" style="fill:#455a64"></path><path d="M201.79,416.17c.14.05,0,.73-.25,1.52s-.6,1.4-.73,1.36,0-.73.24-1.53S201.65,416.12,201.79,416.17Z" style="fill:#455a64"></path><path d="M203.78,410.43c.14,0,0,.73-.25,1.52s-.61,1.4-.75,1.35,0-.73.26-1.52S203.64,410.38,203.78,410.43Z" style="fill:#455a64"></path><path d="M205.79,404.69c.14.05,0,.73-.25,1.52s-.62,1.4-.76,1.35,0-.73.26-1.52S205.66,404.64,205.79,404.69Z" style="fill:#455a64"></path><path d="M207.83,399c.14.05,0,.73-.26,1.52s-.62,1.39-.76,1.34,0-.72.27-1.51S207.7,398.91,207.83,399Z" style="fill:#455a64"></path><path d="M209.89,393.24c.13.05,0,.73-.27,1.52s-.63,1.39-.76,1.34,0-.73.27-1.52S209.75,393.19,209.89,393.24Z" style="fill:#455a64"></path><path d="M212,387.52c.13.05,0,.73-.28,1.52s-.63,1.39-.76,1.34,0-.73.27-1.52S211.83,387.47,212,387.52Z" style="fill:#455a64"></path><path d="M214.07,381.81c.13.05,0,.73-.29,1.52s-.63,1.39-.77,1.34,0-.73.29-1.52S213.93,381.76,214.07,381.81Z" style="fill:#455a64"></path><path d="M216.18,376.11c.14.05,0,.73-.29,1.52s-.63,1.38-.77,1.33,0-.73.29-1.51S216.05,376.06,216.18,376.11Z" style="fill:#455a64"></path><path d="M218.31,370.41c.14,0,0,.73-.29,1.52s-.64,1.38-.78,1.33,0-.73.29-1.51S218.18,370.36,218.31,370.41Z" style="fill:#455a64"></path><path d="M220.46,364.72c.13,0,0,.73-.3,1.52s-.64,1.38-.78,1.33,0-.73.3-1.52S220.32,364.67,220.46,364.72Z" style="fill:#455a64"></path><path d="M222.62,359c.13.05,0,.73-.3,1.52s-.65,1.38-.79,1.33,0-.73.3-1.52S222.48,359,222.62,359Z" style="fill:#455a64"></path><path d="M224.79,353.35c.13,0,0,.73-.3,1.51s-.66,1.38-.79,1.33,0-.73.3-1.51S224.65,353.3,224.79,353.35Z" style="fill:#455a64"></path><path d="M227,347.67c.13.05,0,.73-.31,1.51s-.65,1.38-.78,1.33,0-.73.3-1.51S226.83,347.62,227,347.67Z" style="fill:#455a64"></path><path d="M229.16,342c.13.06,0,.73-.31,1.52s-.65,1.37-.79,1.32,0-.73.31-1.51S229,341.94,229.16,342Z" style="fill:#455a64"></path><path d="M231.36,336.32c.13.05,0,.73-.31,1.51s-.66,1.38-.79,1.33,0-.73.3-1.51S231.22,336.27,231.36,336.32Z" style="fill:#455a64"></path><path d="M233.56,330.65c.13.06,0,.73-.31,1.51s-.66,1.38-.79,1.33,0-.73.31-1.51S233.43,330.6,233.56,330.65Z" style="fill:#455a64"></path><path d="M235.77,325c.13.05,0,.73-.31,1.51s-.66,1.37-.79,1.32,0-.73.31-1.51S235.64,324.93,235.77,325Z" style="fill:#455a64"></path><path d="M238,319.32c.14.05,0,.73-.31,1.51s-.66,1.38-.79,1.32,0-.72.31-1.51S237.85,319.27,238,319.32Z" style="fill:#455a64"></path><path d="M240.2,313.66c.13,0,0,.73-.31,1.51s-.66,1.37-.8,1.32,0-.73.31-1.51S240.07,313.61,240.2,313.66Z" style="fill:#455a64"></path><path d="M242.52,308c.13.06,0,.73-.35,1.5s-.7,1.35-.83,1.3,0-.73.35-1.5S242.39,308,242.52,308Z" style="fill:#455a64"></path><path d="M245.13,302.55c.12.07-.08.73-.45,1.48s-.78,1.3-.91,1.24.07-.72.45-1.48S245,302.48,245.13,302.55Z" style="fill:#455a64"></path><path d="M248.36,297.4c.11.1-.18.72-.65,1.4s-1,1.18-1.08,1.1.17-.7.65-1.4S248.25,297.31,248.36,297.4Z" style="fill:#455a64"></path><path d="M251.84,294.59c0,.14-.23.34-.57.52s-.67.28-.76.16.13-.42.52-.62S251.8,294.45,251.84,294.59Z" style="fill:#455a64"></path><path d="M277,264.19s-3-10.21-4.62-15.85a30.94,30.94,0,0,1-1.14-7l-.24-5.11.85-4.32,2.76,3.2,13.47-14.07c.25.34-6.1-8.88-12.53-17.9-4.48-6.28-8.86-8-11.69-8.24a10.85,10.85,0,0,0-4.09-.36l-23.18-.2a21.91,21.91,0,0,0-13.83,5.07c-1.07.88-9.95,12.69-16,24.36l18.65,13.46,3.07-5.4,0,.32c.24,1.92.83,5,1.28,6.9C231.25,245,232,252.85,229,258a141.52,141.52,0,0,0-5.34,16h57.19S279,269,277,264.19Z" style="fill:#FC6423"></path><path d="M238.15,201.88s.13.07.27.31a1.75,1.75,0,0,1,.14,1.18,2.92,2.92,0,0,1-1,1.58c-.56.48-1.23.93-2,1.47-1.48,1.08-3.2,2.34-5.11,3.72a11.83,11.83,0,0,1-3.26,1.94,3.71,3.71,0,0,1-2.09,0,2.61,2.61,0,0,1-1.64-1.46,3.94,3.94,0,0,1,.74-4,11.21,11.21,0,0,1,3-2.32l2.9-1.72a25.54,25.54,0,0,1,2.59-1.44,20.53,20.53,0,0,1,2.32-.82,3.29,3.29,0,0,1,1.86.31c1,.46,1.16,1.1,1.12,1.09a2.83,2.83,0,0,0-1.2-.91,3.15,3.15,0,0,0-1.72-.2,21.53,21.53,0,0,0-2.23.86c-.8.36-1.6.94-2.52,1.48l-2.87,1.76a10.78,10.78,0,0,0-2.86,2.23,3.43,3.43,0,0,0-.66,3.48,2,2,0,0,0,1.31,1.17,3.12,3.12,0,0,0,1.79,0,11.78,11.78,0,0,0,3.14-1.84l5.17-3.63c.73-.52,1.43-1,2-1.4a2.69,2.69,0,0,0,1-1.4A1.75,1.75,0,0,0,238.15,201.88Z" style="fill:#e0e0e0"></path><path d="M282.15,220.75a.73.73,0,0,1,0,.42,1.81,1.81,0,0,1-.7,1,2.92,2.92,0,0,1-1.81.47c-.74,0-1.54-.14-2.43-.23l-6.28-.74a11.71,11.71,0,0,1-3.71-.79,3.68,3.68,0,0,1-1.57-1.39,2.58,2.58,0,0,1-.21-2.17,3.94,3.94,0,0,1,3.26-2.45,11.42,11.42,0,0,1,3.79.33l3.3.71a25.4,25.4,0,0,1,2.88.69,19.59,19.59,0,0,1,2.26,1,3.1,3.1,0,0,1,1.15,1.49,1.86,1.86,0,0,1,.09,1.56,3,3,0,0,0-.27-1.48,3.05,3.05,0,0,0-1.12-1.32,22.61,22.61,0,0,0-2.23-.88,27.41,27.41,0,0,0-2.85-.62l-3.31-.66a11.22,11.22,0,0,0-3.62-.3,3.46,3.46,0,0,0-2.84,2.12,2,2,0,0,0,.17,1.74,3.24,3.24,0,0,0,1.34,1.2,11.82,11.82,0,0,0,3.55.77l6.26.84c.89.11,1.7.26,2.4.31a2.78,2.78,0,0,0,1.69-.35A1.78,1.78,0,0,0,282.15,220.75Z" style="fill:#e0e0e0"></path><path d="M271,200.92s.13.07.27.31a1.75,1.75,0,0,1,.14,1.18,2.89,2.89,0,0,1-1,1.58c-.56.48-1.23.94-1.95,1.48l-5.1,3.72a12.3,12.3,0,0,1-3.27,1.94,3.71,3.71,0,0,1-2.09,0,2.55,2.55,0,0,1-1.63-1.45,3.94,3.94,0,0,1,.73-4,11.16,11.16,0,0,1,3-2.32l2.9-1.73a27.65,27.65,0,0,1,2.59-1.44,19.8,19.8,0,0,1,2.33-.81,3.17,3.17,0,0,1,1.85.3c1,.47,1.16,1.11,1.13,1.1a2.92,2.92,0,0,0-1.21-.91,3.05,3.05,0,0,0-1.72-.21c-.63.2-1.43.52-2.23.87a28.23,28.23,0,0,0-2.51,1.47l-2.88,1.77a10.78,10.78,0,0,0-2.86,2.23,3.43,3.43,0,0,0-.66,3.48,2.07,2.07,0,0,0,1.31,1.16,3.15,3.15,0,0,0,1.8,0,12.16,12.16,0,0,0,3.13-1.84c1.92-1.36,3.67-2.58,5.17-3.63.73-.52,1.43-1,2-1.4a2.82,2.82,0,0,0,1-1.4A1.81,1.81,0,0,0,271,200.92Z" style="fill:#e0e0e0"></path><path d="M218.66,215.48s.1-.12.37-.2a1.71,1.71,0,0,1,1.18.12,2.92,2.92,0,0,1,1.32,1.33c.35.65.64,1.4,1,2.22l2.52,5.79a12.25,12.25,0,0,1,1.18,3.61,3.62,3.62,0,0,1-.42,2.05,2.57,2.57,0,0,1-1.77,1.28,3.93,3.93,0,0,1-3.76-1.59,11.16,11.16,0,0,1-1.61-3.44c-.37-1.12-.72-2.2-1.05-3.21a25.31,25.31,0,0,1-.84-2.84,18.17,18.17,0,0,1-.3-2.44,3.28,3.28,0,0,1,.71-1.75c.66-.83,1.32-.89,1.31-.86a2.86,2.86,0,0,0-1.15,1,3.11,3.11,0,0,0-.58,1.63c.06.67.2,1.51.37,2.37a25.73,25.73,0,0,0,.89,2.77c.34,1,.71,2.08,1.1,3.2a10.82,10.82,0,0,0,1.55,3.28,3.46,3.46,0,0,0,3.26,1.39,2,2,0,0,0,1.42-1,3.16,3.16,0,0,0,.36-1.76,11.87,11.87,0,0,0-1.11-3.46c-.91-2.17-1.72-4.15-2.42-5.84-.35-.82-.63-1.6-.94-2.22a2.74,2.74,0,0,0-1.15-1.29A1.74,1.74,0,0,0,218.66,215.48Z" style="fill:#e0e0e0"></path><path d="M245.1,213.38a.72.72,0,0,1,.45.07,1.83,1.83,0,0,1,.93.93,2.41,2.41,0,0,1,.15.43.71.71,0,0,0,.26.3,7.34,7.34,0,0,0,.94.52,20.2,20.2,0,0,1,2.43,1.21,1.11,1.11,0,0,1,.32.3.39.39,0,0,1,.1.29c0,.13,0,.15-.05.23a3.26,3.26,0,0,1-.31.78,7.1,7.1,0,0,1-1,1.41c-.79.9-1.73,1.73-2.66,2.65a6.41,6.41,0,0,0-2.09,3.32,8.71,8.71,0,0,1-.72,2.12,3.82,3.82,0,0,1-1.66,1.69,2.61,2.61,0,0,1-2.4,0,3.79,3.79,0,0,1-1.56-1.71,6.16,6.16,0,0,1,0-4.21c.77-2.54,1.5-4.76,2.15-6.67a21.41,21.41,0,0,1,1.23-2.41,3,3,0,0,1,1.65-1.26,2,2,0,0,1,1.72,0,2.87,2.87,0,0,0-1.65.17,2.82,2.82,0,0,0-1.46,1.21,22.57,22.57,0,0,0-1.15,2.4c-.58,1.87-1.3,4.17-2,6.67a5.78,5.78,0,0,0,0,3.87,3.23,3.23,0,0,0,1.35,1.46,2.07,2.07,0,0,0,1.92,0,3.31,3.31,0,0,0,1.43-1.46,8.77,8.77,0,0,0,.69-2,5.35,5.35,0,0,1,.32-1.06,5.83,5.83,0,0,1,.56-.94,12,12,0,0,1,1.37-1.54c.94-.93,1.89-1.74,2.66-2.59a7.26,7.26,0,0,0,1-1.32,3.24,3.24,0,0,0,.29-.7s.06-.14,0-.14,0,0,0,0l0-.05a1,1,0,0,0-.23-.22,22.48,22.48,0,0,0-2.34-1.24,6.78,6.78,0,0,1-1-.58.85.85,0,0,1-.33-.45,2.34,2.34,0,0,0-.12-.4,1.69,1.69,0,0,0-.78-.91A3.4,3.4,0,0,0,245.1,213.38Z" style="fill:#e0e0e0"></path><path d="M255,223s.06-.14.3-.28a1.73,1.73,0,0,1,1.17-.18,2.9,2.9,0,0,1,1.61,1c.5.54,1,1.19,1.53,1.9l3.87,5a11.76,11.76,0,0,1,2,3.2,3.74,3.74,0,0,1,.1,2.1,2.58,2.58,0,0,1-1.41,1.67,4,4,0,0,1-4-.62,11.13,11.13,0,0,1-2.4-2.94L256,231a27.52,27.52,0,0,1-1.52-2.55,20.76,20.76,0,0,1-.88-2.3,3.18,3.18,0,0,1,.25-1.86c.44-1,1.07-1.19,1.06-1.16a3.05,3.05,0,0,0-.87,1.24,3.17,3.17,0,0,0-.16,1.72c.22.63.56,1.41.93,2.2a28.5,28.5,0,0,0,1.55,2.47l1.85,2.83a11,11,0,0,0,2.31,2.8,3.47,3.47,0,0,0,3.5.55,2.1,2.1,0,0,0,1.13-1.34,3.25,3.25,0,0,0-.08-1.8,12,12,0,0,0-1.93-3.07l-3.78-5.07c-.54-.71-1-1.4-1.46-1.93a2.75,2.75,0,0,0-1.43-1A1.68,1.68,0,0,0,255,223Z" style="fill:#e0e0e0"></path><path d="M233.38,241.53a.76.76,0,0,1,.08-.41,1.81,1.81,0,0,1,.84-.84,2.92,2.92,0,0,1,1.87-.17c.72.14,1.49.38,2.36.62l6.08,1.73a12.26,12.26,0,0,1,3.54,1.37,3.67,3.67,0,0,1,1.32,1.63,2.57,2.57,0,0,1-.14,2.18,3.93,3.93,0,0,1-3.61,1.89,11.12,11.12,0,0,1-3.68-.93l-3.15-1.23a26.09,26.09,0,0,1-2.73-1.15,19.82,19.82,0,0,1-2.08-1.33,3.17,3.17,0,0,1-.9-1.65,1.81,1.81,0,0,1,.17-1.55,2.8,2.8,0,0,0,0,1.5,3.16,3.16,0,0,0,.89,1.48,22.07,22.07,0,0,0,2.06,1.22A28.31,28.31,0,0,0,239,247l3.17,1.18a11,11,0,0,0,3.52.87,3.43,3.43,0,0,0,3.14-1.63,2,2,0,0,0,.11-1.74,3.1,3.1,0,0,0-1.13-1.4,11.74,11.74,0,0,0-3.38-1.33l-6-1.84c-.86-.25-1.64-.53-2.32-.69a2.79,2.79,0,0,0-1.72.07A1.79,1.79,0,0,0,233.38,241.53Z" style="fill:#e0e0e0"></path><path d="M266,264.42a.65.65,0,0,1-.4.09,1.7,1.7,0,0,1-1.11-.43,2.87,2.87,0,0,1-.91-1.64c-.17-.71-.25-1.52-.39-2.41-.25-1.81-.55-3.92-.87-6.26a12.1,12.1,0,0,1-.17-3.79,3.67,3.67,0,0,1,1-1.86,2.57,2.57,0,0,1,2-.76,4,4,0,0,1,3.19,2.55,11.47,11.47,0,0,1,.63,3.74c0,1.19.1,2.31.15,3.38a27,27,0,0,1,0,3,18.94,18.94,0,0,1-.37,2.43,3.19,3.19,0,0,1-1.15,1.49,1.87,1.87,0,0,1-1.49.48,3,3,0,0,0,1.37-.64,3.11,3.11,0,0,0,1-1.42,22,22,0,0,0,.29-2.37,27.65,27.65,0,0,0-.12-2.91c-.06-1.06-.12-2.19-.19-3.37a11.1,11.1,0,0,0-.62-3.58,3.46,3.46,0,0,0-2.76-2.22,2.06,2.06,0,0,0-1.65.61,3.16,3.16,0,0,0-.82,1.59,11.93,11.93,0,0,0,.15,3.63c.28,2.34.54,4.46.76,6.28.11.89.17,1.71.3,2.39a2.77,2.77,0,0,0,.76,1.55A1.78,1.78,0,0,0,266,264.42Z" style="fill:#e0e0e0"></path><path d="M235.39,268.76s-.13-.09-.24-.34a1.72,1.72,0,0,1,0-1.19,2.86,2.86,0,0,1,1.16-1.47c.59-.43,1.3-.82,2.07-1.29l5.43-3.23a12.29,12.29,0,0,1,3.44-1.62,3.72,3.72,0,0,1,2.08.16,2.57,2.57,0,0,1,1.49,1.6,3.93,3.93,0,0,1-1.11,3.93,11,11,0,0,1-3.21,2l-3.05,1.45A26.86,26.86,0,0,1,240.7,270a19.13,19.13,0,0,1-2.38.59,3.12,3.12,0,0,1-1.82-.48c-.91-.55-1.05-1.2-1-1.19a3,3,0,0,0,1.12,1,3.12,3.12,0,0,0,1.69.36,19.89,19.89,0,0,0,2.3-.65,28.46,28.46,0,0,0,2.64-1.23l3-1.49a10.89,10.89,0,0,0,3.06-1.95,3.46,3.46,0,0,0,1-3.41,2.07,2.07,0,0,0-1.19-1.28,3.24,3.24,0,0,0-1.8-.14,11.59,11.59,0,0,0-3.28,1.54l-5.5,3.13c-.77.45-1.51.82-2.09,1.21a2.72,2.72,0,0,0-1.13,1.3A1.78,1.78,0,0,0,235.39,268.76Z" style="fill:#e0e0e0"></path><path d="M235.36,220.43a91.09,91.09,0,0,1-4.83,8.47,92.58,92.58,0,0,1-5.28,8.19,90.49,90.49,0,0,1,4.83-8.46A90.24,90.24,0,0,1,235.36,220.43Z" style="fill:#263238"></path><path d="M237.13,215.56a23.19,23.19,0,0,0-.34-3.41,22,22,0,0,0-3.35-7.47,12.08,12.08,0,0,0-3.14-3.19,8.73,8.73,0,0,0-3.37-1.35,8.58,8.58,0,0,0-3.37.19,2.28,2.28,0,0,1,.87-.38,6.71,6.71,0,0,1,2.56-.17,8.73,8.73,0,0,1,3.58,1.31,12.13,12.13,0,0,1,3.3,3.29,20.24,20.24,0,0,1,3.28,7.7,10.55,10.55,0,0,1,.14,2.56A2.45,2.45,0,0,1,237.13,215.56Z" style="fill:#263238"></path><path d="M258.31,194.16s.06.11.12.33a6.45,6.45,0,0,1,.19,1,9.67,9.67,0,0,1-.3,3.68,10.14,10.14,0,0,1-2.85,4.67,10,10,0,0,1-12.59.49,10.21,10.21,0,0,1-3.21-4.44,9.47,9.47,0,0,1-.58-3.65,6.1,6.1,0,0,1,.11-1c.05-.23.08-.35.1-.34a11.56,11.56,0,0,0,.72,4.85,10,10,0,0,0,3.15,4.19,9.64,9.64,0,0,0,12-.47,10,10,0,0,0,2.83-4.42A11.59,11.59,0,0,0,258.31,194.16Z" style="fill:#263238"></path><path d="M267.1,217.46a11.81,11.81,0,0,1,1.75,2.38,22.55,22.55,0,0,1,2.84,6.56,16.16,16.16,0,0,1,.17,7.15,11.29,11.29,0,0,1-.65,2.08,2.08,2.08,0,0,1-.38.7c-.09,0,.37-1.07.67-2.85a17.44,17.44,0,0,0-.32-7,26.48,26.48,0,0,0-2.64-6.49A28.28,28.28,0,0,1,267.1,217.46Z" style="fill:#263238"></path><path d="M288.11,221.08a16.86,16.86,0,0,1-1.89,2.17l-4.71,5.09c-1.86,2-3.57,3.74-4.84,5a14.64,14.64,0,0,1-2.15,1.92,17.27,17.27,0,0,1,1.89-2.18l4.72-5.08c1.85-2,3.56-3.74,4.83-5A14.64,14.64,0,0,1,288.11,221.08Z" style="fill:#263238"></path><path d="M277.64,232.07c-.09.12-.62-.16-1.18-.62s-.94-.91-.85-1,.62.17,1.18.62S277.73,232,277.64,232.07Z" style="fill:#263238"></path><path d="M280.73,228.81c-.1.11-.61-.12-1.16-.52s-.92-.81-.84-.93.59.11,1.15.51S280.82,228.7,280.73,228.81Z" style="fill:#263238"></path><path d="M284.7,224.51c-.09.11-.58-.14-1.09-.57s-.84-.86-.75-1,.58.14,1.09.57S284.8,224.4,284.7,224.51Z" style="fill:#263238"></path><path d="M250.77,209.12c-.13.06-.59-.61-.8-1.57s-.07-1.77.07-1.76.24.75.44,1.65S250.9,209.05,250.77,209.12Z" style="fill:#263238"></path><path d="M256.55,206.37c-.11.09-.58-.34-1-1s-.74-1.19-.62-1.28.58.35,1,1S256.67,206.29,256.55,206.37Z" style="fill:#263238"></path><path d="M260.23,201.64c-.07.13-.65-.06-1.29-.41s-1.11-.75-1-.87.65.06,1.29.41S260.3,201.52,260.23,201.64Z" style="fill:#263238"></path><path d="M261.23,197c0,.15-.56.24-1.23.21s-1.21-.18-1.21-.32.56-.23,1.23-.2S261.23,196.88,261.23,197Z" style="fill:#263238"></path><path d="M242.75,207.7c-.12-.07.12-.71.54-1.43s.86-1.24,1-1.17-.11.71-.53,1.43S242.88,207.77,242.75,207.7Z" style="fill:#263238"></path><path d="M238.53,203.15c-.05-.14.49-.47,1.14-.85s1.21-.7,1.31-.59-.34.62-1,1S238.58,203.28,238.53,203.15Z" style="fill:#263238"></path><path d="M239.41,197.33c0,.14-.6.39-1.41.55s-1.48.17-1.51,0,.6-.38,1.41-.54S239.39,197.19,239.41,197.33Z" style="fill:#263238"></path><path d="M225.43,237.27a3.08,3.08,0,0,1-.82-.39c-.51-.28-1.22-.72-2.09-1.29-1.73-1.13-4-2.83-6.53-4.76s-4.74-3.68-6.42-4.88-2.73-1.92-2.69-2a3,3,0,0,1,.81.39c.51.28,1.23.72,2.09,1.29,1.74,1.13,4,2.83,6.53,4.76s4.75,3.68,6.42,4.88A32.08,32.08,0,0,1,225.43,237.27Z" style="fill:#263238"></path><path d="M210.8,222.7c.13.07-.1.78-.51,1.6s-.85,1.42-1,1.35.1-.77.51-1.59S210.68,222.64,210.8,222.7Z" style="fill:#263238"></path><path d="M215.35,225.89c.12.07-.14.8-.58,1.63s-.91,1.44-1,1.37.13-.79.57-1.62S215.22,225.83,215.35,225.89Z" style="fill:#263238"></path><path d="M220.28,229.82c.12.08-.19.74-.7,1.47s-1,1.25-1.14,1.17.2-.74.71-1.47S220.17,229.74,220.28,229.82Z" style="fill:#263238"></path><path d="M224.66,231.73c.13.07-.29,1-.92,2.11s-1.26,1.92-1.38,1.85a5.24,5.24,0,0,1,.93-2.11C223.92,232.49,224.54,231.66,224.66,231.73Z" style="fill:#263238"></path><path d="M248.24,205.89h0a9.19,9.19,0,0,0,9.89-8.8c.19-5,.36-10.06.36-10.06s7.57-.71,8.12-8.21.3-24.81.3-24.81h0a26.14,26.14,0,0,0-26.41,1.7l-1.16.79.42,40.33A9.18,9.18,0,0,0,248.24,205.89Z" style="fill:#a56959"></path><path d="M263.34,167.21a1.1,1.1,0,1,1,1.55,0A1.1,1.1,0,0,1,263.34,167.21Z" style="fill:#263238"></path><path d="M266.27,165.94c-.13.12-.83-.49-1.86-.56s-1.82.42-1.93.28.08-.29.43-.51a2.46,2.46,0,0,1,1.54-.39,2.5,2.5,0,0,1,1.48.61C266.23,165.64,266.33,165.89,266.27,165.94Z" style="fill:#263238"></path><path d="M253.54,165.79a1.09,1.09,0,0,1-1.25,1.79,1.09,1.09,0,0,1,1.25-1.79Z" style="fill:#263238"></path><path d="M255,166.18a2.14,2.14,0,0,0-1.86-.56c-1-.08-1.82.42-1.92.28s.08-.29.42-.52a2.56,2.56,0,0,1,1.55-.38,2.5,2.5,0,0,1,1.47.61C255,165.88,255.05,166.13,255,166.18Z" style="fill:#263238"></path><path d="M258.66,174.21a5,5,0,0,1,1.7-.26c.27,0,.49-.06.51-.2a1.43,1.43,0,0,0-.14-.79c-.23-.7-.45-1.41-.69-2.15-1-3.06-1.59-5.58-1.43-5.63a30.26,30.26,0,0,1,2,5.46c.22.75.44,1.46.65,2.16a1.77,1.77,0,0,1,.08,1.13.72.72,0,0,1-.5.41,1.92,1.92,0,0,1-.46,0A5.39,5.39,0,0,1,258.66,174.21Z" style="fill:#263238"></path><path d="M258.5,186.92a17.47,17.47,0,0,1-9.61-3.37s2,5.54,9.51,5.32Z" style="fill:#7c4435"></path><path d="M246.18,151.41a7.07,7.07,0,0,0,6,6.18c1.85.22,3.84-.29,5.5.55A9.68,9.68,0,0,1,260.5,161a4.46,4.46,0,0,0,3.32,2,9,9,0,0,0,1.88-.45,2.27,2.27,0,0,1,1.86.2,14.5,14.5,0,0,0,1.11-7,6.46,6.46,0,0,0-4.14-5.36c-1.5-.44-3.11-.16-4.64-.42a15.31,15.31,0,0,1-3.6-1.33,11.24,11.24,0,0,0-6.18-1.32c-2.11.32-4.15,2.07-4.1,4.2" style="fill:#263238"></path><path d="M239.86,171.94c2.72,2.18,6-3.48,7.45-7a34.69,34.69,0,0,0,2.11-11.34,5.61,5.61,0,0,0-.66-3.66c-.78-1-1.12.24-2-.75-1.67-1.94-4.75-.89-6.27-.23-2.53,1.1-4.11,3.92-4.61,6.79a28,28,0,0,0,.32,8.71c.18,1.32.37,2.63.56,3.95a6.37,6.37,0,0,0,.78,2.67,1.9,1.9,0,0,0,2.29.89" style="fill:#263238"></path><path d="M239.76,165.77a1.13,1.13,0,0,0-1.08-1.14c-1.4,0-3.69.52-3.9,4.39-.31,5.52,5,4.14,5,4S239.78,167.91,239.76,165.77Z" style="fill:#a56959"></path><path d="M238.58,170.83s-.1.06-.27.13a.93.93,0,0,1-.71,0,2.34,2.34,0,0,1-1-2.19,3.11,3.11,0,0,1,.35-1.36,1.08,1.08,0,0,1,.76-.7.48.48,0,0,1,.55.29c.07.16,0,.27.06.28s.12-.09.09-.32a.64.64,0,0,0-.2-.35.71.71,0,0,0-.52-.17,1.34,1.34,0,0,0-1.06.8,3.21,3.21,0,0,0-.41,1.52,2.49,2.49,0,0,0,1.27,2.46,1.05,1.05,0,0,0,.89-.1C238.56,171,238.6,170.84,238.58,170.83Z" style="fill:#7c4435"></path><path d="M256,175.53a1.5,1.5,0,1,0,.12-.17" style="fill:#7c4435"></path><path d="M259.47,176.61a2.9,2.9,0,0,1-2.34-.08c-1.27-.45-2-1.34-1.86-1.42s.89.53,2,.93S259.46,176.46,259.47,176.61Z" style="fill:#263238"></path><path d="M242.16,147.73c0,.16-1.2.52-2.45,1.43a15.57,15.57,0,0,0-2,1.76l-.44.39.28-.47c.06-.11.11-.15.14-.14s0,.07,0,.2l-.16-.08a5.21,5.21,0,0,1,1.81-2.08A4.22,4.22,0,0,1,242.16,147.73Z" style="fill:#FC6423"></path><path d="M254,162.49c-.17.4-1,.46-1.84.64s-1.65.4-2,.09c-.14-.16-.09-.47.2-.81a2.54,2.54,0,0,1,1.46-.81,2.57,2.57,0,0,1,1.66.2C253.86,162,254,162.29,254,162.49Z" style="fill:#263238"></path></g><g id="freepik--Plant--inject-105"><path d="M133.17,416.5c-1.77,2.53-5.21,1.69-6.81.14s-2.27-3.78-2.89-5.91c-1.4-4.88-2.81-10-1.77-15a8.39,8.39,0,0,1,1.91-4.07,4.33,4.33,0,0,1,4.11-1.36c1.74.45,2.82,2.15,3.6,3.77a35.68,35.68,0,0,1,3.52,15.3,12.38,12.38,0,0,1-1.67,7.09" style="fill:#FC6423"></path><g style="opacity:0.2"><path d="M133.17,416.5c-1.77,2.53-5.21,1.69-6.81.14s-2.27-3.78-2.89-5.91c-1.4-4.88-2.81-10-1.77-15a8.39,8.39,0,0,1,1.91-4.07,4.33,4.33,0,0,1,4.11-1.36c1.74.45,2.82,2.15,3.6,3.77a35.68,35.68,0,0,1,3.52,15.3,12.38,12.38,0,0,1-1.67,7.09"></path></g><path d="M126.53,429.31a15.3,15.3,0,0,0-9.52-1.16,7.83,7.83,0,0,0-4.7,2.1c-1.18,1.3-1.4,3.58,0,4.7a4.52,4.52,0,0,0,3,.75c2.52,0,5.31-.47,7.33,1,1.14.86,1.91,2.3,3.28,2.73a3.26,3.26,0,0,0,3.57-1.59,5.56,5.56,0,0,0,.4-4.09A6.24,6.24,0,0,0,126.53,429.31Z" style="fill:#FC6423"></path><path d="M138,420.13a9.25,9.25,0,0,1-1.43-8.48,16.35,16.35,0,0,1,5-7.27,26.94,26.94,0,0,1,9-5.3,9.55,9.55,0,0,1,4-.69,4.24,4.24,0,0,1,3.39,2.05c.95,1.8,0,4-.94,5.78a68.46,68.46,0,0,1-5.9,9c-1.77,2.28-3.79,4.53-6.49,5.56s-5.49.91-6.92-1" style="fill:#FC6423"></path><path d="M133.29,454.66a5.59,5.59,0,0,1-.16-1.15c-.08-.84-.18-1.89-.31-3.14a45.26,45.26,0,0,0-.7-4.6,36.23,36.23,0,0,0-1.67-5.43,20.17,20.17,0,0,0-2.78-4.92,10.36,10.36,0,0,0-3.5-2.91,9.73,9.73,0,0,0-3-.92,5.06,5.06,0,0,1-1.14-.17,6.1,6.1,0,0,1,1.16,0,8.72,8.72,0,0,1,3.08.8,10.34,10.34,0,0,1,3.7,2.94,19.57,19.57,0,0,1,2.88,5,34.15,34.15,0,0,1,1.66,5.52,41.94,41.94,0,0,1,.61,4.66c.1,1.33.14,2.41.15,3.16A5.6,5.6,0,0,1,133.29,454.66Z" style="fill:#263238"></path><path d="M133.07,452.24a3.6,3.6,0,0,1,0-.53c0-.4,0-.91,0-1.53,0-1.32,0-3.24-.07-5.6-.12-4.73-.53-11.26-1.31-18.44s-1.85-13.64-2.8-18.27c-.23-1.16-.46-2.21-.67-3.13s-.38-1.7-.55-2.34-.26-1.1-.36-1.49a2.28,2.28,0,0,1-.09-.52,2,2,0,0,1,.19.5c.11.38.26.87.44,1.46s.4,1.42.63,2.33.49,2,.73,3.12a172.31,172.31,0,0,1,2.95,18.29c.79,7.19,1.14,13.74,1.17,18.48,0,2.37,0,4.29-.08,5.62,0,.62-.07,1.12-.09,1.52A2,2,0,0,1,133.07,452.24Z" style="fill:#263238"></path><path d="M133,439.61a10.2,10.2,0,0,1,0-1.59c.06-1,.2-2.51.49-4.32a57.83,57.83,0,0,1,1.4-6.29,56.64,56.64,0,0,1,2.63-7.44,39.73,39.73,0,0,1,7.73-12,22.39,22.39,0,0,1,1.81-1.69c.28-.23.53-.47.78-.65l.71-.49a9.25,9.25,0,0,1,1.34-.86,48.91,48.91,0,0,0-4.4,3.92,41.68,41.68,0,0,0-7.53,12,59.15,59.15,0,0,0-2.65,7.37c-.68,2.31-1.14,4.44-1.49,6.23s-.52,3.26-.63,4.27A11.1,11.1,0,0,1,133,439.61Z" style="fill:#263238"></path></g><g id="freepik--speech-bubble--inject-105"><path d="M199.4,145.73h0l.08.22.21.63.82,2.48,3.09,9.49,0,.13-.14,0-13.19-2.41-.09,0v-.09h0l.18.09a33.12,33.12,0,0,1-19.94,6.61,36.77,36.77,0,0,1-4.86-.41,35.34,35.34,0,0,1-4.94-1.1c-.8-.3-1.61-.6-2.43-.89a9.25,9.25,0,0,1-1.21-.53l-1.19-.57a33.92,33.92,0,0,1-8.81-6.39,32.35,32.35,0,0,1-6.47-9.42,33,33,0,0,1,31.29-46.74,32.91,32.91,0,0,1,31.67,30.89,32.24,32.24,0,0,1-3.07,16.09c-.32.66-.58,1.16-.76,1.48l-.29.5.25-.5c.18-.35.43-.84.74-1.51a33.31,33.31,0,0,0,2.1-6,31.21,31.21,0,0,0,.84-10,32.76,32.76,0,0,0-14.09-24.85,32.91,32.91,0,0,0-36.82-.26,32.68,32.68,0,0,0-11.56,40.81,32.23,32.23,0,0,0,6.4,9.34A33.71,33.71,0,0,0,156,159l1.18.57a7.8,7.8,0,0,0,1.19.52l2.41.89a34.69,34.69,0,0,0,4.89,1.1,36.18,36.18,0,0,0,4.82.41,32.12,32.12,0,0,0,4.64-.29A32.81,32.81,0,0,0,190.28,156l.17-.13v.22h0l-.09-.11,13.18,2.47-.09.11c-1.3-4.12-2.32-7.33-3-9.51l-.78-2.49c-.08-.28-.15-.49-.19-.64l-.06-.23h0Z" style="fill:#263238"></path><polygon points="167.6 141.57 156.15 129.25 159.86 125.81 167.77 134.31 184.37 117.98 187.92 121.58 167.6 141.57" style="fill:#455a64"></polygon></g></svg>