<svg width="58" height="63" viewBox="0 0 58 63" fill="none" xmlns="http://www.w3.org/2000/svg">
<path d="M56.5003 22.368V54.97C56.5003 58.5599 53.5901 61.47 50.0003 61.47H20.1599C16.5701 61.47 13.6599 58.5598 13.6599 54.97V8C13.6599 4.41015 16.5701 1.5 20.1599 1.5H37.2878V12.868C37.2878 18.1147 41.5411 22.368 46.7878 22.368H56.5003ZM54.5804 19.368H46.7878C43.1979 19.368 40.2878 16.4578 40.2878 12.868V3.84385L54.5804 19.368Z" fill="#EEF1F7" stroke="#CBD0DC" stroke-width="3"/>
<rect y="29.6163" width="41.61" height="20.59" rx="4" fill="#018BD3"/>
<path d="M4.54186 45.5691L1.87354 36.1145H3.71551L5.41899 43.0623H5.5067L7.32559 36.1145H9.00138L10.8249 43.067H10.908L12.6115 36.1145H14.4534L11.7851 45.5691H10.0955L8.20273 38.9352H8.12886L6.23149 45.5691H4.54186ZM15.641 45.5691V36.1145H21.7902V37.5503H17.3537V40.117H21.4716V41.5528H17.3537V44.1334H21.8271V45.5691H15.641ZM23.5375 45.5691V36.1145H27.1568C27.8401 36.1145 28.4079 36.2223 28.8603 36.4377C29.3158 36.6501 29.6559 36.9409 29.8805 37.3102C30.1083 37.6795 30.2222 38.0981 30.2222 38.5659C30.2222 38.9506 30.1483 39.2799 30.0006 39.5538C29.8529 39.8247 29.6543 40.0447 29.4051 40.214C29.1558 40.3832 28.8772 40.5048 28.5695 40.5787V40.671C28.9049 40.6895 29.2265 40.7926 29.5343 40.9803C29.8452 41.165 30.0991 41.4266 30.296 41.7651C30.493 42.1037 30.5915 42.513 30.5915 42.9931C30.5915 43.4824 30.473 43.9225 30.236 44.3134C29.999 44.7012 29.642 45.0074 29.165 45.2321C28.688 45.4568 28.0878 45.5691 27.3646 45.5691H23.5375ZM25.2502 44.138H27.0922C27.7139 44.138 28.1617 44.0195 28.4356 43.7825C28.7126 43.5425 28.8511 43.2347 28.8511 42.8592C28.8511 42.5792 28.7818 42.3268 28.6433 42.1021C28.5048 41.8744 28.3079 41.6959 28.0524 41.5666C27.797 41.4343 27.4923 41.3681 27.1384 41.3681H25.2502V44.138ZM25.2502 40.1355H26.9445C27.2399 40.1355 27.5061 40.0816 27.7431 39.9739C27.9801 39.8631 28.1663 39.7077 28.3017 39.5077C28.4402 39.3045 28.5095 39.0645 28.5095 38.7875C28.5095 38.4212 28.3802 38.1196 28.1217 37.8827C27.8662 37.6457 27.4861 37.5272 26.9814 37.5272H25.2502V40.1355ZM32.0815 45.5691V36.1145H35.6269C36.3532 36.1145 36.9626 36.25 37.455 36.5208C37.9505 36.7916 38.3245 37.164 38.5768 37.638C38.8323 38.1089 38.96 38.6444 38.96 39.2445C38.96 39.8508 38.8323 40.3894 38.5768 40.8603C38.3214 41.3312 37.9444 41.702 37.4458 41.9729C36.9472 42.2406 36.3332 42.3745 35.6038 42.3745H33.254V40.9665H35.373C35.7977 40.9665 36.1455 40.8926 36.4163 40.7449C36.6872 40.5971 36.8872 40.394 37.0165 40.1355C37.1488 39.877 37.215 39.58 37.215 39.2445C37.215 38.9091 37.1488 38.6136 37.0165 38.3582C36.8872 38.1027 36.6856 37.9042 36.4117 37.7626C36.1409 37.618 35.7916 37.5457 35.3638 37.5457H33.7942V45.5691H32.0815Z" fill="white"/>
</svg>
